G04 #@! TF.FileFunction,Soldermask,Bot*
%FSLAX46Y46*%
G04 Gerber Fmt 4.6, Leading zero omitted, Abs format (unit mm)*
G04 Created by KiCad (PCBNEW 4.0.6) date Tue Oct  9 15:10:24 2018*
%MOMM*%
%LPD*%
G01*
G04 APERTURE LIST*
%ADD10C,0.100000*%
%ADD11O,1.625600X2.641600*%
%ADD12C,2.501600*%
%ADD13R,2.501600X2.501600*%
%ADD14R,1.351600X1.101600*%
%ADD15R,1.101600X1.351600*%
%ADD16R,1.801600X1.801600*%
%ADD17O,1.801600X1.801600*%
%ADD18R,1.401600X0.801600*%
%ADD19R,0.801600X1.401600*%
%ADD20C,1.361600*%
%ADD21R,0.609600X1.244600*%
G04 APERTURE END LIST*
D10*
D11*
X163830000Y-125560000D03*
X161290000Y-125560000D03*
X158750000Y-125560000D03*
X151130000Y-125560000D03*
X153670000Y-125560000D03*
X156210000Y-125560000D03*
X146050000Y-125560000D03*
X143510000Y-125560000D03*
X140970000Y-125560000D03*
X135890000Y-125560000D03*
X133350000Y-125560000D03*
X163830000Y-77300000D03*
X161290000Y-77300000D03*
X158750000Y-77300000D03*
X156210000Y-77300000D03*
X153670000Y-77300000D03*
X151130000Y-77300000D03*
X148590000Y-77300000D03*
X146050000Y-77300000D03*
X141986000Y-77300000D03*
X139446000Y-77300000D03*
X136906000Y-77300000D03*
X134366000Y-77300000D03*
X131826000Y-77300000D03*
X129286000Y-77300000D03*
X126746000Y-77300000D03*
X124206000Y-77300000D03*
X138430000Y-125560000D03*
D12*
X145540000Y-114600000D03*
X142040000Y-114600000D03*
X149040000Y-114600000D03*
X152540000Y-114600000D03*
X156040000Y-114600000D03*
X159540000Y-114600000D03*
D13*
X138540000Y-114600000D03*
D12*
X163040000Y-114600000D03*
X178890000Y-119860000D03*
X175390000Y-119860000D03*
X182390000Y-119860000D03*
X185890000Y-119860000D03*
X189390000Y-119860000D03*
X192890000Y-119860000D03*
D13*
X171890000Y-119860000D03*
D12*
X196390000Y-119860000D03*
X145670000Y-85310000D03*
X142170000Y-85310000D03*
X149170000Y-85310000D03*
X152670000Y-85310000D03*
X156170000Y-85310000D03*
X159670000Y-85310000D03*
D13*
X138670000Y-85310000D03*
D12*
X163170000Y-85310000D03*
X111800000Y-85310000D03*
X108300000Y-85310000D03*
X115300000Y-85310000D03*
X118800000Y-85310000D03*
X122300000Y-85310000D03*
X125800000Y-85310000D03*
D13*
X104800000Y-85310000D03*
D12*
X129300000Y-85310000D03*
X178840000Y-80540000D03*
X175340000Y-80540000D03*
X182340000Y-80540000D03*
X185840000Y-80540000D03*
X189340000Y-80540000D03*
X192840000Y-80540000D03*
D13*
X171840000Y-80540000D03*
D12*
X196340000Y-80540000D03*
X111710000Y-100060000D03*
X108210000Y-100060000D03*
X115210000Y-100060000D03*
X118710000Y-100060000D03*
X122210000Y-100060000D03*
X125710000Y-100060000D03*
D13*
X104710000Y-100060000D03*
D12*
X129210000Y-100060000D03*
X111710000Y-114640000D03*
X108210000Y-114640000D03*
X115210000Y-114640000D03*
X118710000Y-114640000D03*
X122210000Y-114640000D03*
X125710000Y-114640000D03*
D13*
X104710000Y-114640000D03*
D12*
X129210000Y-114640000D03*
X178840000Y-99920000D03*
X175340000Y-99920000D03*
X182340000Y-99920000D03*
X185840000Y-99920000D03*
X189340000Y-99920000D03*
X192840000Y-99920000D03*
D13*
X171840000Y-99920000D03*
D12*
X196340000Y-99920000D03*
D14*
X144240000Y-104990000D03*
X144240000Y-106990000D03*
D15*
X138770000Y-109010000D03*
X140770000Y-109010000D03*
D16*
X162620000Y-103560000D03*
D17*
X165160000Y-103560000D03*
X162620000Y-106100000D03*
X165160000Y-106100000D03*
D16*
X162700000Y-96160000D03*
D17*
X165240000Y-96160000D03*
X162700000Y-98700000D03*
X165240000Y-98700000D03*
D18*
X134900000Y-106210000D03*
X134900000Y-108110000D03*
X173380000Y-115290000D03*
X173380000Y-117190000D03*
X180350000Y-115290000D03*
X180350000Y-117190000D03*
X194550000Y-101820000D03*
X194550000Y-103720000D03*
X191040000Y-101830000D03*
X191040000Y-103730000D03*
X192320000Y-116860000D03*
X192320000Y-114960000D03*
X168250000Y-105440000D03*
X168250000Y-103540000D03*
X195870000Y-114850000D03*
X195870000Y-112950000D03*
X159550000Y-119960000D03*
X159550000Y-118060000D03*
D19*
X187740000Y-94260000D03*
X185840000Y-94260000D03*
X169270000Y-93700000D03*
X171170000Y-93700000D03*
D18*
X168270000Y-95750000D03*
X168270000Y-97650000D03*
X168250000Y-101250000D03*
X168250000Y-99350000D03*
X170160000Y-109760000D03*
X170160000Y-107860000D03*
X180390000Y-103920000D03*
X180390000Y-102020000D03*
X187430000Y-103980000D03*
X187430000Y-102080000D03*
X198530000Y-115860000D03*
X198530000Y-113960000D03*
D19*
X129340000Y-97220000D03*
X131240000Y-97220000D03*
D18*
X176850000Y-84500000D03*
X176850000Y-86400000D03*
X142180000Y-82520000D03*
X142180000Y-80620000D03*
D19*
X129340000Y-106950000D03*
X131240000Y-106950000D03*
X123810000Y-97720000D03*
X125710000Y-97720000D03*
X185840000Y-96350000D03*
X187740000Y-96350000D03*
D18*
X149220000Y-82520000D03*
X149220000Y-80620000D03*
D19*
X129340000Y-102870000D03*
X131240000Y-102870000D03*
X115680000Y-97500000D03*
X113780000Y-97500000D03*
D18*
X190710000Y-86250000D03*
X190710000Y-84350000D03*
X156170000Y-82520000D03*
X156170000Y-80620000D03*
X122290000Y-82670000D03*
X122290000Y-80770000D03*
D19*
X121280000Y-97760000D03*
X119380000Y-97760000D03*
D18*
X197090000Y-84390000D03*
X197090000Y-86290000D03*
X163170000Y-82520000D03*
X163170000Y-80620000D03*
X129260000Y-82560000D03*
X129260000Y-80660000D03*
D20*
X151500000Y-99850000D03*
X148960000Y-102390000D03*
X151500000Y-104930000D03*
D21*
X145025000Y-89555000D03*
X142485000Y-89555000D03*
X141215000Y-89555000D03*
X139945000Y-89555000D03*
X138675000Y-89555000D03*
X137405000Y-89555000D03*
X136135000Y-89555000D03*
X136135000Y-95905000D03*
X137405000Y-95905000D03*
X138675000Y-95905000D03*
X139945000Y-95905000D03*
X141215000Y-95905000D03*
X142485000Y-95905000D03*
X143755000Y-95905000D03*
X145025000Y-95905000D03*
X143755000Y-89555000D03*
X137745000Y-105645000D03*
X139015000Y-105645000D03*
X140285000Y-105645000D03*
X141555000Y-105645000D03*
X141555000Y-99295000D03*
X140285000Y-99295000D03*
X139015000Y-99295000D03*
X137745000Y-99295000D03*
X183275000Y-105445000D03*
X180735000Y-105445000D03*
X179465000Y-105445000D03*
X178195000Y-105445000D03*
X176925000Y-105445000D03*
X175655000Y-105445000D03*
X174385000Y-105445000D03*
X174385000Y-111795000D03*
X175655000Y-111795000D03*
X176925000Y-111795000D03*
X178195000Y-111795000D03*
X179465000Y-111795000D03*
X180735000Y-111795000D03*
X182005000Y-111795000D03*
X183275000Y-111795000D03*
X182005000Y-105445000D03*
X183235000Y-89635000D03*
X180695000Y-89635000D03*
X179425000Y-89635000D03*
X178155000Y-89635000D03*
X176885000Y-89635000D03*
X175615000Y-89635000D03*
X174345000Y-89635000D03*
X174345000Y-95985000D03*
X175615000Y-95985000D03*
X176885000Y-95985000D03*
X178155000Y-95985000D03*
X179425000Y-95985000D03*
X180695000Y-95985000D03*
X181965000Y-95985000D03*
X183235000Y-95985000D03*
X181965000Y-89635000D03*
X126355000Y-89515000D03*
X123815000Y-89515000D03*
X122545000Y-89515000D03*
X121275000Y-89515000D03*
X120005000Y-89515000D03*
X118735000Y-89515000D03*
X117465000Y-89515000D03*
X117465000Y-95865000D03*
X118735000Y-95865000D03*
X120005000Y-95865000D03*
X121275000Y-95865000D03*
X122545000Y-95865000D03*
X123815000Y-95865000D03*
X125085000Y-95865000D03*
X126355000Y-95865000D03*
X125085000Y-89515000D03*
X126195000Y-103805000D03*
X123655000Y-103805000D03*
X122385000Y-103805000D03*
X121115000Y-103805000D03*
X119845000Y-103805000D03*
X118575000Y-103805000D03*
X117305000Y-103805000D03*
X117305000Y-110155000D03*
X118575000Y-110155000D03*
X119845000Y-110155000D03*
X121115000Y-110155000D03*
X122385000Y-110155000D03*
X123655000Y-110155000D03*
X124925000Y-110155000D03*
X126195000Y-110155000D03*
X124925000Y-103805000D03*
X198170000Y-96272000D03*
X196900000Y-96272000D03*
X195630000Y-96272000D03*
X194360000Y-96272000D03*
X193090000Y-96272000D03*
X191820000Y-96272000D03*
X190550000Y-96272000D03*
X190550000Y-89922000D03*
X191820000Y-89922000D03*
X194360000Y-89922000D03*
X195630000Y-89922000D03*
X196900000Y-89922000D03*
X198170000Y-89922000D03*
X193090000Y-89922000D03*
X198370000Y-111502000D03*
X197100000Y-111502000D03*
X195830000Y-111502000D03*
X194560000Y-111502000D03*
X193290000Y-111502000D03*
X192020000Y-111502000D03*
X190750000Y-111502000D03*
X190750000Y-105152000D03*
X192020000Y-105152000D03*
X194560000Y-105152000D03*
X195830000Y-105152000D03*
X197100000Y-105152000D03*
X198370000Y-105152000D03*
X193290000Y-105152000D03*
X158050000Y-95882000D03*
X156780000Y-95882000D03*
X155510000Y-95882000D03*
X154240000Y-95882000D03*
X152970000Y-95882000D03*
X151700000Y-95882000D03*
X150430000Y-95882000D03*
X150430000Y-89532000D03*
X151700000Y-89532000D03*
X154240000Y-89532000D03*
X155510000Y-89532000D03*
X156780000Y-89532000D03*
X158050000Y-89532000D03*
X152970000Y-89532000D03*
X112110000Y-95692000D03*
X110840000Y-95692000D03*
X109570000Y-95692000D03*
X108300000Y-95692000D03*
X107030000Y-95692000D03*
X105760000Y-95692000D03*
X104490000Y-95692000D03*
X104490000Y-89342000D03*
X105760000Y-89342000D03*
X108300000Y-89342000D03*
X109570000Y-89342000D03*
X110840000Y-89342000D03*
X112110000Y-89342000D03*
X107030000Y-89342000D03*
X112000000Y-110242000D03*
X110730000Y-110242000D03*
X109460000Y-110242000D03*
X108190000Y-110242000D03*
X106920000Y-110242000D03*
X105650000Y-110242000D03*
X104380000Y-110242000D03*
X104380000Y-103892000D03*
X105650000Y-103892000D03*
X108190000Y-103892000D03*
X109460000Y-103892000D03*
X110730000Y-103892000D03*
X112000000Y-103892000D03*
X106920000Y-103892000D03*
M02*
