G04 #@! TF.FileFunction,Copper,L1,Top,Signal*
%FSLAX46Y46*%
G04 Gerber Fmt 4.6, Leading zero omitted, Abs format (unit mm)*
G04 Created by KiCad (PCBNEW 4.0.6) date Tue Oct  9 15:10:24 2018*
%MOMM*%
%LPD*%
G01*
G04 APERTURE LIST*
%ADD10C,0.100000*%
%ADD11O,1.524000X2.540000*%
%ADD12C,2.400000*%
%ADD13R,2.400000X2.400000*%
%ADD14R,1.700000X1.700000*%
%ADD15O,1.700000X1.700000*%
%ADD16C,1.260000*%
%ADD17C,0.685800*%
%ADD18C,0.300000*%
%ADD19C,0.254000*%
G04 APERTURE END LIST*
D10*
D11*
X163830000Y-125560000D03*
X161290000Y-125560000D03*
X158750000Y-125560000D03*
X151130000Y-125560000D03*
X153670000Y-125560000D03*
X156210000Y-125560000D03*
X146050000Y-125560000D03*
X143510000Y-125560000D03*
X140970000Y-125560000D03*
X135890000Y-125560000D03*
X133350000Y-125560000D03*
X163830000Y-77300000D03*
X161290000Y-77300000D03*
X158750000Y-77300000D03*
X156210000Y-77300000D03*
X153670000Y-77300000D03*
X151130000Y-77300000D03*
X148590000Y-77300000D03*
X146050000Y-77300000D03*
X141986000Y-77300000D03*
X139446000Y-77300000D03*
X136906000Y-77300000D03*
X134366000Y-77300000D03*
X131826000Y-77300000D03*
X129286000Y-77300000D03*
X126746000Y-77300000D03*
X124206000Y-77300000D03*
X138430000Y-125560000D03*
D12*
X145540000Y-114600000D03*
X142040000Y-114600000D03*
X149040000Y-114600000D03*
X152540000Y-114600000D03*
X156040000Y-114600000D03*
X159540000Y-114600000D03*
D13*
X138540000Y-114600000D03*
D12*
X163040000Y-114600000D03*
X178890000Y-119860000D03*
X175390000Y-119860000D03*
X182390000Y-119860000D03*
X185890000Y-119860000D03*
X189390000Y-119860000D03*
X192890000Y-119860000D03*
D13*
X171890000Y-119860000D03*
D12*
X196390000Y-119860000D03*
X145670000Y-85310000D03*
X142170000Y-85310000D03*
X149170000Y-85310000D03*
X152670000Y-85310000D03*
X156170000Y-85310000D03*
X159670000Y-85310000D03*
D13*
X138670000Y-85310000D03*
D12*
X163170000Y-85310000D03*
X111800000Y-85310000D03*
X108300000Y-85310000D03*
X115300000Y-85310000D03*
X118800000Y-85310000D03*
X122300000Y-85310000D03*
X125800000Y-85310000D03*
D13*
X104800000Y-85310000D03*
D12*
X129300000Y-85310000D03*
X178840000Y-80540000D03*
X175340000Y-80540000D03*
X182340000Y-80540000D03*
X185840000Y-80540000D03*
X189340000Y-80540000D03*
X192840000Y-80540000D03*
D13*
X171840000Y-80540000D03*
D12*
X196340000Y-80540000D03*
X111710000Y-100060000D03*
X108210000Y-100060000D03*
X115210000Y-100060000D03*
X118710000Y-100060000D03*
X122210000Y-100060000D03*
X125710000Y-100060000D03*
D13*
X104710000Y-100060000D03*
D12*
X129210000Y-100060000D03*
X111710000Y-114640000D03*
X108210000Y-114640000D03*
X115210000Y-114640000D03*
X118710000Y-114640000D03*
X122210000Y-114640000D03*
X125710000Y-114640000D03*
D13*
X104710000Y-114640000D03*
D12*
X129210000Y-114640000D03*
X178840000Y-99920000D03*
X175340000Y-99920000D03*
X182340000Y-99920000D03*
X185840000Y-99920000D03*
X189340000Y-99920000D03*
X192840000Y-99920000D03*
D13*
X171840000Y-99920000D03*
D12*
X196340000Y-99920000D03*
D14*
X162620000Y-103560000D03*
D15*
X165160000Y-103560000D03*
X162620000Y-106100000D03*
X165160000Y-106100000D03*
D14*
X162700000Y-96160000D03*
D15*
X165240000Y-96160000D03*
X162700000Y-98700000D03*
X165240000Y-98700000D03*
D16*
X151500000Y-99850000D03*
X148960000Y-102390000D03*
X151500000Y-104930000D03*
D17*
X142886300Y-79330300D03*
X149426700Y-79752400D03*
X118170800Y-97194800D03*
X126567800Y-97483600D03*
X152423200Y-83179700D03*
X116906100Y-90524000D03*
X173828200Y-103958400D03*
X114168200Y-102145200D03*
X173580300Y-89533300D03*
X141831600Y-94986700D03*
X141737100Y-97312700D03*
X197475500Y-97549600D03*
X188100700Y-121183600D03*
X193672000Y-110328900D03*
X176011900Y-108877100D03*
X177371100Y-109359200D03*
X188454400Y-109359200D03*
X178428900Y-110266900D03*
X175916700Y-107611400D03*
X191348300Y-109560300D03*
X153509800Y-93088200D03*
X172017000Y-93920900D03*
X180668300Y-94639400D03*
X154254800Y-98451600D03*
X177626700Y-97771400D03*
X162011400Y-101442800D03*
X155490900Y-92635500D03*
X185525600Y-93093600D03*
X182542900Y-94632700D03*
X180342800Y-98985100D03*
X181507000Y-91899800D03*
X166392800Y-97532000D03*
X127620200Y-98582100D03*
X123994400Y-94783300D03*
X116553900Y-97721200D03*
X121820600Y-94828600D03*
X111818200Y-91503500D03*
X122395200Y-87164200D03*
X122829900Y-87960100D03*
X127114300Y-88614300D03*
X123994200Y-108784900D03*
X146597300Y-93750600D03*
X106119900Y-105236000D03*
X108106300Y-108699700D03*
X116252400Y-103826100D03*
X109370700Y-107679100D03*
X120596100Y-102727700D03*
X112035200Y-108195700D03*
X123655000Y-102705800D03*
X142635000Y-94412800D03*
X118912300Y-109080900D03*
X169920000Y-94906500D03*
X122404900Y-105764900D03*
X117797100Y-107677000D03*
X146660600Y-91730000D03*
X124898300Y-92714000D03*
X175135700Y-91933300D03*
X190051900Y-108286000D03*
X131302200Y-80895100D03*
X131163900Y-90631700D03*
X179032300Y-90731000D03*
X128659500Y-101823300D03*
X122066000Y-90584900D03*
X159180700Y-95115100D03*
X194903200Y-95280600D03*
X123542800Y-91281800D03*
X193766600Y-95198800D03*
D18*
X142428700Y-78872700D02*
X142886300Y-79330300D01*
X126746000Y-78872700D02*
X142428700Y-78872700D01*
X126746000Y-77300000D02*
X126746000Y-78872700D01*
X149004600Y-79330300D02*
X149426700Y-79752400D01*
X142886300Y-79330300D02*
X149004600Y-79330300D01*
X126279000Y-97194800D02*
X126567800Y-97483600D01*
X118170800Y-97194800D02*
X126279000Y-97194800D01*
X146050000Y-77300000D02*
X146050000Y-75727300D01*
X154173400Y-75727300D02*
X146050000Y-75727300D01*
X154772200Y-76326100D02*
X154173400Y-75727300D01*
X154772200Y-80830700D02*
X154772200Y-76326100D01*
X152423200Y-83179700D02*
X154772200Y-80830700D01*
X165160000Y-106100000D02*
X165160000Y-104947300D01*
X165160000Y-103560000D02*
X165160000Y-104947300D01*
X173429800Y-103560000D02*
X173828200Y-103958400D01*
X165160000Y-103560000D02*
X173429800Y-103560000D01*
X111822600Y-90524000D02*
X116906100Y-90524000D01*
X111153000Y-91193600D02*
X111822600Y-90524000D01*
X111153000Y-97114600D02*
X111153000Y-91193600D01*
X113264600Y-99226200D02*
X111153000Y-97114600D01*
X113264600Y-101241600D02*
X113264600Y-99226200D01*
X114168200Y-102145200D02*
X113264600Y-101241600D01*
X117896800Y-89533300D02*
X173580300Y-89533300D01*
X116906100Y-90524000D02*
X117896800Y-89533300D01*
X138670000Y-85310000D02*
X140172700Y-85310000D01*
X144165000Y-83805000D02*
X145670000Y-85310000D01*
X141489900Y-83805000D02*
X144165000Y-83805000D01*
X140172700Y-85122200D02*
X141489900Y-83805000D01*
X140172700Y-85310000D02*
X140172700Y-85122200D01*
X138670000Y-85310000D02*
X137167300Y-85310000D01*
X125800000Y-85310000D02*
X125800000Y-83921700D01*
X135664600Y-83807300D02*
X137167300Y-85310000D01*
X125914400Y-83807300D02*
X135664600Y-83807300D01*
X125800000Y-83921700D02*
X125914400Y-83807300D01*
X147172800Y-83807200D02*
X145670000Y-85310000D01*
X151167200Y-83807200D02*
X147172800Y-83807200D01*
X152670000Y-85310000D02*
X151167200Y-83807200D01*
X190845200Y-98414800D02*
X189340000Y-99920000D01*
X194834800Y-98414800D02*
X190845200Y-98414800D01*
X196340000Y-99920000D02*
X194834800Y-98414800D01*
X190892800Y-118357200D02*
X189390000Y-119860000D01*
X194887200Y-118357200D02*
X190892800Y-118357200D01*
X196390000Y-119860000D02*
X194887200Y-118357200D01*
X183892800Y-118357200D02*
X182390000Y-119860000D01*
X187887200Y-118357200D02*
X183892800Y-118357200D01*
X189390000Y-119860000D02*
X187887200Y-118357200D01*
X176892800Y-118357200D02*
X175390000Y-119860000D01*
X180887200Y-118357200D02*
X176892800Y-118357200D01*
X182390000Y-119860000D02*
X180887200Y-118357200D01*
X104710000Y-86902700D02*
X104800000Y-86812700D01*
X104710000Y-100060000D02*
X104710000Y-86902700D01*
X104800000Y-85310000D02*
X104800000Y-86812700D01*
X110297300Y-86812700D02*
X104800000Y-86812700D01*
X111800000Y-85310000D02*
X110297300Y-86812700D01*
X132780000Y-118210000D02*
X138430000Y-118210000D01*
X129210000Y-114640000D02*
X132780000Y-118210000D01*
X142040000Y-114600000D02*
X138430000Y-118210000D01*
X138430000Y-118210000D02*
X138430000Y-125560000D01*
X183842800Y-98417200D02*
X182340000Y-99920000D01*
X187837200Y-98417200D02*
X183842800Y-98417200D01*
X189340000Y-99920000D02*
X187837200Y-98417200D01*
X150550500Y-113089500D02*
X149040000Y-114600000D01*
X154529500Y-113089500D02*
X150550500Y-113089500D01*
X156040000Y-114600000D02*
X154529500Y-113089500D01*
X173307600Y-101952400D02*
X175340000Y-99920000D01*
X165108300Y-101952400D02*
X173307600Y-101952400D01*
X163772700Y-103288000D02*
X165108300Y-101952400D01*
X163772700Y-104587100D02*
X163772700Y-103288000D01*
X163412500Y-104947300D02*
X163772700Y-104587100D01*
X162620000Y-104947300D02*
X163412500Y-104947300D01*
X162620000Y-106100000D02*
X162620000Y-104947300D01*
X164440000Y-80540000D02*
X171840000Y-80540000D01*
X159670000Y-85310000D02*
X164440000Y-80540000D01*
X120777600Y-83332400D02*
X118800000Y-85310000D01*
X125210700Y-83332400D02*
X120777600Y-83332400D01*
X125800000Y-83921700D02*
X125210700Y-83332400D01*
X176842800Y-98417200D02*
X175340000Y-99920000D01*
X179817900Y-98417200D02*
X176842800Y-98417200D01*
X179901700Y-98333400D02*
X179817900Y-98417200D01*
X180753400Y-98333400D02*
X179901700Y-98333400D01*
X182340000Y-99920000D02*
X180753400Y-98333400D01*
X170130000Y-114600000D02*
X175390000Y-119860000D01*
X163040000Y-114600000D02*
X170130000Y-114600000D01*
X124194300Y-101575700D02*
X125710000Y-100060000D01*
X120225700Y-101575700D02*
X124194300Y-101575700D01*
X118710000Y-100060000D02*
X120225700Y-101575700D01*
X162700000Y-96160000D02*
X161547300Y-96160000D01*
X143004900Y-96160000D02*
X161547300Y-96160000D01*
X141831600Y-94986700D02*
X143004900Y-96160000D01*
X165240000Y-97312700D02*
X141737100Y-97312700D01*
X165240000Y-96160000D02*
X165240000Y-96859800D01*
X165240000Y-96859800D02*
X165240000Y-97312700D01*
X196785700Y-96859800D02*
X197475500Y-97549600D01*
X165240000Y-96859800D02*
X196785700Y-96859800D01*
X165240000Y-98700000D02*
X164087300Y-98700000D01*
X156244300Y-100185700D02*
X151500000Y-104930000D01*
X162844600Y-100185700D02*
X156244300Y-100185700D01*
X164087300Y-98943000D02*
X162844600Y-100185700D01*
X164087300Y-98700000D02*
X164087300Y-98943000D01*
X171890000Y-119860000D02*
X173392700Y-119860000D01*
X173392700Y-120048000D02*
X173392700Y-119860000D01*
X174707400Y-121362700D02*
X173392700Y-120048000D01*
X187921600Y-121362700D02*
X174707400Y-121362700D01*
X188100700Y-121183600D02*
X187921600Y-121362700D01*
X148571300Y-111568700D02*
X145540000Y-114600000D01*
X173320300Y-111568700D02*
X148571300Y-111568700D01*
X176011900Y-108877100D02*
X173320300Y-111568700D01*
X190344300Y-110328900D02*
X193672000Y-110328900D01*
X188729000Y-108713600D02*
X190344300Y-110328900D01*
X176175400Y-108713600D02*
X188729000Y-108713600D01*
X176011900Y-108877100D02*
X176175400Y-108713600D01*
X154042800Y-116102800D02*
X152540000Y-114600000D01*
X156747400Y-116102800D02*
X154042800Y-116102800D01*
X157845000Y-115005200D02*
X156747400Y-116102800D01*
X157845000Y-114151200D02*
X157845000Y-115005200D01*
X159854700Y-112141500D02*
X157845000Y-114151200D01*
X174588800Y-112141500D02*
X159854700Y-112141500D01*
X177371100Y-109359200D02*
X174588800Y-112141500D01*
X177371100Y-109359200D02*
X188454400Y-109359200D01*
X161427100Y-112712900D02*
X159540000Y-114600000D01*
X175982900Y-112712900D02*
X161427100Y-112712900D01*
X178428900Y-110266900D02*
X175982900Y-112712900D01*
X138540000Y-114600000D02*
X140042700Y-114600000D01*
X172412200Y-111115900D02*
X175916700Y-107611400D01*
X143339000Y-111115900D02*
X172412200Y-111115900D01*
X140042700Y-114412200D02*
X143339000Y-111115900D01*
X140042700Y-114600000D02*
X140042700Y-114412200D01*
X190413200Y-109560300D02*
X191348300Y-109560300D01*
X188464300Y-107611400D02*
X190413200Y-109560300D01*
X175916700Y-107611400D02*
X188464300Y-107611400D01*
X179949800Y-93920900D02*
X180668300Y-94639400D01*
X172017000Y-93920900D02*
X179949800Y-93920900D01*
X154342500Y-93920900D02*
X153509800Y-93088200D01*
X172017000Y-93920900D02*
X154342500Y-93920900D01*
X140227900Y-93088200D02*
X153509800Y-93088200D01*
X128469000Y-104847100D02*
X140227900Y-93088200D01*
X122208700Y-104847100D02*
X128469000Y-104847100D01*
X112415800Y-114640000D02*
X122208700Y-104847100D01*
X111710000Y-114640000D02*
X112415800Y-114640000D01*
X139746700Y-98451600D02*
X154254800Y-98451600D01*
X126335800Y-111862500D02*
X139746700Y-98451600D01*
X121487500Y-111862500D02*
X126335800Y-111862500D01*
X118710000Y-114640000D02*
X121487500Y-111862500D01*
X155473400Y-107980800D02*
X162011400Y-101442800D01*
X132369200Y-107980800D02*
X155473400Y-107980800D01*
X125710000Y-114640000D02*
X132369200Y-107980800D01*
X175314800Y-97771400D02*
X177626700Y-97771400D01*
X173429900Y-99656300D02*
X175314800Y-97771400D01*
X173429900Y-101189800D02*
X173429900Y-99656300D01*
X173176900Y-101442800D02*
X173429900Y-101189800D01*
X162011400Y-101442800D02*
X173176900Y-101442800D01*
X104710000Y-114640000D02*
X106212700Y-114640000D01*
X183986500Y-94632700D02*
X182542900Y-94632700D01*
X185525600Y-93093600D02*
X183986500Y-94632700D01*
X181875900Y-94632700D02*
X182542900Y-94632700D01*
X179878700Y-92635500D02*
X181875900Y-94632700D01*
X155490900Y-92635500D02*
X179878700Y-92635500D01*
X155297900Y-92442500D02*
X155490900Y-92635500D01*
X140233400Y-92442500D02*
X155297900Y-92442500D01*
X128281500Y-104394400D02*
X140233400Y-92442500D01*
X122015000Y-104394400D02*
X128281500Y-104394400D01*
X117166500Y-109242900D02*
X122015000Y-104394400D01*
X111469700Y-109242900D02*
X117166500Y-109242900D01*
X106212700Y-114499900D02*
X111469700Y-109242900D01*
X106212700Y-114640000D02*
X106212700Y-114499900D01*
X184312500Y-101447500D02*
X185840000Y-99920000D01*
X181687500Y-101447500D02*
X184312500Y-101447500D01*
X180342800Y-100102800D02*
X181687500Y-101447500D01*
X180342800Y-98985100D02*
X180342800Y-100102800D01*
X192761300Y-91899800D02*
X181507000Y-91899800D01*
X198178600Y-97317100D02*
X192761300Y-91899800D01*
X198178600Y-100206600D02*
X198178600Y-97317100D01*
X196951000Y-101434200D02*
X198178600Y-100206600D01*
X194354200Y-101434200D02*
X196951000Y-101434200D01*
X192840000Y-99920000D02*
X194354200Y-101434200D01*
X171840000Y-99920000D02*
X170337300Y-99920000D01*
X167949300Y-97532000D02*
X166392800Y-97532000D01*
X170337300Y-99920000D02*
X167949300Y-97532000D01*
X127620200Y-100348800D02*
X127620200Y-98582100D01*
X125940500Y-102028500D02*
X127620200Y-100348800D01*
X116098000Y-102028500D02*
X125940500Y-102028500D01*
X115324500Y-102802000D02*
X116098000Y-102028500D01*
X110952000Y-102802000D02*
X115324500Y-102802000D01*
X108210000Y-100060000D02*
X110952000Y-102802000D01*
X123030100Y-95747600D02*
X123994400Y-94783300D01*
X117585700Y-95747600D02*
X123030100Y-95747600D01*
X115210000Y-98123300D02*
X117585700Y-95747600D01*
X115210000Y-100060000D02*
X115210000Y-98123300D01*
X119990400Y-97840400D02*
X122210000Y-100060000D01*
X116673100Y-97840400D02*
X119990400Y-97840400D01*
X116553900Y-97721200D02*
X116673100Y-97840400D01*
X115143300Y-94828600D02*
X111818200Y-91503500D01*
X121820600Y-94828600D02*
X115143300Y-94828600D01*
X129210000Y-99046800D02*
X129210000Y-100060000D01*
X124266000Y-94102800D02*
X129210000Y-99046800D01*
X122546400Y-94102800D02*
X124266000Y-94102800D01*
X121820600Y-94828600D02*
X122546400Y-94102800D01*
X122536700Y-87305700D02*
X122395200Y-87164200D01*
X175574300Y-87305700D02*
X122536700Y-87305700D01*
X182340000Y-80540000D02*
X175574300Y-87305700D01*
X181919900Y-87960100D02*
X122829900Y-87960100D01*
X189340000Y-80540000D02*
X181919900Y-87960100D01*
X188265700Y-88614300D02*
X196340000Y-80540000D01*
X127114300Y-88614300D02*
X188265700Y-88614300D01*
X140590500Y-93750600D02*
X146597300Y-93750600D01*
X125556200Y-108784900D02*
X140590500Y-93750600D01*
X123994200Y-108784900D02*
X125556200Y-108784900D01*
X106212800Y-105143100D02*
X106119900Y-105236000D01*
X106212800Y-94764000D02*
X106212800Y-105143100D01*
X113954000Y-87022800D02*
X106212800Y-94764000D01*
X119212500Y-87022800D02*
X113954000Y-87022800D01*
X120550000Y-85685300D02*
X119212500Y-87022800D01*
X120550000Y-84901500D02*
X120550000Y-85685300D01*
X121666400Y-83785100D02*
X120550000Y-84901500D01*
X122964000Y-83785100D02*
X121666400Y-83785100D01*
X124050000Y-84871100D02*
X122964000Y-83785100D01*
X124050000Y-85732400D02*
X124050000Y-84871100D01*
X125130400Y-86812800D02*
X124050000Y-85732400D01*
X161667200Y-86812800D02*
X125130400Y-86812800D01*
X163170000Y-85310000D02*
X161667200Y-86812800D01*
X113786800Y-83796800D02*
X115300000Y-85310000D01*
X103414700Y-83796800D02*
X113786800Y-83796800D01*
X103207200Y-84004300D02*
X103414700Y-83796800D01*
X103207200Y-103800600D02*
X103207200Y-84004300D01*
X108106300Y-108699700D02*
X103207200Y-103800600D01*
X115594900Y-104483600D02*
X116252400Y-103826100D01*
X114692700Y-104483600D02*
X115594900Y-104483600D01*
X110476600Y-108699700D02*
X114692700Y-104483600D01*
X108106300Y-108699700D02*
X110476600Y-108699700D01*
X109370700Y-103804700D02*
X109370700Y-107679100D01*
X120134500Y-87475500D02*
X122300000Y-85310000D01*
X114212400Y-87475500D02*
X120134500Y-87475500D01*
X106696100Y-94991800D02*
X114212400Y-87475500D01*
X106696100Y-101130100D02*
X106696100Y-94991800D01*
X109370700Y-103804700D02*
X106696100Y-101130100D01*
X116039000Y-102727700D02*
X120596100Y-102727700D01*
X114962000Y-103804700D02*
X116039000Y-102727700D01*
X109370700Y-103804700D02*
X114962000Y-103804700D01*
X116113200Y-108195700D02*
X112035200Y-108195700D01*
X121603100Y-102705800D02*
X116113200Y-108195700D01*
X123655000Y-102705800D02*
X121603100Y-102705800D01*
X169426300Y-94412800D02*
X169920000Y-94906500D01*
X142635000Y-94412800D02*
X169426300Y-94412800D01*
X142538500Y-94316300D02*
X142635000Y-94412800D01*
X141576700Y-94316300D02*
X142538500Y-94316300D01*
X126623900Y-109269100D02*
X141576700Y-94316300D01*
X124423100Y-109269100D02*
X126623900Y-109269100D01*
X124261700Y-109430500D02*
X124423100Y-109269100D01*
X123726800Y-109430500D02*
X124261700Y-109430500D01*
X121233100Y-106936700D02*
X123726800Y-109430500D01*
X119412500Y-108757300D02*
X121233100Y-106936700D01*
X119235900Y-108757300D02*
X119412500Y-108757300D01*
X118912300Y-109080900D02*
X119235900Y-108757300D01*
X121233100Y-106936700D02*
X122404900Y-105764900D01*
X125921700Y-93737400D02*
X124898300Y-92714000D01*
X131196300Y-93737400D02*
X125921700Y-93737400D01*
X131196300Y-100839500D02*
X131196300Y-93737400D01*
X128094100Y-103941700D02*
X131196300Y-100839500D01*
X121532400Y-103941700D02*
X128094100Y-103941700D01*
X117797100Y-107677000D02*
X121532400Y-103941700D01*
X175056800Y-91854400D02*
X175135700Y-91933300D01*
X146660600Y-91854400D02*
X175056800Y-91854400D01*
X133079300Y-91854400D02*
X146660600Y-91854400D01*
X131196300Y-93737400D02*
X133079300Y-91854400D01*
X146660600Y-91854400D02*
X146660600Y-91730000D01*
X190763400Y-108286000D02*
X190051900Y-108286000D01*
X198643600Y-100405800D02*
X190763400Y-108286000D01*
X198643600Y-80716700D02*
X198643600Y-100405800D01*
X196799600Y-78872700D02*
X198643600Y-80716700D01*
X156210000Y-78872700D02*
X196799600Y-78872700D01*
X156210000Y-77300000D02*
X156210000Y-78872700D01*
X153670000Y-77300000D02*
X153670000Y-78872700D01*
X151647600Y-80895100D02*
X131302200Y-80895100D01*
X153670000Y-78872700D02*
X151647600Y-80895100D01*
X178933000Y-90631700D02*
X131163900Y-90631700D01*
X179032300Y-90731000D02*
X178933000Y-90631700D01*
X129572300Y-101823300D02*
X128659500Y-101823300D01*
X130743600Y-100652000D02*
X129572300Y-101823300D01*
X130743600Y-99381500D02*
X130743600Y-100652000D01*
X124721700Y-93359600D02*
X130743600Y-99381500D01*
X124630900Y-93359600D02*
X124721700Y-93359600D01*
X122066000Y-90794700D02*
X124630900Y-93359600D01*
X122066000Y-90584900D02*
X122066000Y-90794700D01*
X194339400Y-95844400D02*
X194903200Y-95280600D01*
X167385800Y-95844400D02*
X194339400Y-95844400D01*
X166531700Y-94990300D02*
X167385800Y-95844400D01*
X159305500Y-94990300D02*
X166531700Y-94990300D01*
X159180700Y-95115100D02*
X159305500Y-94990300D01*
X143674200Y-91281800D02*
X123542800Y-91281800D01*
X143871600Y-91084400D02*
X143674200Y-91281800D01*
X175761000Y-91084400D02*
X143871600Y-91084400D01*
X176073100Y-91396500D02*
X175761000Y-91084400D01*
X179899600Y-91396500D02*
X176073100Y-91396500D01*
X181101100Y-92598000D02*
X179899600Y-91396500D01*
X184956300Y-92598000D02*
X181101100Y-92598000D01*
X185140400Y-92413900D02*
X184956300Y-92598000D01*
X190981700Y-92413900D02*
X185140400Y-92413900D01*
X193766600Y-95198800D02*
X190981700Y-92413900D01*
D19*
G36*
X199670000Y-128400000D02*
X101090000Y-128400000D01*
X101090000Y-84004300D01*
X102422200Y-84004300D01*
X102422200Y-103800600D01*
X102481955Y-104101007D01*
X102652121Y-104355679D01*
X107128285Y-108831843D01*
X107128231Y-108893363D01*
X107276793Y-109252912D01*
X107551641Y-109528240D01*
X107910930Y-109677430D01*
X108299963Y-109677769D01*
X108659512Y-109529207D01*
X108704097Y-109484700D01*
X110117742Y-109484700D01*
X106467978Y-113134464D01*
X106374090Y-112988559D01*
X106161890Y-112843569D01*
X105910000Y-112792560D01*
X103510000Y-112792560D01*
X103274683Y-112836838D01*
X103058559Y-112975910D01*
X102913569Y-113188110D01*
X102862560Y-113440000D01*
X102862560Y-115840000D01*
X102906838Y-116075317D01*
X103045910Y-116291441D01*
X103258110Y-116436431D01*
X103510000Y-116487440D01*
X105910000Y-116487440D01*
X106145317Y-116443162D01*
X106361441Y-116304090D01*
X106506431Y-116091890D01*
X106557440Y-115840000D01*
X106557440Y-115445712D01*
X106653455Y-115678086D01*
X107169199Y-116194730D01*
X107843395Y-116474681D01*
X108573403Y-116475318D01*
X109248086Y-116196545D01*
X109764730Y-115680801D01*
X109960135Y-115210215D01*
X110153455Y-115678086D01*
X110669199Y-116194730D01*
X111343395Y-116474681D01*
X112073403Y-116475318D01*
X112748086Y-116196545D01*
X113264730Y-115680801D01*
X113460135Y-115210215D01*
X113653455Y-115678086D01*
X114169199Y-116194730D01*
X114843395Y-116474681D01*
X115573403Y-116475318D01*
X116248086Y-116196545D01*
X116764730Y-115680801D01*
X116960135Y-115210215D01*
X117153455Y-115678086D01*
X117669199Y-116194730D01*
X118343395Y-116474681D01*
X119073403Y-116475318D01*
X119748086Y-116196545D01*
X120264730Y-115680801D01*
X120460135Y-115210215D01*
X120653455Y-115678086D01*
X121169199Y-116194730D01*
X121843395Y-116474681D01*
X122573403Y-116475318D01*
X123248086Y-116196545D01*
X123764730Y-115680801D01*
X123960135Y-115210215D01*
X124153455Y-115678086D01*
X124669199Y-116194730D01*
X125343395Y-116474681D01*
X126073403Y-116475318D01*
X126748086Y-116196545D01*
X127264730Y-115680801D01*
X127460135Y-115210215D01*
X127653455Y-115678086D01*
X128169199Y-116194730D01*
X128843395Y-116474681D01*
X129573403Y-116475318D01*
X129829389Y-116369547D01*
X132224921Y-118765079D01*
X132479594Y-118935245D01*
X132780000Y-118995000D01*
X137645000Y-118995000D01*
X137645000Y-123891325D01*
X137442172Y-124026851D01*
X137160000Y-124449150D01*
X136877828Y-124026851D01*
X136424609Y-123724019D01*
X135890000Y-123617679D01*
X135355391Y-123724019D01*
X134902172Y-124026851D01*
X134620000Y-124449150D01*
X134337828Y-124026851D01*
X133884609Y-123724019D01*
X133350000Y-123617679D01*
X132815391Y-123724019D01*
X132362172Y-124026851D01*
X132059340Y-124480070D01*
X131953000Y-125014679D01*
X131953000Y-126105321D01*
X132059340Y-126639930D01*
X132362172Y-127093149D01*
X132815391Y-127395981D01*
X133350000Y-127502321D01*
X133884609Y-127395981D01*
X134337828Y-127093149D01*
X134620000Y-126670850D01*
X134902172Y-127093149D01*
X135355391Y-127395981D01*
X135890000Y-127502321D01*
X136424609Y-127395981D01*
X136877828Y-127093149D01*
X137160000Y-126670850D01*
X137442172Y-127093149D01*
X137895391Y-127395981D01*
X138430000Y-127502321D01*
X138964609Y-127395981D01*
X139417828Y-127093149D01*
X139709330Y-126656887D01*
X139727941Y-126719941D01*
X140071974Y-127145630D01*
X140552723Y-127407260D01*
X140626930Y-127422220D01*
X140843000Y-127299720D01*
X140843000Y-125687000D01*
X141097000Y-125687000D01*
X141097000Y-127299720D01*
X141313070Y-127422220D01*
X141387277Y-127407260D01*
X141868026Y-127145630D01*
X142212059Y-126719941D01*
X142240000Y-126625277D01*
X142267941Y-126719941D01*
X142611974Y-127145630D01*
X143092723Y-127407260D01*
X143166930Y-127422220D01*
X143383000Y-127299720D01*
X143383000Y-125687000D01*
X141097000Y-125687000D01*
X140843000Y-125687000D01*
X140823000Y-125687000D01*
X140823000Y-125433000D01*
X140843000Y-125433000D01*
X140843000Y-123820280D01*
X141097000Y-123820280D01*
X141097000Y-125433000D01*
X143383000Y-125433000D01*
X143383000Y-123820280D01*
X143637000Y-123820280D01*
X143637000Y-125433000D01*
X143657000Y-125433000D01*
X143657000Y-125687000D01*
X143637000Y-125687000D01*
X143637000Y-127299720D01*
X143853070Y-127422220D01*
X143927277Y-127407260D01*
X144408026Y-127145630D01*
X144752059Y-126719941D01*
X144770670Y-126656887D01*
X145062172Y-127093149D01*
X145515391Y-127395981D01*
X146050000Y-127502321D01*
X146584609Y-127395981D01*
X147037828Y-127093149D01*
X147340660Y-126639930D01*
X147447000Y-126105321D01*
X147447000Y-125014679D01*
X149733000Y-125014679D01*
X149733000Y-126105321D01*
X149839340Y-126639930D01*
X150142172Y-127093149D01*
X150595391Y-127395981D01*
X151130000Y-127502321D01*
X151664609Y-127395981D01*
X152117828Y-127093149D01*
X152400000Y-126670850D01*
X152682172Y-127093149D01*
X153135391Y-127395981D01*
X153670000Y-127502321D01*
X154204609Y-127395981D01*
X154657828Y-127093149D01*
X154940000Y-126670850D01*
X155222172Y-127093149D01*
X155675391Y-127395981D01*
X156210000Y-127502321D01*
X156744609Y-127395981D01*
X157197828Y-127093149D01*
X157480000Y-126670850D01*
X157762172Y-127093149D01*
X158215391Y-127395981D01*
X158750000Y-127502321D01*
X159284609Y-127395981D01*
X159737828Y-127093149D01*
X160020000Y-126670850D01*
X160302172Y-127093149D01*
X160755391Y-127395981D01*
X161290000Y-127502321D01*
X161824609Y-127395981D01*
X162277828Y-127093149D01*
X162560000Y-126670850D01*
X162842172Y-127093149D01*
X163295391Y-127395981D01*
X163830000Y-127502321D01*
X164364609Y-127395981D01*
X164817828Y-127093149D01*
X165120660Y-126639930D01*
X165227000Y-126105321D01*
X165227000Y-125014679D01*
X165120660Y-124480070D01*
X164817828Y-124026851D01*
X164364609Y-123724019D01*
X163830000Y-123617679D01*
X163295391Y-123724019D01*
X162842172Y-124026851D01*
X162560000Y-124449150D01*
X162277828Y-124026851D01*
X161824609Y-123724019D01*
X161290000Y-123617679D01*
X160755391Y-123724019D01*
X160302172Y-124026851D01*
X160020000Y-124449150D01*
X159737828Y-124026851D01*
X159284609Y-123724019D01*
X158750000Y-123617679D01*
X158215391Y-123724019D01*
X157762172Y-124026851D01*
X157480000Y-124449150D01*
X157197828Y-124026851D01*
X156744609Y-123724019D01*
X156210000Y-123617679D01*
X155675391Y-123724019D01*
X155222172Y-124026851D01*
X154940000Y-124449150D01*
X154657828Y-124026851D01*
X154204609Y-123724019D01*
X153670000Y-123617679D01*
X153135391Y-123724019D01*
X152682172Y-124026851D01*
X152400000Y-124449150D01*
X152117828Y-124026851D01*
X151664609Y-123724019D01*
X151130000Y-123617679D01*
X150595391Y-123724019D01*
X150142172Y-124026851D01*
X149839340Y-124480070D01*
X149733000Y-125014679D01*
X147447000Y-125014679D01*
X147340660Y-124480070D01*
X147037828Y-124026851D01*
X146584609Y-123724019D01*
X146050000Y-123617679D01*
X145515391Y-123724019D01*
X145062172Y-124026851D01*
X144770670Y-124463113D01*
X144752059Y-124400059D01*
X144408026Y-123974370D01*
X143927277Y-123712740D01*
X143853070Y-123697780D01*
X143637000Y-123820280D01*
X143383000Y-123820280D01*
X143166930Y-123697780D01*
X143092723Y-123712740D01*
X142611974Y-123974370D01*
X142267941Y-124400059D01*
X142240000Y-124494723D01*
X142212059Y-124400059D01*
X141868026Y-123974370D01*
X141387277Y-123712740D01*
X141313070Y-123697780D01*
X141097000Y-123820280D01*
X140843000Y-123820280D01*
X140626930Y-123697780D01*
X140552723Y-123712740D01*
X140071974Y-123974370D01*
X139727941Y-124400059D01*
X139709330Y-124463113D01*
X139417828Y-124026851D01*
X139215000Y-123891325D01*
X139215000Y-118535158D01*
X141420492Y-116329666D01*
X141673395Y-116434681D01*
X142403403Y-116435318D01*
X143078086Y-116156545D01*
X143594730Y-115640801D01*
X143790135Y-115170215D01*
X143983455Y-115638086D01*
X144499199Y-116154730D01*
X145173395Y-116434681D01*
X145903403Y-116435318D01*
X146578086Y-116156545D01*
X147094730Y-115640801D01*
X147290135Y-115170215D01*
X147483455Y-115638086D01*
X147999199Y-116154730D01*
X148673395Y-116434681D01*
X149403403Y-116435318D01*
X150078086Y-116156545D01*
X150594730Y-115640801D01*
X150790135Y-115170215D01*
X150983455Y-115638086D01*
X151499199Y-116154730D01*
X152173395Y-116434681D01*
X152903403Y-116435318D01*
X153159389Y-116329547D01*
X153487721Y-116657879D01*
X153742393Y-116828045D01*
X154042800Y-116887800D01*
X156747400Y-116887800D01*
X157047807Y-116828045D01*
X157302479Y-116657879D01*
X158152716Y-115807642D01*
X158499199Y-116154730D01*
X159173395Y-116434681D01*
X159903403Y-116435318D01*
X160578086Y-116156545D01*
X161094730Y-115640801D01*
X161290135Y-115170215D01*
X161483455Y-115638086D01*
X161999199Y-116154730D01*
X162673395Y-116434681D01*
X163403403Y-116435318D01*
X164078086Y-116156545D01*
X164594730Y-115640801D01*
X164700948Y-115385000D01*
X169804842Y-115385000D01*
X172432402Y-118012560D01*
X170690000Y-118012560D01*
X170454683Y-118056838D01*
X170238559Y-118195910D01*
X170093569Y-118408110D01*
X170042560Y-118660000D01*
X170042560Y-121060000D01*
X170086838Y-121295317D01*
X170225910Y-121511441D01*
X170438110Y-121656431D01*
X170690000Y-121707440D01*
X173090000Y-121707440D01*
X173325317Y-121663162D01*
X173541441Y-121524090D01*
X173629603Y-121395061D01*
X174152321Y-121917779D01*
X174406994Y-122087945D01*
X174707400Y-122147701D01*
X174707405Y-122147700D01*
X187872505Y-122147700D01*
X187905330Y-122161330D01*
X188294363Y-122161669D01*
X188653912Y-122013107D01*
X188929240Y-121738259D01*
X188958521Y-121667743D01*
X189023395Y-121694681D01*
X189753403Y-121695318D01*
X190428086Y-121416545D01*
X190944730Y-120900801D01*
X191140135Y-120430215D01*
X191333455Y-120898086D01*
X191849199Y-121414730D01*
X192523395Y-121694681D01*
X193253403Y-121695318D01*
X193928086Y-121416545D01*
X194444730Y-120900801D01*
X194640135Y-120430215D01*
X194833455Y-120898086D01*
X195349199Y-121414730D01*
X196023395Y-121694681D01*
X196753403Y-121695318D01*
X197428086Y-121416545D01*
X197944730Y-120900801D01*
X198224681Y-120226605D01*
X198225318Y-119496597D01*
X197946545Y-118821914D01*
X197430801Y-118305270D01*
X196756605Y-118025319D01*
X196026597Y-118024682D01*
X195770611Y-118130453D01*
X195442279Y-117802121D01*
X195187607Y-117631955D01*
X194887200Y-117572200D01*
X190892800Y-117572200D01*
X190592393Y-117631955D01*
X190337721Y-117802121D01*
X190009508Y-118130334D01*
X189756605Y-118025319D01*
X189026597Y-118024682D01*
X188770611Y-118130453D01*
X188442279Y-117802121D01*
X188187607Y-117631955D01*
X187887200Y-117572200D01*
X183892800Y-117572200D01*
X183592393Y-117631955D01*
X183337721Y-117802121D01*
X183009508Y-118130334D01*
X182756605Y-118025319D01*
X182026597Y-118024682D01*
X181770611Y-118130453D01*
X181442279Y-117802121D01*
X181187607Y-117631955D01*
X180887200Y-117572200D01*
X176892800Y-117572200D01*
X176592393Y-117631955D01*
X176337721Y-117802121D01*
X176009508Y-118130334D01*
X175756605Y-118025319D01*
X175026597Y-118024682D01*
X174770611Y-118130453D01*
X170685079Y-114044921D01*
X170430407Y-113874755D01*
X170130000Y-113815000D01*
X164701118Y-113815000D01*
X164596545Y-113561914D01*
X164532643Y-113497900D01*
X175982900Y-113497900D01*
X176283307Y-113438145D01*
X176537979Y-113267979D01*
X178561043Y-111244915D01*
X178622563Y-111244969D01*
X178982112Y-111096407D01*
X179257440Y-110821559D01*
X179406630Y-110462270D01*
X179406907Y-110144200D01*
X187856277Y-110144200D01*
X187899741Y-110187740D01*
X188259030Y-110336930D01*
X188648063Y-110337269D01*
X189007612Y-110188707D01*
X189050818Y-110145576D01*
X189789221Y-110883979D01*
X190043893Y-111054145D01*
X190344300Y-111113900D01*
X193073877Y-111113900D01*
X193117341Y-111157440D01*
X193476630Y-111306630D01*
X193865663Y-111306969D01*
X194225212Y-111158407D01*
X194500540Y-110883559D01*
X194649730Y-110524270D01*
X194650069Y-110135237D01*
X194501507Y-109775688D01*
X194226659Y-109500360D01*
X193867370Y-109351170D01*
X193478337Y-109350831D01*
X193118788Y-109499393D01*
X193074203Y-109543900D01*
X192326215Y-109543900D01*
X192326369Y-109366637D01*
X192177807Y-109007088D01*
X191902959Y-108731760D01*
X191567212Y-108592346D01*
X199198679Y-100960879D01*
X199368845Y-100706206D01*
X199428600Y-100405800D01*
X199428600Y-80716700D01*
X199368845Y-80416294D01*
X199198679Y-80161621D01*
X197354679Y-78317621D01*
X197100007Y-78147455D01*
X196799600Y-78087700D01*
X165178788Y-78087700D01*
X165227000Y-77845321D01*
X165227000Y-76754679D01*
X165120660Y-76220070D01*
X164817828Y-75766851D01*
X164364609Y-75464019D01*
X163830000Y-75357679D01*
X163295391Y-75464019D01*
X162842172Y-75766851D01*
X162560000Y-76189150D01*
X162277828Y-75766851D01*
X161824609Y-75464019D01*
X161290000Y-75357679D01*
X160755391Y-75464019D01*
X160302172Y-75766851D01*
X160020000Y-76189150D01*
X159737828Y-75766851D01*
X159284609Y-75464019D01*
X158750000Y-75357679D01*
X158215391Y-75464019D01*
X157762172Y-75766851D01*
X157480000Y-76189150D01*
X157197828Y-75766851D01*
X156744609Y-75464019D01*
X156210000Y-75357679D01*
X155675391Y-75464019D01*
X155282679Y-75726421D01*
X154728479Y-75172221D01*
X154473807Y-75002055D01*
X154173400Y-74942300D01*
X146050000Y-74942300D01*
X145749594Y-75002055D01*
X145494921Y-75172221D01*
X145324755Y-75426894D01*
X145287017Y-75616614D01*
X145062172Y-75766851D01*
X144759340Y-76220070D01*
X144653000Y-76754679D01*
X144653000Y-77845321D01*
X144759340Y-78379930D01*
X145062172Y-78833149D01*
X145515391Y-79135981D01*
X146050000Y-79242321D01*
X146584609Y-79135981D01*
X147037828Y-78833149D01*
X147320000Y-78410850D01*
X147602172Y-78833149D01*
X148055391Y-79135981D01*
X148590000Y-79242321D01*
X149124609Y-79135981D01*
X149577828Y-78833149D01*
X149860000Y-78410850D01*
X150142172Y-78833149D01*
X150595391Y-79135981D01*
X151130000Y-79242321D01*
X151664609Y-79135981D01*
X152117828Y-78833149D01*
X152400000Y-78410850D01*
X152649016Y-78783527D01*
X151322442Y-80110100D01*
X131900323Y-80110100D01*
X131856859Y-80066560D01*
X131497570Y-79917370D01*
X131108537Y-79917031D01*
X130748988Y-80065593D01*
X130473660Y-80340441D01*
X130324470Y-80699730D01*
X130324131Y-81088763D01*
X130472693Y-81448312D01*
X130747541Y-81723640D01*
X131106830Y-81872830D01*
X131495863Y-81873169D01*
X131855412Y-81724607D01*
X131899997Y-81680100D01*
X151647600Y-81680100D01*
X151948007Y-81620345D01*
X152202679Y-81450179D01*
X153987200Y-79665657D01*
X153987200Y-80505542D01*
X152291057Y-82201685D01*
X152229537Y-82201631D01*
X151869988Y-82350193D01*
X151594660Y-82625041D01*
X151445470Y-82984330D01*
X151445389Y-83077535D01*
X151167200Y-83022200D01*
X147172800Y-83022200D01*
X146872393Y-83081955D01*
X146617721Y-83252121D01*
X146289508Y-83580334D01*
X146036605Y-83475319D01*
X145306597Y-83474682D01*
X145050611Y-83580453D01*
X144720079Y-83249921D01*
X144465407Y-83079755D01*
X144165000Y-83020000D01*
X141489900Y-83020000D01*
X141189493Y-83079755D01*
X140934821Y-83249921D01*
X140409301Y-83775441D01*
X140334090Y-83658559D01*
X140121890Y-83513569D01*
X139870000Y-83462560D01*
X137470000Y-83462560D01*
X137234683Y-83506838D01*
X137018559Y-83645910D01*
X136873569Y-83858110D01*
X136865486Y-83898028D01*
X136219679Y-83252221D01*
X135965007Y-83082055D01*
X135664600Y-83022300D01*
X126010758Y-83022300D01*
X125765779Y-82777321D01*
X125511107Y-82607155D01*
X125210700Y-82547400D01*
X120777600Y-82547400D01*
X120477194Y-82607155D01*
X120222521Y-82777321D01*
X119419508Y-83580334D01*
X119166605Y-83475319D01*
X118436597Y-83474682D01*
X117761914Y-83753455D01*
X117245270Y-84269199D01*
X117049865Y-84739785D01*
X116856545Y-84271914D01*
X116340801Y-83755270D01*
X115666605Y-83475319D01*
X114936597Y-83474682D01*
X114680611Y-83580453D01*
X114341879Y-83241721D01*
X114087207Y-83071555D01*
X113786800Y-83011800D01*
X103414700Y-83011800D01*
X103114293Y-83071555D01*
X102859621Y-83241721D01*
X102652121Y-83449221D01*
X102481955Y-83703893D01*
X102461406Y-83807200D01*
X102422200Y-84004300D01*
X101090000Y-84004300D01*
X101090000Y-76754679D01*
X122809000Y-76754679D01*
X122809000Y-77845321D01*
X122915340Y-78379930D01*
X123218172Y-78833149D01*
X123671391Y-79135981D01*
X124206000Y-79242321D01*
X124740609Y-79135981D01*
X125193828Y-78833149D01*
X125485330Y-78396887D01*
X125503941Y-78459941D01*
X125847974Y-78885630D01*
X126328723Y-79147260D01*
X126402930Y-79162220D01*
X126619000Y-79039720D01*
X126619000Y-77427000D01*
X126599000Y-77427000D01*
X126599000Y-77173000D01*
X126619000Y-77173000D01*
X126619000Y-75560280D01*
X126873000Y-75560280D01*
X126873000Y-77173000D01*
X126893000Y-77173000D01*
X126893000Y-77427000D01*
X126873000Y-77427000D01*
X126873000Y-79039720D01*
X127089070Y-79162220D01*
X127163277Y-79147260D01*
X127644026Y-78885630D01*
X127988059Y-78459941D01*
X128006670Y-78396887D01*
X128298172Y-78833149D01*
X128751391Y-79135981D01*
X129286000Y-79242321D01*
X129820609Y-79135981D01*
X130273828Y-78833149D01*
X130556000Y-78410850D01*
X130838172Y-78833149D01*
X131291391Y-79135981D01*
X131826000Y-79242321D01*
X132360609Y-79135981D01*
X132813828Y-78833149D01*
X133096000Y-78410850D01*
X133378172Y-78833149D01*
X133831391Y-79135981D01*
X134366000Y-79242321D01*
X134900609Y-79135981D01*
X135353828Y-78833149D01*
X135636000Y-78410850D01*
X135918172Y-78833149D01*
X136371391Y-79135981D01*
X136906000Y-79242321D01*
X137440609Y-79135981D01*
X137893828Y-78833149D01*
X138176000Y-78410850D01*
X138458172Y-78833149D01*
X138911391Y-79135981D01*
X139446000Y-79242321D01*
X139980609Y-79135981D01*
X140433828Y-78833149D01*
X140716000Y-78410850D01*
X140998172Y-78833149D01*
X141451391Y-79135981D01*
X141986000Y-79242321D01*
X142520609Y-79135981D01*
X142973828Y-78833149D01*
X143276660Y-78379930D01*
X143383000Y-77845321D01*
X143383000Y-76754679D01*
X143276660Y-76220070D01*
X142973828Y-75766851D01*
X142520609Y-75464019D01*
X141986000Y-75357679D01*
X141451391Y-75464019D01*
X140998172Y-75766851D01*
X140716000Y-76189150D01*
X140433828Y-75766851D01*
X139980609Y-75464019D01*
X139446000Y-75357679D01*
X138911391Y-75464019D01*
X138458172Y-75766851D01*
X138176000Y-76189150D01*
X137893828Y-75766851D01*
X137440609Y-75464019D01*
X136906000Y-75357679D01*
X136371391Y-75464019D01*
X135918172Y-75766851D01*
X135636000Y-76189150D01*
X135353828Y-75766851D01*
X134900609Y-75464019D01*
X134366000Y-75357679D01*
X133831391Y-75464019D01*
X133378172Y-75766851D01*
X133096000Y-76189150D01*
X132813828Y-75766851D01*
X132360609Y-75464019D01*
X131826000Y-75357679D01*
X131291391Y-75464019D01*
X130838172Y-75766851D01*
X130556000Y-76189150D01*
X130273828Y-75766851D01*
X129820609Y-75464019D01*
X129286000Y-75357679D01*
X128751391Y-75464019D01*
X128298172Y-75766851D01*
X128006670Y-76203113D01*
X127988059Y-76140059D01*
X127644026Y-75714370D01*
X127163277Y-75452740D01*
X127089070Y-75437780D01*
X126873000Y-75560280D01*
X126619000Y-75560280D01*
X126402930Y-75437780D01*
X126328723Y-75452740D01*
X125847974Y-75714370D01*
X125503941Y-76140059D01*
X125485330Y-76203113D01*
X125193828Y-75766851D01*
X124740609Y-75464019D01*
X124206000Y-75357679D01*
X123671391Y-75464019D01*
X123218172Y-75766851D01*
X122915340Y-76220070D01*
X122809000Y-76754679D01*
X101090000Y-76754679D01*
X101090000Y-74820000D01*
X199670000Y-74820000D01*
X199670000Y-128400000D01*
X199670000Y-128400000D01*
G37*
X199670000Y-128400000D02*
X101090000Y-128400000D01*
X101090000Y-84004300D01*
X102422200Y-84004300D01*
X102422200Y-103800600D01*
X102481955Y-104101007D01*
X102652121Y-104355679D01*
X107128285Y-108831843D01*
X107128231Y-108893363D01*
X107276793Y-109252912D01*
X107551641Y-109528240D01*
X107910930Y-109677430D01*
X108299963Y-109677769D01*
X108659512Y-109529207D01*
X108704097Y-109484700D01*
X110117742Y-109484700D01*
X106467978Y-113134464D01*
X106374090Y-112988559D01*
X106161890Y-112843569D01*
X105910000Y-112792560D01*
X103510000Y-112792560D01*
X103274683Y-112836838D01*
X103058559Y-112975910D01*
X102913569Y-113188110D01*
X102862560Y-113440000D01*
X102862560Y-115840000D01*
X102906838Y-116075317D01*
X103045910Y-116291441D01*
X103258110Y-116436431D01*
X103510000Y-116487440D01*
X105910000Y-116487440D01*
X106145317Y-116443162D01*
X106361441Y-116304090D01*
X106506431Y-116091890D01*
X106557440Y-115840000D01*
X106557440Y-115445712D01*
X106653455Y-115678086D01*
X107169199Y-116194730D01*
X107843395Y-116474681D01*
X108573403Y-116475318D01*
X109248086Y-116196545D01*
X109764730Y-115680801D01*
X109960135Y-115210215D01*
X110153455Y-115678086D01*
X110669199Y-116194730D01*
X111343395Y-116474681D01*
X112073403Y-116475318D01*
X112748086Y-116196545D01*
X113264730Y-115680801D01*
X113460135Y-115210215D01*
X113653455Y-115678086D01*
X114169199Y-116194730D01*
X114843395Y-116474681D01*
X115573403Y-116475318D01*
X116248086Y-116196545D01*
X116764730Y-115680801D01*
X116960135Y-115210215D01*
X117153455Y-115678086D01*
X117669199Y-116194730D01*
X118343395Y-116474681D01*
X119073403Y-116475318D01*
X119748086Y-116196545D01*
X120264730Y-115680801D01*
X120460135Y-115210215D01*
X120653455Y-115678086D01*
X121169199Y-116194730D01*
X121843395Y-116474681D01*
X122573403Y-116475318D01*
X123248086Y-116196545D01*
X123764730Y-115680801D01*
X123960135Y-115210215D01*
X124153455Y-115678086D01*
X124669199Y-116194730D01*
X125343395Y-116474681D01*
X126073403Y-116475318D01*
X126748086Y-116196545D01*
X127264730Y-115680801D01*
X127460135Y-115210215D01*
X127653455Y-115678086D01*
X128169199Y-116194730D01*
X128843395Y-116474681D01*
X129573403Y-116475318D01*
X129829389Y-116369547D01*
X132224921Y-118765079D01*
X132479594Y-118935245D01*
X132780000Y-118995000D01*
X137645000Y-118995000D01*
X137645000Y-123891325D01*
X137442172Y-124026851D01*
X137160000Y-124449150D01*
X136877828Y-124026851D01*
X136424609Y-123724019D01*
X135890000Y-123617679D01*
X135355391Y-123724019D01*
X134902172Y-124026851D01*
X134620000Y-124449150D01*
X134337828Y-124026851D01*
X133884609Y-123724019D01*
X133350000Y-123617679D01*
X132815391Y-123724019D01*
X132362172Y-124026851D01*
X132059340Y-124480070D01*
X131953000Y-125014679D01*
X131953000Y-126105321D01*
X132059340Y-126639930D01*
X132362172Y-127093149D01*
X132815391Y-127395981D01*
X133350000Y-127502321D01*
X133884609Y-127395981D01*
X134337828Y-127093149D01*
X134620000Y-126670850D01*
X134902172Y-127093149D01*
X135355391Y-127395981D01*
X135890000Y-127502321D01*
X136424609Y-127395981D01*
X136877828Y-127093149D01*
X137160000Y-126670850D01*
X137442172Y-127093149D01*
X137895391Y-127395981D01*
X138430000Y-127502321D01*
X138964609Y-127395981D01*
X139417828Y-127093149D01*
X139709330Y-126656887D01*
X139727941Y-126719941D01*
X140071974Y-127145630D01*
X140552723Y-127407260D01*
X140626930Y-127422220D01*
X140843000Y-127299720D01*
X140843000Y-125687000D01*
X141097000Y-125687000D01*
X141097000Y-127299720D01*
X141313070Y-127422220D01*
X141387277Y-127407260D01*
X141868026Y-127145630D01*
X142212059Y-126719941D01*
X142240000Y-126625277D01*
X142267941Y-126719941D01*
X142611974Y-127145630D01*
X143092723Y-127407260D01*
X143166930Y-127422220D01*
X143383000Y-127299720D01*
X143383000Y-125687000D01*
X141097000Y-125687000D01*
X140843000Y-125687000D01*
X140823000Y-125687000D01*
X140823000Y-125433000D01*
X140843000Y-125433000D01*
X140843000Y-123820280D01*
X141097000Y-123820280D01*
X141097000Y-125433000D01*
X143383000Y-125433000D01*
X143383000Y-123820280D01*
X143637000Y-123820280D01*
X143637000Y-125433000D01*
X143657000Y-125433000D01*
X143657000Y-125687000D01*
X143637000Y-125687000D01*
X143637000Y-127299720D01*
X143853070Y-127422220D01*
X143927277Y-127407260D01*
X144408026Y-127145630D01*
X144752059Y-126719941D01*
X144770670Y-126656887D01*
X145062172Y-127093149D01*
X145515391Y-127395981D01*
X146050000Y-127502321D01*
X146584609Y-127395981D01*
X147037828Y-127093149D01*
X147340660Y-126639930D01*
X147447000Y-126105321D01*
X147447000Y-125014679D01*
X149733000Y-125014679D01*
X149733000Y-126105321D01*
X149839340Y-126639930D01*
X150142172Y-127093149D01*
X150595391Y-127395981D01*
X151130000Y-127502321D01*
X151664609Y-127395981D01*
X152117828Y-127093149D01*
X152400000Y-126670850D01*
X152682172Y-127093149D01*
X153135391Y-127395981D01*
X153670000Y-127502321D01*
X154204609Y-127395981D01*
X154657828Y-127093149D01*
X154940000Y-126670850D01*
X155222172Y-127093149D01*
X155675391Y-127395981D01*
X156210000Y-127502321D01*
X156744609Y-127395981D01*
X157197828Y-127093149D01*
X157480000Y-126670850D01*
X157762172Y-127093149D01*
X158215391Y-127395981D01*
X158750000Y-127502321D01*
X159284609Y-127395981D01*
X159737828Y-127093149D01*
X160020000Y-126670850D01*
X160302172Y-127093149D01*
X160755391Y-127395981D01*
X161290000Y-127502321D01*
X161824609Y-127395981D01*
X162277828Y-127093149D01*
X162560000Y-126670850D01*
X162842172Y-127093149D01*
X163295391Y-127395981D01*
X163830000Y-127502321D01*
X164364609Y-127395981D01*
X164817828Y-127093149D01*
X165120660Y-126639930D01*
X165227000Y-126105321D01*
X165227000Y-125014679D01*
X165120660Y-124480070D01*
X164817828Y-124026851D01*
X164364609Y-123724019D01*
X163830000Y-123617679D01*
X163295391Y-123724019D01*
X162842172Y-124026851D01*
X162560000Y-124449150D01*
X162277828Y-124026851D01*
X161824609Y-123724019D01*
X161290000Y-123617679D01*
X160755391Y-123724019D01*
X160302172Y-124026851D01*
X160020000Y-124449150D01*
X159737828Y-124026851D01*
X159284609Y-123724019D01*
X158750000Y-123617679D01*
X158215391Y-123724019D01*
X157762172Y-124026851D01*
X157480000Y-124449150D01*
X157197828Y-124026851D01*
X156744609Y-123724019D01*
X156210000Y-123617679D01*
X155675391Y-123724019D01*
X155222172Y-124026851D01*
X154940000Y-124449150D01*
X154657828Y-124026851D01*
X154204609Y-123724019D01*
X153670000Y-123617679D01*
X153135391Y-123724019D01*
X152682172Y-124026851D01*
X152400000Y-124449150D01*
X152117828Y-124026851D01*
X151664609Y-123724019D01*
X151130000Y-123617679D01*
X150595391Y-123724019D01*
X150142172Y-124026851D01*
X149839340Y-124480070D01*
X149733000Y-125014679D01*
X147447000Y-125014679D01*
X147340660Y-124480070D01*
X147037828Y-124026851D01*
X146584609Y-123724019D01*
X146050000Y-123617679D01*
X145515391Y-123724019D01*
X145062172Y-124026851D01*
X144770670Y-124463113D01*
X144752059Y-124400059D01*
X144408026Y-123974370D01*
X143927277Y-123712740D01*
X143853070Y-123697780D01*
X143637000Y-123820280D01*
X143383000Y-123820280D01*
X143166930Y-123697780D01*
X143092723Y-123712740D01*
X142611974Y-123974370D01*
X142267941Y-124400059D01*
X142240000Y-124494723D01*
X142212059Y-124400059D01*
X141868026Y-123974370D01*
X141387277Y-123712740D01*
X141313070Y-123697780D01*
X141097000Y-123820280D01*
X140843000Y-123820280D01*
X140626930Y-123697780D01*
X140552723Y-123712740D01*
X140071974Y-123974370D01*
X139727941Y-124400059D01*
X139709330Y-124463113D01*
X139417828Y-124026851D01*
X139215000Y-123891325D01*
X139215000Y-118535158D01*
X141420492Y-116329666D01*
X141673395Y-116434681D01*
X142403403Y-116435318D01*
X143078086Y-116156545D01*
X143594730Y-115640801D01*
X143790135Y-115170215D01*
X143983455Y-115638086D01*
X144499199Y-116154730D01*
X145173395Y-116434681D01*
X145903403Y-116435318D01*
X146578086Y-116156545D01*
X147094730Y-115640801D01*
X147290135Y-115170215D01*
X147483455Y-115638086D01*
X147999199Y-116154730D01*
X148673395Y-116434681D01*
X149403403Y-116435318D01*
X150078086Y-116156545D01*
X150594730Y-115640801D01*
X150790135Y-115170215D01*
X150983455Y-115638086D01*
X151499199Y-116154730D01*
X152173395Y-116434681D01*
X152903403Y-116435318D01*
X153159389Y-116329547D01*
X153487721Y-116657879D01*
X153742393Y-116828045D01*
X154042800Y-116887800D01*
X156747400Y-116887800D01*
X157047807Y-116828045D01*
X157302479Y-116657879D01*
X158152716Y-115807642D01*
X158499199Y-116154730D01*
X159173395Y-116434681D01*
X159903403Y-116435318D01*
X160578086Y-116156545D01*
X161094730Y-115640801D01*
X161290135Y-115170215D01*
X161483455Y-115638086D01*
X161999199Y-116154730D01*
X162673395Y-116434681D01*
X163403403Y-116435318D01*
X164078086Y-116156545D01*
X164594730Y-115640801D01*
X164700948Y-115385000D01*
X169804842Y-115385000D01*
X172432402Y-118012560D01*
X170690000Y-118012560D01*
X170454683Y-118056838D01*
X170238559Y-118195910D01*
X170093569Y-118408110D01*
X170042560Y-118660000D01*
X170042560Y-121060000D01*
X170086838Y-121295317D01*
X170225910Y-121511441D01*
X170438110Y-121656431D01*
X170690000Y-121707440D01*
X173090000Y-121707440D01*
X173325317Y-121663162D01*
X173541441Y-121524090D01*
X173629603Y-121395061D01*
X174152321Y-121917779D01*
X174406994Y-122087945D01*
X174707400Y-122147701D01*
X174707405Y-122147700D01*
X187872505Y-122147700D01*
X187905330Y-122161330D01*
X188294363Y-122161669D01*
X188653912Y-122013107D01*
X188929240Y-121738259D01*
X188958521Y-121667743D01*
X189023395Y-121694681D01*
X189753403Y-121695318D01*
X190428086Y-121416545D01*
X190944730Y-120900801D01*
X191140135Y-120430215D01*
X191333455Y-120898086D01*
X191849199Y-121414730D01*
X192523395Y-121694681D01*
X193253403Y-121695318D01*
X193928086Y-121416545D01*
X194444730Y-120900801D01*
X194640135Y-120430215D01*
X194833455Y-120898086D01*
X195349199Y-121414730D01*
X196023395Y-121694681D01*
X196753403Y-121695318D01*
X197428086Y-121416545D01*
X197944730Y-120900801D01*
X198224681Y-120226605D01*
X198225318Y-119496597D01*
X197946545Y-118821914D01*
X197430801Y-118305270D01*
X196756605Y-118025319D01*
X196026597Y-118024682D01*
X195770611Y-118130453D01*
X195442279Y-117802121D01*
X195187607Y-117631955D01*
X194887200Y-117572200D01*
X190892800Y-117572200D01*
X190592393Y-117631955D01*
X190337721Y-117802121D01*
X190009508Y-118130334D01*
X189756605Y-118025319D01*
X189026597Y-118024682D01*
X188770611Y-118130453D01*
X188442279Y-117802121D01*
X188187607Y-117631955D01*
X187887200Y-117572200D01*
X183892800Y-117572200D01*
X183592393Y-117631955D01*
X183337721Y-117802121D01*
X183009508Y-118130334D01*
X182756605Y-118025319D01*
X182026597Y-118024682D01*
X181770611Y-118130453D01*
X181442279Y-117802121D01*
X181187607Y-117631955D01*
X180887200Y-117572200D01*
X176892800Y-117572200D01*
X176592393Y-117631955D01*
X176337721Y-117802121D01*
X176009508Y-118130334D01*
X175756605Y-118025319D01*
X175026597Y-118024682D01*
X174770611Y-118130453D01*
X170685079Y-114044921D01*
X170430407Y-113874755D01*
X170130000Y-113815000D01*
X164701118Y-113815000D01*
X164596545Y-113561914D01*
X164532643Y-113497900D01*
X175982900Y-113497900D01*
X176283307Y-113438145D01*
X176537979Y-113267979D01*
X178561043Y-111244915D01*
X178622563Y-111244969D01*
X178982112Y-111096407D01*
X179257440Y-110821559D01*
X179406630Y-110462270D01*
X179406907Y-110144200D01*
X187856277Y-110144200D01*
X187899741Y-110187740D01*
X188259030Y-110336930D01*
X188648063Y-110337269D01*
X189007612Y-110188707D01*
X189050818Y-110145576D01*
X189789221Y-110883979D01*
X190043893Y-111054145D01*
X190344300Y-111113900D01*
X193073877Y-111113900D01*
X193117341Y-111157440D01*
X193476630Y-111306630D01*
X193865663Y-111306969D01*
X194225212Y-111158407D01*
X194500540Y-110883559D01*
X194649730Y-110524270D01*
X194650069Y-110135237D01*
X194501507Y-109775688D01*
X194226659Y-109500360D01*
X193867370Y-109351170D01*
X193478337Y-109350831D01*
X193118788Y-109499393D01*
X193074203Y-109543900D01*
X192326215Y-109543900D01*
X192326369Y-109366637D01*
X192177807Y-109007088D01*
X191902959Y-108731760D01*
X191567212Y-108592346D01*
X199198679Y-100960879D01*
X199368845Y-100706206D01*
X199428600Y-100405800D01*
X199428600Y-80716700D01*
X199368845Y-80416294D01*
X199198679Y-80161621D01*
X197354679Y-78317621D01*
X197100007Y-78147455D01*
X196799600Y-78087700D01*
X165178788Y-78087700D01*
X165227000Y-77845321D01*
X165227000Y-76754679D01*
X165120660Y-76220070D01*
X164817828Y-75766851D01*
X164364609Y-75464019D01*
X163830000Y-75357679D01*
X163295391Y-75464019D01*
X162842172Y-75766851D01*
X162560000Y-76189150D01*
X162277828Y-75766851D01*
X161824609Y-75464019D01*
X161290000Y-75357679D01*
X160755391Y-75464019D01*
X160302172Y-75766851D01*
X160020000Y-76189150D01*
X159737828Y-75766851D01*
X159284609Y-75464019D01*
X158750000Y-75357679D01*
X158215391Y-75464019D01*
X157762172Y-75766851D01*
X157480000Y-76189150D01*
X157197828Y-75766851D01*
X156744609Y-75464019D01*
X156210000Y-75357679D01*
X155675391Y-75464019D01*
X155282679Y-75726421D01*
X154728479Y-75172221D01*
X154473807Y-75002055D01*
X154173400Y-74942300D01*
X146050000Y-74942300D01*
X145749594Y-75002055D01*
X145494921Y-75172221D01*
X145324755Y-75426894D01*
X145287017Y-75616614D01*
X145062172Y-75766851D01*
X144759340Y-76220070D01*
X144653000Y-76754679D01*
X144653000Y-77845321D01*
X144759340Y-78379930D01*
X145062172Y-78833149D01*
X145515391Y-79135981D01*
X146050000Y-79242321D01*
X146584609Y-79135981D01*
X147037828Y-78833149D01*
X147320000Y-78410850D01*
X147602172Y-78833149D01*
X148055391Y-79135981D01*
X148590000Y-79242321D01*
X149124609Y-79135981D01*
X149577828Y-78833149D01*
X149860000Y-78410850D01*
X150142172Y-78833149D01*
X150595391Y-79135981D01*
X151130000Y-79242321D01*
X151664609Y-79135981D01*
X152117828Y-78833149D01*
X152400000Y-78410850D01*
X152649016Y-78783527D01*
X151322442Y-80110100D01*
X131900323Y-80110100D01*
X131856859Y-80066560D01*
X131497570Y-79917370D01*
X131108537Y-79917031D01*
X130748988Y-80065593D01*
X130473660Y-80340441D01*
X130324470Y-80699730D01*
X130324131Y-81088763D01*
X130472693Y-81448312D01*
X130747541Y-81723640D01*
X131106830Y-81872830D01*
X131495863Y-81873169D01*
X131855412Y-81724607D01*
X131899997Y-81680100D01*
X151647600Y-81680100D01*
X151948007Y-81620345D01*
X152202679Y-81450179D01*
X153987200Y-79665657D01*
X153987200Y-80505542D01*
X152291057Y-82201685D01*
X152229537Y-82201631D01*
X151869988Y-82350193D01*
X151594660Y-82625041D01*
X151445470Y-82984330D01*
X151445389Y-83077535D01*
X151167200Y-83022200D01*
X147172800Y-83022200D01*
X146872393Y-83081955D01*
X146617721Y-83252121D01*
X146289508Y-83580334D01*
X146036605Y-83475319D01*
X145306597Y-83474682D01*
X145050611Y-83580453D01*
X144720079Y-83249921D01*
X144465407Y-83079755D01*
X144165000Y-83020000D01*
X141489900Y-83020000D01*
X141189493Y-83079755D01*
X140934821Y-83249921D01*
X140409301Y-83775441D01*
X140334090Y-83658559D01*
X140121890Y-83513569D01*
X139870000Y-83462560D01*
X137470000Y-83462560D01*
X137234683Y-83506838D01*
X137018559Y-83645910D01*
X136873569Y-83858110D01*
X136865486Y-83898028D01*
X136219679Y-83252221D01*
X135965007Y-83082055D01*
X135664600Y-83022300D01*
X126010758Y-83022300D01*
X125765779Y-82777321D01*
X125511107Y-82607155D01*
X125210700Y-82547400D01*
X120777600Y-82547400D01*
X120477194Y-82607155D01*
X120222521Y-82777321D01*
X119419508Y-83580334D01*
X119166605Y-83475319D01*
X118436597Y-83474682D01*
X117761914Y-83753455D01*
X117245270Y-84269199D01*
X117049865Y-84739785D01*
X116856545Y-84271914D01*
X116340801Y-83755270D01*
X115666605Y-83475319D01*
X114936597Y-83474682D01*
X114680611Y-83580453D01*
X114341879Y-83241721D01*
X114087207Y-83071555D01*
X113786800Y-83011800D01*
X103414700Y-83011800D01*
X103114293Y-83071555D01*
X102859621Y-83241721D01*
X102652121Y-83449221D01*
X102481955Y-83703893D01*
X102461406Y-83807200D01*
X102422200Y-84004300D01*
X101090000Y-84004300D01*
X101090000Y-76754679D01*
X122809000Y-76754679D01*
X122809000Y-77845321D01*
X122915340Y-78379930D01*
X123218172Y-78833149D01*
X123671391Y-79135981D01*
X124206000Y-79242321D01*
X124740609Y-79135981D01*
X125193828Y-78833149D01*
X125485330Y-78396887D01*
X125503941Y-78459941D01*
X125847974Y-78885630D01*
X126328723Y-79147260D01*
X126402930Y-79162220D01*
X126619000Y-79039720D01*
X126619000Y-77427000D01*
X126599000Y-77427000D01*
X126599000Y-77173000D01*
X126619000Y-77173000D01*
X126619000Y-75560280D01*
X126873000Y-75560280D01*
X126873000Y-77173000D01*
X126893000Y-77173000D01*
X126893000Y-77427000D01*
X126873000Y-77427000D01*
X126873000Y-79039720D01*
X127089070Y-79162220D01*
X127163277Y-79147260D01*
X127644026Y-78885630D01*
X127988059Y-78459941D01*
X128006670Y-78396887D01*
X128298172Y-78833149D01*
X128751391Y-79135981D01*
X129286000Y-79242321D01*
X129820609Y-79135981D01*
X130273828Y-78833149D01*
X130556000Y-78410850D01*
X130838172Y-78833149D01*
X131291391Y-79135981D01*
X131826000Y-79242321D01*
X132360609Y-79135981D01*
X132813828Y-78833149D01*
X133096000Y-78410850D01*
X133378172Y-78833149D01*
X133831391Y-79135981D01*
X134366000Y-79242321D01*
X134900609Y-79135981D01*
X135353828Y-78833149D01*
X135636000Y-78410850D01*
X135918172Y-78833149D01*
X136371391Y-79135981D01*
X136906000Y-79242321D01*
X137440609Y-79135981D01*
X137893828Y-78833149D01*
X138176000Y-78410850D01*
X138458172Y-78833149D01*
X138911391Y-79135981D01*
X139446000Y-79242321D01*
X139980609Y-79135981D01*
X140433828Y-78833149D01*
X140716000Y-78410850D01*
X140998172Y-78833149D01*
X141451391Y-79135981D01*
X141986000Y-79242321D01*
X142520609Y-79135981D01*
X142973828Y-78833149D01*
X143276660Y-78379930D01*
X143383000Y-77845321D01*
X143383000Y-76754679D01*
X143276660Y-76220070D01*
X142973828Y-75766851D01*
X142520609Y-75464019D01*
X141986000Y-75357679D01*
X141451391Y-75464019D01*
X140998172Y-75766851D01*
X140716000Y-76189150D01*
X140433828Y-75766851D01*
X139980609Y-75464019D01*
X139446000Y-75357679D01*
X138911391Y-75464019D01*
X138458172Y-75766851D01*
X138176000Y-76189150D01*
X137893828Y-75766851D01*
X137440609Y-75464019D01*
X136906000Y-75357679D01*
X136371391Y-75464019D01*
X135918172Y-75766851D01*
X135636000Y-76189150D01*
X135353828Y-75766851D01*
X134900609Y-75464019D01*
X134366000Y-75357679D01*
X133831391Y-75464019D01*
X133378172Y-75766851D01*
X133096000Y-76189150D01*
X132813828Y-75766851D01*
X132360609Y-75464019D01*
X131826000Y-75357679D01*
X131291391Y-75464019D01*
X130838172Y-75766851D01*
X130556000Y-76189150D01*
X130273828Y-75766851D01*
X129820609Y-75464019D01*
X129286000Y-75357679D01*
X128751391Y-75464019D01*
X128298172Y-75766851D01*
X128006670Y-76203113D01*
X127988059Y-76140059D01*
X127644026Y-75714370D01*
X127163277Y-75452740D01*
X127089070Y-75437780D01*
X126873000Y-75560280D01*
X126619000Y-75560280D01*
X126402930Y-75437780D01*
X126328723Y-75452740D01*
X125847974Y-75714370D01*
X125503941Y-76140059D01*
X125485330Y-76203113D01*
X125193828Y-75766851D01*
X124740609Y-75464019D01*
X124206000Y-75357679D01*
X123671391Y-75464019D01*
X123218172Y-75766851D01*
X122915340Y-76220070D01*
X122809000Y-76754679D01*
X101090000Y-76754679D01*
X101090000Y-74820000D01*
X199670000Y-74820000D01*
X199670000Y-128400000D01*
M02*
