G04 #@! TF.FileFunction,Legend,Bot*
%FSLAX46Y46*%
G04 Gerber Fmt 4.6, Leading zero omitted, Abs format (unit mm)*
G04 Created by KiCad (PCBNEW 4.0.6) date Tue Oct  9 15:10:24 2018*
%MOMM*%
%LPD*%
G01*
G04 APERTURE LIST*
%ADD10C,0.100000*%
%ADD11C,0.125000*%
%ADD12C,0.010000*%
%ADD13C,0.120000*%
%ADD14C,0.150000*%
G04 APERTURE END LIST*
D10*
D11*
X131187143Y-124020000D02*
X130830000Y-124020000D01*
X131258571Y-124234286D02*
X131008571Y-123484286D01*
X130758571Y-124234286D01*
X130508572Y-124234286D02*
X130508572Y-123734286D01*
X130508572Y-123877143D02*
X130472857Y-123805714D01*
X130437143Y-123770000D01*
X130365714Y-123734286D01*
X130294286Y-123734286D01*
X129722857Y-124234286D02*
X129722857Y-123484286D01*
X129722857Y-124198571D02*
X129794286Y-124234286D01*
X129937143Y-124234286D01*
X130008571Y-124198571D01*
X130044286Y-124162857D01*
X130080000Y-124091429D01*
X130080000Y-123877143D01*
X130044286Y-123805714D01*
X130008571Y-123770000D01*
X129937143Y-123734286D01*
X129794286Y-123734286D01*
X129722857Y-123770000D01*
X129044286Y-123734286D02*
X129044286Y-124234286D01*
X129365715Y-123734286D02*
X129365715Y-124127143D01*
X129330000Y-124198571D01*
X129258572Y-124234286D01*
X129151429Y-124234286D01*
X129080000Y-124198571D01*
X129044286Y-124162857D01*
X128687144Y-124234286D02*
X128687144Y-123734286D01*
X128687144Y-123484286D02*
X128722858Y-123520000D01*
X128687144Y-123555714D01*
X128651429Y-123520000D01*
X128687144Y-123484286D01*
X128687144Y-123555714D01*
X128330001Y-123734286D02*
X128330001Y-124234286D01*
X128330001Y-123805714D02*
X128294286Y-123770000D01*
X128222858Y-123734286D01*
X128115715Y-123734286D01*
X128044286Y-123770000D01*
X128008572Y-123841429D01*
X128008572Y-124234286D01*
X127544287Y-124234286D02*
X127615715Y-124198571D01*
X127651430Y-124162857D01*
X127687144Y-124091429D01*
X127687144Y-123877143D01*
X127651430Y-123805714D01*
X127615715Y-123770000D01*
X127544287Y-123734286D01*
X127437144Y-123734286D01*
X127365715Y-123770000D01*
X127330001Y-123805714D01*
X127294287Y-123877143D01*
X127294287Y-124091429D01*
X127330001Y-124162857D01*
X127365715Y-124198571D01*
X127437144Y-124234286D01*
X127544287Y-124234286D01*
X126401430Y-124234286D02*
X126401430Y-123484286D01*
X126044287Y-123734286D02*
X126044287Y-124234286D01*
X126044287Y-123805714D02*
X126008572Y-123770000D01*
X125937144Y-123734286D01*
X125830001Y-123734286D01*
X125758572Y-123770000D01*
X125722858Y-123841429D01*
X125722858Y-124234286D01*
X125365716Y-123734286D02*
X125365716Y-124484286D01*
X125365716Y-123770000D02*
X125294287Y-123734286D01*
X125151430Y-123734286D01*
X125080001Y-123770000D01*
X125044287Y-123805714D01*
X125008573Y-123877143D01*
X125008573Y-124091429D01*
X125044287Y-124162857D01*
X125080001Y-124198571D01*
X125151430Y-124234286D01*
X125294287Y-124234286D01*
X125365716Y-124198571D01*
X124365716Y-123734286D02*
X124365716Y-124234286D01*
X124687145Y-123734286D02*
X124687145Y-124127143D01*
X124651430Y-124198571D01*
X124580002Y-124234286D01*
X124472859Y-124234286D01*
X124401430Y-124198571D01*
X124365716Y-124162857D01*
X124115716Y-123734286D02*
X123830002Y-123734286D01*
X124008574Y-123484286D02*
X124008574Y-124127143D01*
X123972859Y-124198571D01*
X123901431Y-124234286D01*
X123830002Y-124234286D01*
X123008574Y-123841429D02*
X122758574Y-123841429D01*
X122651431Y-124234286D02*
X123008574Y-124234286D01*
X123008574Y-123484286D01*
X122651431Y-123484286D01*
X122401431Y-124234286D02*
X122008574Y-123734286D01*
X122401431Y-123734286D02*
X122008574Y-124234286D01*
X121722860Y-123734286D02*
X121722860Y-124484286D01*
X121722860Y-123770000D02*
X121651431Y-123734286D01*
X121508574Y-123734286D01*
X121437145Y-123770000D01*
X121401431Y-123805714D01*
X121365717Y-123877143D01*
X121365717Y-124091429D01*
X121401431Y-124162857D01*
X121437145Y-124198571D01*
X121508574Y-124234286D01*
X121651431Y-124234286D01*
X121722860Y-124198571D01*
X120722860Y-124234286D02*
X120722860Y-123841429D01*
X120758574Y-123770000D01*
X120830003Y-123734286D01*
X120972860Y-123734286D01*
X121044289Y-123770000D01*
X120722860Y-124198571D02*
X120794289Y-124234286D01*
X120972860Y-124234286D01*
X121044289Y-124198571D01*
X121080003Y-124127143D01*
X121080003Y-124055714D01*
X121044289Y-123984286D01*
X120972860Y-123948571D01*
X120794289Y-123948571D01*
X120722860Y-123912857D01*
X120365718Y-123734286D02*
X120365718Y-124234286D01*
X120365718Y-123805714D02*
X120330003Y-123770000D01*
X120258575Y-123734286D01*
X120151432Y-123734286D01*
X120080003Y-123770000D01*
X120044289Y-123841429D01*
X120044289Y-124234286D01*
X119365718Y-124234286D02*
X119365718Y-123484286D01*
X119365718Y-124198571D02*
X119437147Y-124234286D01*
X119580004Y-124234286D01*
X119651432Y-124198571D01*
X119687147Y-124162857D01*
X119722861Y-124091429D01*
X119722861Y-123877143D01*
X119687147Y-123805714D01*
X119651432Y-123770000D01*
X119580004Y-123734286D01*
X119437147Y-123734286D01*
X119365718Y-123770000D01*
X118722861Y-124198571D02*
X118794290Y-124234286D01*
X118937147Y-124234286D01*
X119008576Y-124198571D01*
X119044290Y-124127143D01*
X119044290Y-123841429D01*
X119008576Y-123770000D01*
X118937147Y-123734286D01*
X118794290Y-123734286D01*
X118722861Y-123770000D01*
X118687147Y-123841429D01*
X118687147Y-123912857D01*
X119044290Y-123984286D01*
X118365719Y-124234286D02*
X118365719Y-123734286D01*
X118365719Y-123877143D02*
X118330004Y-123805714D01*
X118294290Y-123770000D01*
X118222861Y-123734286D01*
X118151433Y-123734286D01*
X131222857Y-124984286D02*
X131044286Y-125484286D01*
X130865714Y-124984286D01*
X130437142Y-124734286D02*
X130365714Y-124734286D01*
X130294285Y-124770000D01*
X130258571Y-124805714D01*
X130222857Y-124877143D01*
X130187142Y-125020000D01*
X130187142Y-125198571D01*
X130222857Y-125341429D01*
X130258571Y-125412857D01*
X130294285Y-125448571D01*
X130365714Y-125484286D01*
X130437142Y-125484286D01*
X130508571Y-125448571D01*
X130544285Y-125412857D01*
X130580000Y-125341429D01*
X130615714Y-125198571D01*
X130615714Y-125020000D01*
X130580000Y-124877143D01*
X130544285Y-124805714D01*
X130508571Y-124770000D01*
X130437142Y-124734286D01*
X129865714Y-125412857D02*
X129829999Y-125448571D01*
X129865714Y-125484286D01*
X129901428Y-125448571D01*
X129865714Y-125412857D01*
X129865714Y-125484286D01*
X129365713Y-124734286D02*
X129294285Y-124734286D01*
X129222856Y-124770000D01*
X129187142Y-124805714D01*
X129151428Y-124877143D01*
X129115713Y-125020000D01*
X129115713Y-125198571D01*
X129151428Y-125341429D01*
X129187142Y-125412857D01*
X129222856Y-125448571D01*
X129294285Y-125484286D01*
X129365713Y-125484286D01*
X129437142Y-125448571D01*
X129472856Y-125412857D01*
X129508571Y-125341429D01*
X129544285Y-125198571D01*
X129544285Y-125020000D01*
X129508571Y-124877143D01*
X129472856Y-124805714D01*
X129437142Y-124770000D01*
X129365713Y-124734286D01*
X130830000Y-126234286D02*
X130830000Y-126841429D01*
X130865714Y-126912857D01*
X130901429Y-126948571D01*
X130972857Y-126984286D01*
X131080000Y-126984286D01*
X131151429Y-126948571D01*
X130830000Y-126698571D02*
X130901429Y-126734286D01*
X131044286Y-126734286D01*
X131115714Y-126698571D01*
X131151429Y-126662857D01*
X131187143Y-126591429D01*
X131187143Y-126377143D01*
X131151429Y-126305714D01*
X131115714Y-126270000D01*
X131044286Y-126234286D01*
X130901429Y-126234286D01*
X130830000Y-126270000D01*
X130472858Y-126734286D02*
X130472858Y-126234286D01*
X130472858Y-125984286D02*
X130508572Y-126020000D01*
X130472858Y-126055714D01*
X130437143Y-126020000D01*
X130472858Y-125984286D01*
X130472858Y-126055714D01*
X130222857Y-126234286D02*
X129937143Y-126234286D01*
X130115715Y-125984286D02*
X130115715Y-126627143D01*
X130080000Y-126698571D01*
X130008572Y-126734286D01*
X129937143Y-126734286D01*
X129687144Y-126734286D02*
X129687144Y-125984286D01*
X129365715Y-126734286D02*
X129365715Y-126341429D01*
X129401429Y-126270000D01*
X129472858Y-126234286D01*
X129580001Y-126234286D01*
X129651429Y-126270000D01*
X129687144Y-126305714D01*
X128687144Y-126234286D02*
X128687144Y-126734286D01*
X129008573Y-126234286D02*
X129008573Y-126627143D01*
X128972858Y-126698571D01*
X128901430Y-126734286D01*
X128794287Y-126734286D01*
X128722858Y-126698571D01*
X128687144Y-126662857D01*
X128330002Y-126734286D02*
X128330002Y-125984286D01*
X128330002Y-126270000D02*
X128258573Y-126234286D01*
X128115716Y-126234286D01*
X128044287Y-126270000D01*
X128008573Y-126305714D01*
X127972859Y-126377143D01*
X127972859Y-126591429D01*
X128008573Y-126662857D01*
X128044287Y-126698571D01*
X128115716Y-126734286D01*
X128258573Y-126734286D01*
X128330002Y-126698571D01*
X127651431Y-126662857D02*
X127615716Y-126698571D01*
X127651431Y-126734286D01*
X127687145Y-126698571D01*
X127651431Y-126662857D01*
X127651431Y-126734286D01*
X126972859Y-126698571D02*
X127044288Y-126734286D01*
X127187145Y-126734286D01*
X127258573Y-126698571D01*
X127294288Y-126662857D01*
X127330002Y-126591429D01*
X127330002Y-126377143D01*
X127294288Y-126305714D01*
X127258573Y-126270000D01*
X127187145Y-126234286D01*
X127044288Y-126234286D01*
X126972859Y-126270000D01*
X126544288Y-126734286D02*
X126615716Y-126698571D01*
X126651431Y-126662857D01*
X126687145Y-126591429D01*
X126687145Y-126377143D01*
X126651431Y-126305714D01*
X126615716Y-126270000D01*
X126544288Y-126234286D01*
X126437145Y-126234286D01*
X126365716Y-126270000D01*
X126330002Y-126305714D01*
X126294288Y-126377143D01*
X126294288Y-126591429D01*
X126330002Y-126662857D01*
X126365716Y-126698571D01*
X126437145Y-126734286D01*
X126544288Y-126734286D01*
X125972860Y-126734286D02*
X125972860Y-126234286D01*
X125972860Y-126305714D02*
X125937145Y-126270000D01*
X125865717Y-126234286D01*
X125758574Y-126234286D01*
X125687145Y-126270000D01*
X125651431Y-126341429D01*
X125651431Y-126734286D01*
X125651431Y-126341429D02*
X125615717Y-126270000D01*
X125544288Y-126234286D01*
X125437145Y-126234286D01*
X125365717Y-126270000D01*
X125330002Y-126341429D01*
X125330002Y-126734286D01*
X124437145Y-125948571D02*
X125080002Y-126912857D01*
X124187146Y-126734286D02*
X124187146Y-125984286D01*
X123758574Y-126734286D01*
X123758574Y-125984286D01*
X123401432Y-126734286D02*
X123401432Y-126234286D01*
X123401432Y-125984286D02*
X123437146Y-126020000D01*
X123401432Y-126055714D01*
X123365717Y-126020000D01*
X123401432Y-125984286D01*
X123401432Y-126055714D01*
X122937146Y-126734286D02*
X123008574Y-126698571D01*
X123044289Y-126627143D01*
X123044289Y-125984286D01*
X122365717Y-126698571D02*
X122437146Y-126734286D01*
X122580003Y-126734286D01*
X122651432Y-126698571D01*
X122687146Y-126627143D01*
X122687146Y-126341429D01*
X122651432Y-126270000D01*
X122580003Y-126234286D01*
X122437146Y-126234286D01*
X122365717Y-126270000D01*
X122330003Y-126341429D01*
X122330003Y-126412857D01*
X122687146Y-126484286D01*
X122008575Y-126734286D02*
X122008575Y-125984286D01*
X121758575Y-126520000D01*
X121508575Y-125984286D01*
X121508575Y-126734286D01*
X121151432Y-126734286D02*
X121151432Y-126234286D01*
X121151432Y-125984286D02*
X121187146Y-126020000D01*
X121151432Y-126055714D01*
X121115717Y-126020000D01*
X121151432Y-125984286D01*
X121151432Y-126055714D01*
X120901431Y-126234286D02*
X120615717Y-126234286D01*
X120794289Y-125984286D02*
X120794289Y-126627143D01*
X120758574Y-126698571D01*
X120687146Y-126734286D01*
X120615717Y-126734286D01*
X120472860Y-126234286D02*
X120187146Y-126234286D01*
X120365718Y-125984286D02*
X120365718Y-126627143D01*
X120330003Y-126698571D01*
X120258575Y-126734286D01*
X120187146Y-126734286D01*
X119830004Y-126734286D02*
X119901432Y-126698571D01*
X119937147Y-126662857D01*
X119972861Y-126591429D01*
X119972861Y-126377143D01*
X119937147Y-126305714D01*
X119901432Y-126270000D01*
X119830004Y-126234286D01*
X119722861Y-126234286D01*
X119651432Y-126270000D01*
X119615718Y-126305714D01*
X119580004Y-126377143D01*
X119580004Y-126591429D01*
X119615718Y-126662857D01*
X119651432Y-126698571D01*
X119722861Y-126734286D01*
X119830004Y-126734286D01*
X119330004Y-126234286D02*
X119187147Y-126734286D01*
X119044290Y-126377143D01*
X118901433Y-126734286D01*
X118758576Y-126234286D01*
X117937147Y-125948571D02*
X118580004Y-126912857D01*
X117722862Y-126520000D02*
X117365719Y-126520000D01*
X117794290Y-126734286D02*
X117544290Y-125984286D01*
X117294290Y-126734286D01*
X117044291Y-126734286D02*
X117044291Y-126234286D01*
X117044291Y-126377143D02*
X117008576Y-126305714D01*
X116972862Y-126270000D01*
X116901433Y-126234286D01*
X116830005Y-126234286D01*
X116258576Y-126734286D02*
X116258576Y-125984286D01*
X116258576Y-126698571D02*
X116330005Y-126734286D01*
X116472862Y-126734286D01*
X116544290Y-126698571D01*
X116580005Y-126662857D01*
X116615719Y-126591429D01*
X116615719Y-126377143D01*
X116580005Y-126305714D01*
X116544290Y-126270000D01*
X116472862Y-126234286D01*
X116330005Y-126234286D01*
X116258576Y-126270000D01*
X115580005Y-126234286D02*
X115580005Y-126734286D01*
X115901434Y-126234286D02*
X115901434Y-126627143D01*
X115865719Y-126698571D01*
X115794291Y-126734286D01*
X115687148Y-126734286D01*
X115615719Y-126698571D01*
X115580005Y-126662857D01*
X115222863Y-126734286D02*
X115222863Y-126234286D01*
X115222863Y-125984286D02*
X115258577Y-126020000D01*
X115222863Y-126055714D01*
X115187148Y-126020000D01*
X115222863Y-125984286D01*
X115222863Y-126055714D01*
X114865720Y-126234286D02*
X114865720Y-126734286D01*
X114865720Y-126305714D02*
X114830005Y-126270000D01*
X114758577Y-126234286D01*
X114651434Y-126234286D01*
X114580005Y-126270000D01*
X114544291Y-126341429D01*
X114544291Y-126734286D01*
X114080006Y-126734286D02*
X114151434Y-126698571D01*
X114187149Y-126662857D01*
X114222863Y-126591429D01*
X114222863Y-126377143D01*
X114187149Y-126305714D01*
X114151434Y-126270000D01*
X114080006Y-126234286D01*
X113972863Y-126234286D01*
X113901434Y-126270000D01*
X113865720Y-126305714D01*
X113830006Y-126377143D01*
X113830006Y-126591429D01*
X113865720Y-126662857D01*
X113901434Y-126698571D01*
X113972863Y-126734286D01*
X114080006Y-126734286D01*
X113508578Y-126734286D02*
X113508578Y-125984286D01*
X113151435Y-126234286D02*
X113151435Y-126734286D01*
X113151435Y-126305714D02*
X113115720Y-126270000D01*
X113044292Y-126234286D01*
X112937149Y-126234286D01*
X112865720Y-126270000D01*
X112830006Y-126341429D01*
X112830006Y-126734286D01*
X112472864Y-126234286D02*
X112472864Y-126984286D01*
X112472864Y-126270000D02*
X112401435Y-126234286D01*
X112258578Y-126234286D01*
X112187149Y-126270000D01*
X112151435Y-126305714D01*
X112115721Y-126377143D01*
X112115721Y-126591429D01*
X112151435Y-126662857D01*
X112187149Y-126698571D01*
X112258578Y-126734286D01*
X112401435Y-126734286D01*
X112472864Y-126698571D01*
X111472864Y-126234286D02*
X111472864Y-126734286D01*
X111794293Y-126234286D02*
X111794293Y-126627143D01*
X111758578Y-126698571D01*
X111687150Y-126734286D01*
X111580007Y-126734286D01*
X111508578Y-126698571D01*
X111472864Y-126662857D01*
X111222864Y-126234286D02*
X110937150Y-126234286D01*
X111115722Y-125984286D02*
X111115722Y-126627143D01*
X111080007Y-126698571D01*
X111008579Y-126734286D01*
X110937150Y-126734286D01*
X110687151Y-126341429D02*
X110437151Y-126341429D01*
X110330008Y-126734286D02*
X110687151Y-126734286D01*
X110687151Y-125984286D01*
X110330008Y-125984286D01*
X110080008Y-126734286D02*
X109687151Y-126234286D01*
X110080008Y-126234286D02*
X109687151Y-126734286D01*
X109401437Y-126234286D02*
X109401437Y-126984286D01*
X109401437Y-126270000D02*
X109330008Y-126234286D01*
X109187151Y-126234286D01*
X109115722Y-126270000D01*
X109080008Y-126305714D01*
X109044294Y-126377143D01*
X109044294Y-126591429D01*
X109080008Y-126662857D01*
X109115722Y-126698571D01*
X109187151Y-126734286D01*
X109330008Y-126734286D01*
X109401437Y-126698571D01*
X108401437Y-126734286D02*
X108401437Y-126341429D01*
X108437151Y-126270000D01*
X108508580Y-126234286D01*
X108651437Y-126234286D01*
X108722866Y-126270000D01*
X108401437Y-126698571D02*
X108472866Y-126734286D01*
X108651437Y-126734286D01*
X108722866Y-126698571D01*
X108758580Y-126627143D01*
X108758580Y-126555714D01*
X108722866Y-126484286D01*
X108651437Y-126448571D01*
X108472866Y-126448571D01*
X108401437Y-126412857D01*
X108044295Y-126234286D02*
X108044295Y-126734286D01*
X108044295Y-126305714D02*
X108008580Y-126270000D01*
X107937152Y-126234286D01*
X107830009Y-126234286D01*
X107758580Y-126270000D01*
X107722866Y-126341429D01*
X107722866Y-126734286D01*
X107044295Y-126734286D02*
X107044295Y-125984286D01*
X107044295Y-126698571D02*
X107115724Y-126734286D01*
X107258581Y-126734286D01*
X107330009Y-126698571D01*
X107365724Y-126662857D01*
X107401438Y-126591429D01*
X107401438Y-126377143D01*
X107365724Y-126305714D01*
X107330009Y-126270000D01*
X107258581Y-126234286D01*
X107115724Y-126234286D01*
X107044295Y-126270000D01*
X106401438Y-126698571D02*
X106472867Y-126734286D01*
X106615724Y-126734286D01*
X106687153Y-126698571D01*
X106722867Y-126627143D01*
X106722867Y-126341429D01*
X106687153Y-126270000D01*
X106615724Y-126234286D01*
X106472867Y-126234286D01*
X106401438Y-126270000D01*
X106365724Y-126341429D01*
X106365724Y-126412857D01*
X106722867Y-126484286D01*
X106044296Y-126734286D02*
X106044296Y-126234286D01*
X106044296Y-126377143D02*
X106008581Y-126305714D01*
X105972867Y-126270000D01*
X105901438Y-126234286D01*
X105830010Y-126234286D01*
X130722857Y-127984286D02*
X130972857Y-127627143D01*
X131151429Y-127984286D02*
X131151429Y-127234286D01*
X130865714Y-127234286D01*
X130794286Y-127270000D01*
X130758571Y-127305714D01*
X130722857Y-127377143D01*
X130722857Y-127484286D01*
X130758571Y-127555714D01*
X130794286Y-127591429D01*
X130865714Y-127627143D01*
X131151429Y-127627143D01*
X130115714Y-127948571D02*
X130187143Y-127984286D01*
X130330000Y-127984286D01*
X130401429Y-127948571D01*
X130437143Y-127877143D01*
X130437143Y-127591429D01*
X130401429Y-127520000D01*
X130330000Y-127484286D01*
X130187143Y-127484286D01*
X130115714Y-127520000D01*
X130080000Y-127591429D01*
X130080000Y-127662857D01*
X130437143Y-127734286D01*
X129651429Y-127984286D02*
X129722857Y-127948571D01*
X129758572Y-127877143D01*
X129758572Y-127234286D01*
X129080000Y-127948571D02*
X129151429Y-127984286D01*
X129294286Y-127984286D01*
X129365715Y-127948571D01*
X129401429Y-127877143D01*
X129401429Y-127591429D01*
X129365715Y-127520000D01*
X129294286Y-127484286D01*
X129151429Y-127484286D01*
X129080000Y-127520000D01*
X129044286Y-127591429D01*
X129044286Y-127662857D01*
X129401429Y-127734286D01*
X128401429Y-127984286D02*
X128401429Y-127591429D01*
X128437143Y-127520000D01*
X128508572Y-127484286D01*
X128651429Y-127484286D01*
X128722858Y-127520000D01*
X128401429Y-127948571D02*
X128472858Y-127984286D01*
X128651429Y-127984286D01*
X128722858Y-127948571D01*
X128758572Y-127877143D01*
X128758572Y-127805714D01*
X128722858Y-127734286D01*
X128651429Y-127698571D01*
X128472858Y-127698571D01*
X128401429Y-127662857D01*
X128080001Y-127948571D02*
X128008572Y-127984286D01*
X127865715Y-127984286D01*
X127794287Y-127948571D01*
X127758572Y-127877143D01*
X127758572Y-127841429D01*
X127794287Y-127770000D01*
X127865715Y-127734286D01*
X127972858Y-127734286D01*
X128044287Y-127698571D01*
X128080001Y-127627143D01*
X128080001Y-127591429D01*
X128044287Y-127520000D01*
X127972858Y-127484286D01*
X127865715Y-127484286D01*
X127794287Y-127520000D01*
X127151429Y-127948571D02*
X127222858Y-127984286D01*
X127365715Y-127984286D01*
X127437144Y-127948571D01*
X127472858Y-127877143D01*
X127472858Y-127591429D01*
X127437144Y-127520000D01*
X127365715Y-127484286D01*
X127222858Y-127484286D01*
X127151429Y-127520000D01*
X127115715Y-127591429D01*
X127115715Y-127662857D01*
X127472858Y-127734286D01*
X126472858Y-127984286D02*
X126472858Y-127234286D01*
X126472858Y-127948571D02*
X126544287Y-127984286D01*
X126687144Y-127984286D01*
X126758572Y-127948571D01*
X126794287Y-127912857D01*
X126830001Y-127841429D01*
X126830001Y-127627143D01*
X126794287Y-127555714D01*
X126758572Y-127520000D01*
X126687144Y-127484286D01*
X126544287Y-127484286D01*
X126472858Y-127520000D01*
X125222858Y-127484286D02*
X125222858Y-127984286D01*
X125544287Y-127484286D02*
X125544287Y-127877143D01*
X125508572Y-127948571D01*
X125437144Y-127984286D01*
X125330001Y-127984286D01*
X125258572Y-127948571D01*
X125222858Y-127912857D01*
X124865716Y-127484286D02*
X124865716Y-127984286D01*
X124865716Y-127555714D02*
X124830001Y-127520000D01*
X124758573Y-127484286D01*
X124651430Y-127484286D01*
X124580001Y-127520000D01*
X124544287Y-127591429D01*
X124544287Y-127984286D01*
X123865716Y-127984286D02*
X123865716Y-127234286D01*
X123865716Y-127948571D02*
X123937145Y-127984286D01*
X124080002Y-127984286D01*
X124151430Y-127948571D01*
X124187145Y-127912857D01*
X124222859Y-127841429D01*
X124222859Y-127627143D01*
X124187145Y-127555714D01*
X124151430Y-127520000D01*
X124080002Y-127484286D01*
X123937145Y-127484286D01*
X123865716Y-127520000D01*
X123222859Y-127948571D02*
X123294288Y-127984286D01*
X123437145Y-127984286D01*
X123508574Y-127948571D01*
X123544288Y-127877143D01*
X123544288Y-127591429D01*
X123508574Y-127520000D01*
X123437145Y-127484286D01*
X123294288Y-127484286D01*
X123222859Y-127520000D01*
X123187145Y-127591429D01*
X123187145Y-127662857D01*
X123544288Y-127734286D01*
X122865717Y-127984286D02*
X122865717Y-127484286D01*
X122865717Y-127627143D02*
X122830002Y-127555714D01*
X122794288Y-127520000D01*
X122722859Y-127484286D01*
X122651431Y-127484286D01*
X121401430Y-127912857D02*
X121437144Y-127948571D01*
X121544287Y-127984286D01*
X121615716Y-127984286D01*
X121722859Y-127948571D01*
X121794287Y-127877143D01*
X121830002Y-127805714D01*
X121865716Y-127662857D01*
X121865716Y-127555714D01*
X121830002Y-127412857D01*
X121794287Y-127341429D01*
X121722859Y-127270000D01*
X121615716Y-127234286D01*
X121544287Y-127234286D01*
X121437144Y-127270000D01*
X121401430Y-127305714D01*
X121080002Y-127984286D02*
X121080002Y-127484286D01*
X121080002Y-127627143D02*
X121044287Y-127555714D01*
X121008573Y-127520000D01*
X120937144Y-127484286D01*
X120865716Y-127484286D01*
X120330001Y-127948571D02*
X120401430Y-127984286D01*
X120544287Y-127984286D01*
X120615716Y-127948571D01*
X120651430Y-127877143D01*
X120651430Y-127591429D01*
X120615716Y-127520000D01*
X120544287Y-127484286D01*
X120401430Y-127484286D01*
X120330001Y-127520000D01*
X120294287Y-127591429D01*
X120294287Y-127662857D01*
X120651430Y-127734286D01*
X119651430Y-127984286D02*
X119651430Y-127591429D01*
X119687144Y-127520000D01*
X119758573Y-127484286D01*
X119901430Y-127484286D01*
X119972859Y-127520000D01*
X119651430Y-127948571D02*
X119722859Y-127984286D01*
X119901430Y-127984286D01*
X119972859Y-127948571D01*
X120008573Y-127877143D01*
X120008573Y-127805714D01*
X119972859Y-127734286D01*
X119901430Y-127698571D01*
X119722859Y-127698571D01*
X119651430Y-127662857D01*
X119401430Y-127484286D02*
X119115716Y-127484286D01*
X119294288Y-127234286D02*
X119294288Y-127877143D01*
X119258573Y-127948571D01*
X119187145Y-127984286D01*
X119115716Y-127984286D01*
X118865717Y-127984286D02*
X118865717Y-127484286D01*
X118865717Y-127234286D02*
X118901431Y-127270000D01*
X118865717Y-127305714D01*
X118830002Y-127270000D01*
X118865717Y-127234286D01*
X118865717Y-127305714D01*
X118580002Y-127484286D02*
X118401431Y-127984286D01*
X118222859Y-127484286D01*
X117651430Y-127948571D02*
X117722859Y-127984286D01*
X117865716Y-127984286D01*
X117937145Y-127948571D01*
X117972859Y-127877143D01*
X117972859Y-127591429D01*
X117937145Y-127520000D01*
X117865716Y-127484286D01*
X117722859Y-127484286D01*
X117651430Y-127520000D01*
X117615716Y-127591429D01*
X117615716Y-127662857D01*
X117972859Y-127734286D01*
X116294287Y-127912857D02*
X116330001Y-127948571D01*
X116437144Y-127984286D01*
X116508573Y-127984286D01*
X116615716Y-127948571D01*
X116687144Y-127877143D01*
X116722859Y-127805714D01*
X116758573Y-127662857D01*
X116758573Y-127555714D01*
X116722859Y-127412857D01*
X116687144Y-127341429D01*
X116615716Y-127270000D01*
X116508573Y-127234286D01*
X116437144Y-127234286D01*
X116330001Y-127270000D01*
X116294287Y-127305714D01*
X115865716Y-127984286D02*
X115937144Y-127948571D01*
X115972859Y-127912857D01*
X116008573Y-127841429D01*
X116008573Y-127627143D01*
X115972859Y-127555714D01*
X115937144Y-127520000D01*
X115865716Y-127484286D01*
X115758573Y-127484286D01*
X115687144Y-127520000D01*
X115651430Y-127555714D01*
X115615716Y-127627143D01*
X115615716Y-127841429D01*
X115651430Y-127912857D01*
X115687144Y-127948571D01*
X115758573Y-127984286D01*
X115865716Y-127984286D01*
X115294288Y-127984286D02*
X115294288Y-127484286D01*
X115294288Y-127555714D02*
X115258573Y-127520000D01*
X115187145Y-127484286D01*
X115080002Y-127484286D01*
X115008573Y-127520000D01*
X114972859Y-127591429D01*
X114972859Y-127984286D01*
X114972859Y-127591429D02*
X114937145Y-127520000D01*
X114865716Y-127484286D01*
X114758573Y-127484286D01*
X114687145Y-127520000D01*
X114651430Y-127591429D01*
X114651430Y-127984286D01*
X114294288Y-127984286D02*
X114294288Y-127484286D01*
X114294288Y-127555714D02*
X114258573Y-127520000D01*
X114187145Y-127484286D01*
X114080002Y-127484286D01*
X114008573Y-127520000D01*
X113972859Y-127591429D01*
X113972859Y-127984286D01*
X113972859Y-127591429D02*
X113937145Y-127520000D01*
X113865716Y-127484286D01*
X113758573Y-127484286D01*
X113687145Y-127520000D01*
X113651430Y-127591429D01*
X113651430Y-127984286D01*
X113187145Y-127984286D02*
X113258573Y-127948571D01*
X113294288Y-127912857D01*
X113330002Y-127841429D01*
X113330002Y-127627143D01*
X113294288Y-127555714D01*
X113258573Y-127520000D01*
X113187145Y-127484286D01*
X113080002Y-127484286D01*
X113008573Y-127520000D01*
X112972859Y-127555714D01*
X112937145Y-127627143D01*
X112937145Y-127841429D01*
X112972859Y-127912857D01*
X113008573Y-127948571D01*
X113080002Y-127984286D01*
X113187145Y-127984286D01*
X112615717Y-127484286D02*
X112615717Y-127984286D01*
X112615717Y-127555714D02*
X112580002Y-127520000D01*
X112508574Y-127484286D01*
X112401431Y-127484286D01*
X112330002Y-127520000D01*
X112294288Y-127591429D01*
X112294288Y-127984286D01*
X111972860Y-127948571D02*
X111901431Y-127984286D01*
X111758574Y-127984286D01*
X111687146Y-127948571D01*
X111651431Y-127877143D01*
X111651431Y-127841429D01*
X111687146Y-127770000D01*
X111758574Y-127734286D01*
X111865717Y-127734286D01*
X111937146Y-127698571D01*
X111972860Y-127627143D01*
X111972860Y-127591429D01*
X111937146Y-127520000D01*
X111865717Y-127484286D01*
X111758574Y-127484286D01*
X111687146Y-127520000D01*
X110794288Y-127948571D02*
X110687145Y-127984286D01*
X110508574Y-127984286D01*
X110437145Y-127948571D01*
X110401431Y-127912857D01*
X110365716Y-127841429D01*
X110365716Y-127770000D01*
X110401431Y-127698571D01*
X110437145Y-127662857D01*
X110508574Y-127627143D01*
X110651431Y-127591429D01*
X110722859Y-127555714D01*
X110758574Y-127520000D01*
X110794288Y-127448571D01*
X110794288Y-127377143D01*
X110758574Y-127305714D01*
X110722859Y-127270000D01*
X110651431Y-127234286D01*
X110472859Y-127234286D01*
X110365716Y-127270000D01*
X110044288Y-127984286D02*
X110044288Y-127234286D01*
X109722859Y-127984286D02*
X109722859Y-127591429D01*
X109758573Y-127520000D01*
X109830002Y-127484286D01*
X109937145Y-127484286D01*
X110008573Y-127520000D01*
X110044288Y-127555714D01*
X109044288Y-127984286D02*
X109044288Y-127591429D01*
X109080002Y-127520000D01*
X109151431Y-127484286D01*
X109294288Y-127484286D01*
X109365717Y-127520000D01*
X109044288Y-127948571D02*
X109115717Y-127984286D01*
X109294288Y-127984286D01*
X109365717Y-127948571D01*
X109401431Y-127877143D01*
X109401431Y-127805714D01*
X109365717Y-127734286D01*
X109294288Y-127698571D01*
X109115717Y-127698571D01*
X109044288Y-127662857D01*
X108687146Y-127984286D02*
X108687146Y-127484286D01*
X108687146Y-127627143D02*
X108651431Y-127555714D01*
X108615717Y-127520000D01*
X108544288Y-127484286D01*
X108472860Y-127484286D01*
X107937145Y-127948571D02*
X108008574Y-127984286D01*
X108151431Y-127984286D01*
X108222860Y-127948571D01*
X108258574Y-127877143D01*
X108258574Y-127591429D01*
X108222860Y-127520000D01*
X108151431Y-127484286D01*
X108008574Y-127484286D01*
X107937145Y-127520000D01*
X107901431Y-127591429D01*
X107901431Y-127662857D01*
X108258574Y-127734286D01*
X107580003Y-127698571D02*
X107008574Y-127698571D01*
X106330003Y-127984286D02*
X106330003Y-127591429D01*
X106365717Y-127520000D01*
X106437146Y-127484286D01*
X106580003Y-127484286D01*
X106651432Y-127520000D01*
X106330003Y-127948571D02*
X106401432Y-127984286D01*
X106580003Y-127984286D01*
X106651432Y-127948571D01*
X106687146Y-127877143D01*
X106687146Y-127805714D01*
X106651432Y-127734286D01*
X106580003Y-127698571D01*
X106401432Y-127698571D01*
X106330003Y-127662857D01*
X105865718Y-127984286D02*
X105937146Y-127948571D01*
X105972861Y-127877143D01*
X105972861Y-127234286D01*
X105580004Y-127984286D02*
X105580004Y-127484286D01*
X105580004Y-127234286D02*
X105615718Y-127270000D01*
X105580004Y-127305714D01*
X105544289Y-127270000D01*
X105580004Y-127234286D01*
X105580004Y-127305714D01*
X105222861Y-127984286D02*
X105222861Y-127234286D01*
X105151432Y-127698571D02*
X104937146Y-127984286D01*
X104937146Y-127484286D02*
X105222861Y-127770000D01*
X104330003Y-127948571D02*
X104401432Y-127984286D01*
X104544289Y-127984286D01*
X104615718Y-127948571D01*
X104651432Y-127877143D01*
X104651432Y-127591429D01*
X104615718Y-127520000D01*
X104544289Y-127484286D01*
X104401432Y-127484286D01*
X104330003Y-127520000D01*
X104294289Y-127591429D01*
X104294289Y-127662857D01*
X104651432Y-127734286D01*
X103472860Y-127234286D02*
X103008574Y-127234286D01*
X103258574Y-127520000D01*
X103151432Y-127520000D01*
X103080003Y-127555714D01*
X103044289Y-127591429D01*
X103008574Y-127662857D01*
X103008574Y-127841429D01*
X103044289Y-127912857D01*
X103080003Y-127948571D01*
X103151432Y-127984286D01*
X103365717Y-127984286D01*
X103437146Y-127948571D01*
X103472860Y-127912857D01*
X102687146Y-127912857D02*
X102651431Y-127948571D01*
X102687146Y-127984286D01*
X102722860Y-127948571D01*
X102687146Y-127912857D01*
X102687146Y-127984286D01*
X102187145Y-127234286D02*
X102115717Y-127234286D01*
X102044288Y-127270000D01*
X102008574Y-127305714D01*
X101972860Y-127377143D01*
X101937145Y-127520000D01*
X101937145Y-127698571D01*
X101972860Y-127841429D01*
X102008574Y-127912857D01*
X102044288Y-127948571D01*
X102115717Y-127984286D01*
X102187145Y-127984286D01*
X102258574Y-127948571D01*
X102294288Y-127912857D01*
X102330003Y-127841429D01*
X102365717Y-127698571D01*
X102365717Y-127520000D01*
X102330003Y-127377143D01*
X102294288Y-127305714D01*
X102258574Y-127270000D01*
X102187145Y-127234286D01*
D12*
G36*
X106857154Y-78024602D02*
X107024231Y-77989839D01*
X107028632Y-77988779D01*
X107243951Y-77888482D01*
X107477749Y-77710989D01*
X107545752Y-77643764D01*
X107728220Y-77472456D01*
X107879847Y-77371123D01*
X107922519Y-77359333D01*
X107989517Y-77383829D01*
X107932266Y-77460933D01*
X107867847Y-77605985D01*
X107834657Y-77839352D01*
X107833359Y-77905433D01*
X107840320Y-78114820D01*
X107867586Y-78178838D01*
X107931566Y-78121407D01*
X107958029Y-78087170D01*
X108055637Y-77982150D01*
X108111837Y-78014416D01*
X108130149Y-78056676D01*
X108183835Y-78126274D01*
X108277524Y-78082971D01*
X108382630Y-77985005D01*
X108606532Y-77815670D01*
X108798321Y-77799405D01*
X108890955Y-77847463D01*
X109001843Y-77964611D01*
X109130862Y-78147428D01*
X109239610Y-78334750D01*
X109289688Y-78465417D01*
X109288828Y-78481166D01*
X109339183Y-78537064D01*
X109397000Y-78544666D01*
X109502751Y-78602265D01*
X109513827Y-78724667D01*
X109430228Y-78836282D01*
X109397000Y-78852715D01*
X109289917Y-78968177D01*
X109270000Y-79061725D01*
X109234682Y-79194339D01*
X109189757Y-79222000D01*
X109140514Y-79145589D01*
X109100091Y-78949331D01*
X109083924Y-78777500D01*
X109059563Y-78514435D01*
X109013985Y-78380434D01*
X108929547Y-78335268D01*
X108889000Y-78333000D01*
X108794990Y-78352857D01*
X108739705Y-78437472D01*
X108709446Y-78624410D01*
X108694338Y-78866833D01*
X108685829Y-79157825D01*
X108701088Y-79315393D01*
X108748709Y-79374767D01*
X108818269Y-79374833D01*
X108949860Y-79415128D01*
X109004085Y-79551884D01*
X108964094Y-79723411D01*
X108927957Y-79776400D01*
X108753609Y-79904219D01*
X108587136Y-79877346D01*
X108440471Y-79710371D01*
X108325547Y-79417888D01*
X108254296Y-79014488D01*
X108248086Y-78944985D01*
X108199840Y-78333000D01*
X108184586Y-78986509D01*
X108171605Y-79318939D01*
X108147375Y-79510992D01*
X108105099Y-79591564D01*
X108042333Y-79591284D01*
X107964147Y-79505748D01*
X107924259Y-79305949D01*
X107915333Y-79043608D01*
X107906027Y-78754560D01*
X107872083Y-78600142D01*
X107804462Y-78546371D01*
X107782627Y-78544666D01*
X107691387Y-78499908D01*
X107707031Y-78364730D01*
X107725854Y-78239628D01*
X107666695Y-78245019D01*
X107526885Y-78249913D01*
X107453495Y-78209177D01*
X107330209Y-78160602D01*
X107282874Y-78201888D01*
X107296776Y-78280135D01*
X107345696Y-78290666D01*
X107469024Y-78359081D01*
X107555723Y-78481166D01*
X107622133Y-78677326D01*
X107636977Y-78849624D01*
X107598342Y-78940454D01*
X107571022Y-78942129D01*
X107499191Y-78989612D01*
X107493266Y-79010333D01*
X107429070Y-79147626D01*
X107392844Y-79197124D01*
X107340053Y-79336494D01*
X107400037Y-79419959D01*
X107527037Y-79395351D01*
X107551033Y-79377473D01*
X107668544Y-79320524D01*
X107774387Y-79401382D01*
X107797495Y-79431878D01*
X107892554Y-79623066D01*
X107915333Y-79741975D01*
X107969638Y-79906690D01*
X108021166Y-79958626D01*
X108111821Y-80075093D01*
X108136421Y-80219056D01*
X108088196Y-80315401D01*
X108054092Y-80323963D01*
X108020763Y-80355650D01*
X108072241Y-80397862D01*
X108132648Y-80516917D01*
X108082319Y-80686323D01*
X107952697Y-80864456D01*
X107775222Y-81009692D01*
X107581336Y-81080404D01*
X107555500Y-81081973D01*
X107429724Y-81120561D01*
X107407333Y-81161406D01*
X107474171Y-81206561D01*
X107564990Y-81196918D01*
X107722685Y-81220848D01*
X107773934Y-81289341D01*
X107857561Y-81376459D01*
X108040016Y-81390908D01*
X108145444Y-81379387D01*
X108399746Y-81370604D01*
X108739634Y-81391549D01*
X109039112Y-81429869D01*
X109730956Y-81467007D01*
X110375248Y-81341981D01*
X110977547Y-81053284D01*
X111302000Y-80816732D01*
X111589756Y-80572466D01*
X111774197Y-80390385D01*
X111887004Y-80230449D01*
X111959858Y-80052623D01*
X111990682Y-79946419D01*
X112084561Y-79629737D01*
X112190047Y-79313515D01*
X112200829Y-79283786D01*
X112296677Y-78816143D01*
X112273229Y-78250154D01*
X112238982Y-78036666D01*
X112092713Y-77553832D01*
X111860939Y-77189384D01*
X111654620Y-77016774D01*
X111477524Y-76869653D01*
X111388985Y-76718869D01*
X111386666Y-76696834D01*
X111316560Y-76549291D01*
X111171078Y-76441618D01*
X110976459Y-76297793D01*
X110811260Y-76089924D01*
X110811245Y-76089896D01*
X110688318Y-75918613D01*
X110579679Y-75836976D01*
X110570225Y-75835868D01*
X110455528Y-75768218D01*
X110430963Y-75724615D01*
X110322396Y-75650402D01*
X110090311Y-75601743D01*
X109979376Y-75592720D01*
X109731619Y-75567436D01*
X109562894Y-75527033D01*
X109525971Y-75503764D01*
X109416302Y-75458946D01*
X109315215Y-75461517D01*
X109122826Y-75440627D01*
X109040048Y-75396825D01*
X108898892Y-75354649D01*
X108816454Y-75401940D01*
X108653089Y-75455634D01*
X108446341Y-75446234D01*
X108232970Y-75441645D01*
X108001055Y-75530116D01*
X107826467Y-75636427D01*
X107461828Y-75877666D01*
X107687997Y-75957305D01*
X107874024Y-76074819D01*
X107967097Y-76211305D01*
X108061904Y-76419248D01*
X108125642Y-76512666D01*
X108226648Y-76692634D01*
X108284087Y-76862590D01*
X108297839Y-77023587D01*
X108213876Y-77123695D01*
X108062625Y-77193621D01*
X107801293Y-77321696D01*
X107536627Y-77486961D01*
X107518815Y-77499864D01*
X107328125Y-77626791D01*
X107191226Y-77694522D01*
X107172104Y-77698000D01*
X107063892Y-77754875D01*
X106935921Y-77873681D01*
X106834347Y-77994113D01*
X106857154Y-78024602D01*
X106857154Y-78024602D01*
G37*
X106857154Y-78024602D02*
X107024231Y-77989839D01*
X107028632Y-77988779D01*
X107243951Y-77888482D01*
X107477749Y-77710989D01*
X107545752Y-77643764D01*
X107728220Y-77472456D01*
X107879847Y-77371123D01*
X107922519Y-77359333D01*
X107989517Y-77383829D01*
X107932266Y-77460933D01*
X107867847Y-77605985D01*
X107834657Y-77839352D01*
X107833359Y-77905433D01*
X107840320Y-78114820D01*
X107867586Y-78178838D01*
X107931566Y-78121407D01*
X107958029Y-78087170D01*
X108055637Y-77982150D01*
X108111837Y-78014416D01*
X108130149Y-78056676D01*
X108183835Y-78126274D01*
X108277524Y-78082971D01*
X108382630Y-77985005D01*
X108606532Y-77815670D01*
X108798321Y-77799405D01*
X108890955Y-77847463D01*
X109001843Y-77964611D01*
X109130862Y-78147428D01*
X109239610Y-78334750D01*
X109289688Y-78465417D01*
X109288828Y-78481166D01*
X109339183Y-78537064D01*
X109397000Y-78544666D01*
X109502751Y-78602265D01*
X109513827Y-78724667D01*
X109430228Y-78836282D01*
X109397000Y-78852715D01*
X109289917Y-78968177D01*
X109270000Y-79061725D01*
X109234682Y-79194339D01*
X109189757Y-79222000D01*
X109140514Y-79145589D01*
X109100091Y-78949331D01*
X109083924Y-78777500D01*
X109059563Y-78514435D01*
X109013985Y-78380434D01*
X108929547Y-78335268D01*
X108889000Y-78333000D01*
X108794990Y-78352857D01*
X108739705Y-78437472D01*
X108709446Y-78624410D01*
X108694338Y-78866833D01*
X108685829Y-79157825D01*
X108701088Y-79315393D01*
X108748709Y-79374767D01*
X108818269Y-79374833D01*
X108949860Y-79415128D01*
X109004085Y-79551884D01*
X108964094Y-79723411D01*
X108927957Y-79776400D01*
X108753609Y-79904219D01*
X108587136Y-79877346D01*
X108440471Y-79710371D01*
X108325547Y-79417888D01*
X108254296Y-79014488D01*
X108248086Y-78944985D01*
X108199840Y-78333000D01*
X108184586Y-78986509D01*
X108171605Y-79318939D01*
X108147375Y-79510992D01*
X108105099Y-79591564D01*
X108042333Y-79591284D01*
X107964147Y-79505748D01*
X107924259Y-79305949D01*
X107915333Y-79043608D01*
X107906027Y-78754560D01*
X107872083Y-78600142D01*
X107804462Y-78546371D01*
X107782627Y-78544666D01*
X107691387Y-78499908D01*
X107707031Y-78364730D01*
X107725854Y-78239628D01*
X107666695Y-78245019D01*
X107526885Y-78249913D01*
X107453495Y-78209177D01*
X107330209Y-78160602D01*
X107282874Y-78201888D01*
X107296776Y-78280135D01*
X107345696Y-78290666D01*
X107469024Y-78359081D01*
X107555723Y-78481166D01*
X107622133Y-78677326D01*
X107636977Y-78849624D01*
X107598342Y-78940454D01*
X107571022Y-78942129D01*
X107499191Y-78989612D01*
X107493266Y-79010333D01*
X107429070Y-79147626D01*
X107392844Y-79197124D01*
X107340053Y-79336494D01*
X107400037Y-79419959D01*
X107527037Y-79395351D01*
X107551033Y-79377473D01*
X107668544Y-79320524D01*
X107774387Y-79401382D01*
X107797495Y-79431878D01*
X107892554Y-79623066D01*
X107915333Y-79741975D01*
X107969638Y-79906690D01*
X108021166Y-79958626D01*
X108111821Y-80075093D01*
X108136421Y-80219056D01*
X108088196Y-80315401D01*
X108054092Y-80323963D01*
X108020763Y-80355650D01*
X108072241Y-80397862D01*
X108132648Y-80516917D01*
X108082319Y-80686323D01*
X107952697Y-80864456D01*
X107775222Y-81009692D01*
X107581336Y-81080404D01*
X107555500Y-81081973D01*
X107429724Y-81120561D01*
X107407333Y-81161406D01*
X107474171Y-81206561D01*
X107564990Y-81196918D01*
X107722685Y-81220848D01*
X107773934Y-81289341D01*
X107857561Y-81376459D01*
X108040016Y-81390908D01*
X108145444Y-81379387D01*
X108399746Y-81370604D01*
X108739634Y-81391549D01*
X109039112Y-81429869D01*
X109730956Y-81467007D01*
X110375248Y-81341981D01*
X110977547Y-81053284D01*
X111302000Y-80816732D01*
X111589756Y-80572466D01*
X111774197Y-80390385D01*
X111887004Y-80230449D01*
X111959858Y-80052623D01*
X111990682Y-79946419D01*
X112084561Y-79629737D01*
X112190047Y-79313515D01*
X112200829Y-79283786D01*
X112296677Y-78816143D01*
X112273229Y-78250154D01*
X112238982Y-78036666D01*
X112092713Y-77553832D01*
X111860939Y-77189384D01*
X111654620Y-77016774D01*
X111477524Y-76869653D01*
X111388985Y-76718869D01*
X111386666Y-76696834D01*
X111316560Y-76549291D01*
X111171078Y-76441618D01*
X110976459Y-76297793D01*
X110811260Y-76089924D01*
X110811245Y-76089896D01*
X110688318Y-75918613D01*
X110579679Y-75836976D01*
X110570225Y-75835868D01*
X110455528Y-75768218D01*
X110430963Y-75724615D01*
X110322396Y-75650402D01*
X110090311Y-75601743D01*
X109979376Y-75592720D01*
X109731619Y-75567436D01*
X109562894Y-75527033D01*
X109525971Y-75503764D01*
X109416302Y-75458946D01*
X109315215Y-75461517D01*
X109122826Y-75440627D01*
X109040048Y-75396825D01*
X108898892Y-75354649D01*
X108816454Y-75401940D01*
X108653089Y-75455634D01*
X108446341Y-75446234D01*
X108232970Y-75441645D01*
X108001055Y-75530116D01*
X107826467Y-75636427D01*
X107461828Y-75877666D01*
X107687997Y-75957305D01*
X107874024Y-76074819D01*
X107967097Y-76211305D01*
X108061904Y-76419248D01*
X108125642Y-76512666D01*
X108226648Y-76692634D01*
X108284087Y-76862590D01*
X108297839Y-77023587D01*
X108213876Y-77123695D01*
X108062625Y-77193621D01*
X107801293Y-77321696D01*
X107536627Y-77486961D01*
X107518815Y-77499864D01*
X107328125Y-77626791D01*
X107191226Y-77694522D01*
X107172104Y-77698000D01*
X107063892Y-77754875D01*
X106935921Y-77873681D01*
X106834347Y-77994113D01*
X106857154Y-78024602D01*
G36*
X107214915Y-79717582D02*
X107275336Y-79730000D01*
X107397665Y-79702097D01*
X107360994Y-79628785D01*
X107328516Y-79606615D01*
X107219777Y-79617233D01*
X107196520Y-79643952D01*
X107214915Y-79717582D01*
X107214915Y-79717582D01*
G37*
X107214915Y-79717582D02*
X107275336Y-79730000D01*
X107397665Y-79702097D01*
X107360994Y-79628785D01*
X107328516Y-79606615D01*
X107219777Y-79617233D01*
X107196520Y-79643952D01*
X107214915Y-79717582D01*
G36*
X106704509Y-81152301D02*
X106850128Y-81217507D01*
X106850952Y-81217714D01*
X107047813Y-81232800D01*
X107165461Y-81191071D01*
X107167246Y-81114798D01*
X107011096Y-81059850D01*
X106811017Y-81047818D01*
X106700147Y-81087187D01*
X106704509Y-81152301D01*
X106704509Y-81152301D01*
G37*
X106704509Y-81152301D02*
X106850128Y-81217507D01*
X106850952Y-81217714D01*
X107047813Y-81232800D01*
X107165461Y-81191071D01*
X107167246Y-81114798D01*
X107011096Y-81059850D01*
X106811017Y-81047818D01*
X106700147Y-81087187D01*
X106704509Y-81152301D01*
G36*
X101634285Y-78580243D02*
X101744382Y-78936355D01*
X101796836Y-79028725D01*
X101865122Y-79174754D01*
X101831166Y-79222000D01*
X101785886Y-79282877D01*
X101814928Y-79429111D01*
X101897290Y-79606102D01*
X102011970Y-79759252D01*
X102050994Y-79793500D01*
X102135433Y-79876813D01*
X102124734Y-79899333D01*
X102133866Y-79957850D01*
X102228742Y-80107670D01*
X102320218Y-80229017D01*
X102473295Y-80448285D01*
X102567254Y-80632955D01*
X102581333Y-80694683D01*
X102647922Y-80821707D01*
X102839915Y-80843111D01*
X102856500Y-80840692D01*
X102918690Y-80893593D01*
X102920000Y-80909250D01*
X102997799Y-80997593D01*
X103206740Y-81097724D01*
X103510137Y-81198897D01*
X103871304Y-81290367D01*
X104253556Y-81361388D01*
X104593880Y-81399537D01*
X104937752Y-81419163D01*
X105142462Y-81418134D01*
X105237332Y-81392761D01*
X105251681Y-81339353D01*
X105244786Y-81317621D01*
X105250503Y-81229511D01*
X105373749Y-81177899D01*
X105545549Y-81154738D01*
X105771470Y-81147071D01*
X105914438Y-81168179D01*
X105933137Y-81181421D01*
X106025462Y-81196239D01*
X106203984Y-81171393D01*
X106394751Y-81122231D01*
X106523809Y-81064100D01*
X106531687Y-81057201D01*
X106472825Y-81032376D01*
X106286958Y-80999904D01*
X106042102Y-80969921D01*
X105666999Y-80938913D01*
X105277053Y-80919135D01*
X105079706Y-80915333D01*
X104825000Y-80899468D01*
X104825000Y-81254000D01*
X104867333Y-81296333D01*
X104825000Y-81338666D01*
X104782666Y-81296333D01*
X104825000Y-81254000D01*
X104825000Y-80899468D01*
X104804614Y-80898198D01*
X104567414Y-80831139D01*
X104300525Y-80690676D01*
X104139626Y-80588717D01*
X103779252Y-80342365D01*
X103531234Y-80130032D01*
X103366410Y-79906373D01*
X103255617Y-79626044D01*
X103169693Y-79243701D01*
X103130148Y-79019066D01*
X103048556Y-78396840D01*
X103032517Y-77891917D01*
X103046335Y-77716329D01*
X103093421Y-77445738D01*
X103176121Y-77239969D01*
X103327955Y-77036766D01*
X103520700Y-76835236D01*
X103894355Y-76505010D01*
X104251316Y-76301263D01*
X104650837Y-76199127D01*
X105097447Y-76173527D01*
X105454763Y-76158186D01*
X105798331Y-76118850D01*
X106010333Y-76075037D01*
X106349000Y-75977018D01*
X106054758Y-75912968D01*
X105843124Y-75879714D01*
X105709505Y-75882045D01*
X105700775Y-75885839D01*
X105609561Y-75863808D01*
X105587853Y-75836714D01*
X105612076Y-75768127D01*
X105702078Y-75750666D01*
X105945276Y-75717113D01*
X106103787Y-75631440D01*
X106137333Y-75558163D01*
X106101784Y-75509396D01*
X106083390Y-75522387D01*
X105986084Y-75515123D01*
X105819219Y-75426159D01*
X105795153Y-75409498D01*
X105596694Y-75294083D01*
X105436596Y-75242821D01*
X105430760Y-75242666D01*
X105283153Y-75194110D01*
X105248333Y-75157999D01*
X105129113Y-75096850D01*
X104924719Y-75075547D01*
X104714440Y-75093609D01*
X104577565Y-75150559D01*
X104568459Y-75162111D01*
X104470921Y-75202395D01*
X104412456Y-75166954D01*
X104257081Y-75130887D01*
X104194838Y-75155009D01*
X104031661Y-75197061D01*
X103973408Y-75186727D01*
X103893666Y-75198482D01*
X103893666Y-75496666D01*
X103936000Y-75539000D01*
X103893666Y-75581333D01*
X103851333Y-75539000D01*
X103893666Y-75496666D01*
X103893666Y-75198482D01*
X103841534Y-75206168D01*
X103811713Y-75238275D01*
X103710423Y-75292972D01*
X103676149Y-75281384D01*
X103603671Y-75297427D01*
X103597333Y-75332703D01*
X103566840Y-75389668D01*
X103480220Y-75335539D01*
X103371583Y-75287576D01*
X103313544Y-75367505D01*
X103197925Y-75474046D01*
X103092727Y-75496666D01*
X102955277Y-75548321D01*
X102955277Y-75672684D01*
X103065091Y-75688250D01*
X103066402Y-75717152D01*
X102953085Y-75737364D01*
X102904125Y-75723836D01*
X102872054Y-75686242D01*
X102955277Y-75672684D01*
X102955277Y-75548321D01*
X102929083Y-75558166D01*
X102728714Y-75709198D01*
X102544177Y-75899561D01*
X102428027Y-76079053D01*
X102411999Y-76146881D01*
X102343956Y-76278032D01*
X102290346Y-76310664D01*
X102207626Y-76414248D01*
X102214737Y-76477340D01*
X102194687Y-76573238D01*
X102061225Y-76598629D01*
X101932243Y-76611835D01*
X101956741Y-76660125D01*
X101988666Y-76681999D01*
X102061734Y-76749048D01*
X102004836Y-76765370D01*
X101934690Y-76813783D01*
X101946333Y-76851333D01*
X101956543Y-76992056D01*
X101937726Y-77034592D01*
X101885374Y-77189324D01*
X101858588Y-77364590D01*
X101806746Y-77605623D01*
X101707358Y-77862645D01*
X101706224Y-77864925D01*
X101619514Y-78196749D01*
X101634285Y-78580243D01*
X101634285Y-78580243D01*
G37*
X101634285Y-78580243D02*
X101744382Y-78936355D01*
X101796836Y-79028725D01*
X101865122Y-79174754D01*
X101831166Y-79222000D01*
X101785886Y-79282877D01*
X101814928Y-79429111D01*
X101897290Y-79606102D01*
X102011970Y-79759252D01*
X102050994Y-79793500D01*
X102135433Y-79876813D01*
X102124734Y-79899333D01*
X102133866Y-79957850D01*
X102228742Y-80107670D01*
X102320218Y-80229017D01*
X102473295Y-80448285D01*
X102567254Y-80632955D01*
X102581333Y-80694683D01*
X102647922Y-80821707D01*
X102839915Y-80843111D01*
X102856500Y-80840692D01*
X102918690Y-80893593D01*
X102920000Y-80909250D01*
X102997799Y-80997593D01*
X103206740Y-81097724D01*
X103510137Y-81198897D01*
X103871304Y-81290367D01*
X104253556Y-81361388D01*
X104593880Y-81399537D01*
X104937752Y-81419163D01*
X105142462Y-81418134D01*
X105237332Y-81392761D01*
X105251681Y-81339353D01*
X105244786Y-81317621D01*
X105250503Y-81229511D01*
X105373749Y-81177899D01*
X105545549Y-81154738D01*
X105771470Y-81147071D01*
X105914438Y-81168179D01*
X105933137Y-81181421D01*
X106025462Y-81196239D01*
X106203984Y-81171393D01*
X106394751Y-81122231D01*
X106523809Y-81064100D01*
X106531687Y-81057201D01*
X106472825Y-81032376D01*
X106286958Y-80999904D01*
X106042102Y-80969921D01*
X105666999Y-80938913D01*
X105277053Y-80919135D01*
X105079706Y-80915333D01*
X104825000Y-80899468D01*
X104825000Y-81254000D01*
X104867333Y-81296333D01*
X104825000Y-81338666D01*
X104782666Y-81296333D01*
X104825000Y-81254000D01*
X104825000Y-80899468D01*
X104804614Y-80898198D01*
X104567414Y-80831139D01*
X104300525Y-80690676D01*
X104139626Y-80588717D01*
X103779252Y-80342365D01*
X103531234Y-80130032D01*
X103366410Y-79906373D01*
X103255617Y-79626044D01*
X103169693Y-79243701D01*
X103130148Y-79019066D01*
X103048556Y-78396840D01*
X103032517Y-77891917D01*
X103046335Y-77716329D01*
X103093421Y-77445738D01*
X103176121Y-77239969D01*
X103327955Y-77036766D01*
X103520700Y-76835236D01*
X103894355Y-76505010D01*
X104251316Y-76301263D01*
X104650837Y-76199127D01*
X105097447Y-76173527D01*
X105454763Y-76158186D01*
X105798331Y-76118850D01*
X106010333Y-76075037D01*
X106349000Y-75977018D01*
X106054758Y-75912968D01*
X105843124Y-75879714D01*
X105709505Y-75882045D01*
X105700775Y-75885839D01*
X105609561Y-75863808D01*
X105587853Y-75836714D01*
X105612076Y-75768127D01*
X105702078Y-75750666D01*
X105945276Y-75717113D01*
X106103787Y-75631440D01*
X106137333Y-75558163D01*
X106101784Y-75509396D01*
X106083390Y-75522387D01*
X105986084Y-75515123D01*
X105819219Y-75426159D01*
X105795153Y-75409498D01*
X105596694Y-75294083D01*
X105436596Y-75242821D01*
X105430760Y-75242666D01*
X105283153Y-75194110D01*
X105248333Y-75157999D01*
X105129113Y-75096850D01*
X104924719Y-75075547D01*
X104714440Y-75093609D01*
X104577565Y-75150559D01*
X104568459Y-75162111D01*
X104470921Y-75202395D01*
X104412456Y-75166954D01*
X104257081Y-75130887D01*
X104194838Y-75155009D01*
X104031661Y-75197061D01*
X103973408Y-75186727D01*
X103893666Y-75198482D01*
X103893666Y-75496666D01*
X103936000Y-75539000D01*
X103893666Y-75581333D01*
X103851333Y-75539000D01*
X103893666Y-75496666D01*
X103893666Y-75198482D01*
X103841534Y-75206168D01*
X103811713Y-75238275D01*
X103710423Y-75292972D01*
X103676149Y-75281384D01*
X103603671Y-75297427D01*
X103597333Y-75332703D01*
X103566840Y-75389668D01*
X103480220Y-75335539D01*
X103371583Y-75287576D01*
X103313544Y-75367505D01*
X103197925Y-75474046D01*
X103092727Y-75496666D01*
X102955277Y-75548321D01*
X102955277Y-75672684D01*
X103065091Y-75688250D01*
X103066402Y-75717152D01*
X102953085Y-75737364D01*
X102904125Y-75723836D01*
X102872054Y-75686242D01*
X102955277Y-75672684D01*
X102955277Y-75548321D01*
X102929083Y-75558166D01*
X102728714Y-75709198D01*
X102544177Y-75899561D01*
X102428027Y-76079053D01*
X102411999Y-76146881D01*
X102343956Y-76278032D01*
X102290346Y-76310664D01*
X102207626Y-76414248D01*
X102214737Y-76477340D01*
X102194687Y-76573238D01*
X102061225Y-76598629D01*
X101932243Y-76611835D01*
X101956741Y-76660125D01*
X101988666Y-76681999D01*
X102061734Y-76749048D01*
X102004836Y-76765370D01*
X101934690Y-76813783D01*
X101946333Y-76851333D01*
X101956543Y-76992056D01*
X101937726Y-77034592D01*
X101885374Y-77189324D01*
X101858588Y-77364590D01*
X101806746Y-77605623D01*
X101707358Y-77862645D01*
X101706224Y-77864925D01*
X101619514Y-78196749D01*
X101634285Y-78580243D01*
G36*
X105887664Y-78185527D02*
X105974891Y-78206000D01*
X106148148Y-78135313D01*
X106231592Y-77935777D01*
X106218341Y-77626178D01*
X106207501Y-77571000D01*
X106133963Y-77259762D01*
X106073482Y-77109073D01*
X106013373Y-77112119D01*
X106010333Y-77118413D01*
X106010333Y-77359333D01*
X106052666Y-77401666D01*
X106010333Y-77444000D01*
X105968000Y-77401666D01*
X106010333Y-77359333D01*
X106010333Y-77118413D01*
X105940947Y-77262084D01*
X105892279Y-77401666D01*
X105797367Y-77778638D01*
X105796254Y-78044065D01*
X105887664Y-78185527D01*
X105887664Y-78185527D01*
G37*
X105887664Y-78185527D02*
X105974891Y-78206000D01*
X106148148Y-78135313D01*
X106231592Y-77935777D01*
X106218341Y-77626178D01*
X106207501Y-77571000D01*
X106133963Y-77259762D01*
X106073482Y-77109073D01*
X106013373Y-77112119D01*
X106010333Y-77118413D01*
X106010333Y-77359333D01*
X106052666Y-77401666D01*
X106010333Y-77444000D01*
X105968000Y-77401666D01*
X106010333Y-77359333D01*
X106010333Y-77118413D01*
X105940947Y-77262084D01*
X105892279Y-77401666D01*
X105797367Y-77778638D01*
X105796254Y-78044065D01*
X105887664Y-78185527D01*
G36*
X105848228Y-79625917D02*
X105849761Y-79644283D01*
X105898415Y-79955042D01*
X105978717Y-80213327D01*
X106074147Y-80374980D01*
X106135237Y-80407333D01*
X106183008Y-80329718D01*
X106214048Y-80124546D01*
X106222000Y-79909203D01*
X106215835Y-79628098D01*
X106186639Y-79472984D01*
X106118363Y-79400660D01*
X106095000Y-79393898D01*
X106095000Y-79645333D01*
X106137333Y-79687666D01*
X106095000Y-79730000D01*
X106052666Y-79687666D01*
X106095000Y-79645333D01*
X106095000Y-79393898D01*
X106022765Y-79372987D01*
X105892991Y-79363973D01*
X105843916Y-79434007D01*
X105848228Y-79625917D01*
X105848228Y-79625917D01*
G37*
X105848228Y-79625917D02*
X105849761Y-79644283D01*
X105898415Y-79955042D01*
X105978717Y-80213327D01*
X106074147Y-80374980D01*
X106135237Y-80407333D01*
X106183008Y-80329718D01*
X106214048Y-80124546D01*
X106222000Y-79909203D01*
X106215835Y-79628098D01*
X106186639Y-79472984D01*
X106118363Y-79400660D01*
X106095000Y-79393898D01*
X106095000Y-79645333D01*
X106137333Y-79687666D01*
X106095000Y-79730000D01*
X106052666Y-79687666D01*
X106095000Y-79645333D01*
X106095000Y-79393898D01*
X106022765Y-79372987D01*
X105892991Y-79363973D01*
X105843916Y-79434007D01*
X105848228Y-79625917D01*
G36*
X105331105Y-80225147D02*
X105383664Y-80331835D01*
X105417666Y-80336581D01*
X105487732Y-80242690D01*
X105556915Y-80045830D01*
X105612177Y-79806601D01*
X105640477Y-79585600D01*
X105628776Y-79443427D01*
X105613994Y-79424186D01*
X105493986Y-79431649D01*
X105409880Y-79482461D01*
X105345833Y-79605629D01*
X105311689Y-79807097D01*
X105306946Y-80031919D01*
X105331105Y-80225147D01*
X105331105Y-80225147D01*
G37*
X105331105Y-80225147D02*
X105383664Y-80331835D01*
X105417666Y-80336581D01*
X105487732Y-80242690D01*
X105556915Y-80045830D01*
X105612177Y-79806601D01*
X105640477Y-79585600D01*
X105628776Y-79443427D01*
X105613994Y-79424186D01*
X105493986Y-79431649D01*
X105409880Y-79482461D01*
X105345833Y-79605629D01*
X105311689Y-79807097D01*
X105306946Y-80031919D01*
X105331105Y-80225147D01*
G36*
X105150850Y-77770192D02*
X105189549Y-77923465D01*
X105219123Y-77952000D01*
X105267277Y-78000832D01*
X105258916Y-78019542D01*
X105262421Y-78139686D01*
X105296253Y-78210042D01*
X105373609Y-78289551D01*
X105451086Y-78217473D01*
X105458703Y-78206000D01*
X105523442Y-78058089D01*
X105522700Y-77875201D01*
X105452875Y-77608608D01*
X105403926Y-77465166D01*
X105295473Y-77210144D01*
X105212222Y-77122252D01*
X105157509Y-77200705D01*
X105134670Y-77444716D01*
X105134308Y-77528666D01*
X105150850Y-77770192D01*
X105150850Y-77770192D01*
G37*
X105150850Y-77770192D02*
X105189549Y-77923465D01*
X105219123Y-77952000D01*
X105267277Y-78000832D01*
X105258916Y-78019542D01*
X105262421Y-78139686D01*
X105296253Y-78210042D01*
X105373609Y-78289551D01*
X105451086Y-78217473D01*
X105458703Y-78206000D01*
X105523442Y-78058089D01*
X105522700Y-77875201D01*
X105452875Y-77608608D01*
X105403926Y-77465166D01*
X105295473Y-77210144D01*
X105212222Y-77122252D01*
X105157509Y-77200705D01*
X105134670Y-77444716D01*
X105134308Y-77528666D01*
X105150850Y-77770192D01*
D13*
X143390000Y-106490000D02*
X143390000Y-105490000D01*
X145090000Y-105490000D02*
X145090000Y-106490000D01*
X140270000Y-109860000D02*
X139270000Y-109860000D01*
X139270000Y-108160000D02*
X140270000Y-108160000D01*
X135780000Y-107760000D02*
X135780000Y-106560000D01*
X134020000Y-106560000D02*
X134020000Y-107760000D01*
X174260000Y-116840000D02*
X174260000Y-115640000D01*
X172500000Y-115640000D02*
X172500000Y-116840000D01*
X181230000Y-116840000D02*
X181230000Y-115640000D01*
X179470000Y-115640000D02*
X179470000Y-116840000D01*
X195430000Y-103370000D02*
X195430000Y-102170000D01*
X193670000Y-102170000D02*
X193670000Y-103370000D01*
X191920000Y-103380000D02*
X191920000Y-102180000D01*
X190160000Y-102180000D02*
X190160000Y-103380000D01*
X191440000Y-115310000D02*
X191440000Y-116510000D01*
X193200000Y-116510000D02*
X193200000Y-115310000D01*
X167370000Y-103890000D02*
X167370000Y-105090000D01*
X169130000Y-105090000D02*
X169130000Y-103890000D01*
X194990000Y-113300000D02*
X194990000Y-114500000D01*
X196750000Y-114500000D02*
X196750000Y-113300000D01*
X158670000Y-118410000D02*
X158670000Y-119610000D01*
X160430000Y-119610000D02*
X160430000Y-118410000D01*
X186190000Y-95140000D02*
X187390000Y-95140000D01*
X187390000Y-93380000D02*
X186190000Y-93380000D01*
X170820000Y-92820000D02*
X169620000Y-92820000D01*
X169620000Y-94580000D02*
X170820000Y-94580000D01*
X169150000Y-97300000D02*
X169150000Y-96100000D01*
X167390000Y-96100000D02*
X167390000Y-97300000D01*
X167370000Y-99700000D02*
X167370000Y-100900000D01*
X169130000Y-100900000D02*
X169130000Y-99700000D01*
X169280000Y-108210000D02*
X169280000Y-109410000D01*
X171040000Y-109410000D02*
X171040000Y-108210000D01*
X179510000Y-102370000D02*
X179510000Y-103570000D01*
X181270000Y-103570000D02*
X181270000Y-102370000D01*
X186550000Y-102430000D02*
X186550000Y-103630000D01*
X188310000Y-103630000D02*
X188310000Y-102430000D01*
X197650000Y-114310000D02*
X197650000Y-115510000D01*
X199410000Y-115510000D02*
X199410000Y-114310000D01*
X130890000Y-96340000D02*
X129690000Y-96340000D01*
X129690000Y-98100000D02*
X130890000Y-98100000D01*
X177730000Y-86050000D02*
X177730000Y-84850000D01*
X175970000Y-84850000D02*
X175970000Y-86050000D01*
X141300000Y-80970000D02*
X141300000Y-82170000D01*
X143060000Y-82170000D02*
X143060000Y-80970000D01*
X130890000Y-106070000D02*
X129690000Y-106070000D01*
X129690000Y-107830000D02*
X130890000Y-107830000D01*
X125360000Y-96840000D02*
X124160000Y-96840000D01*
X124160000Y-98600000D02*
X125360000Y-98600000D01*
X187390000Y-95470000D02*
X186190000Y-95470000D01*
X186190000Y-97230000D02*
X187390000Y-97230000D01*
X148340000Y-80970000D02*
X148340000Y-82170000D01*
X150100000Y-82170000D02*
X150100000Y-80970000D01*
X130890000Y-101990000D02*
X129690000Y-101990000D01*
X129690000Y-103750000D02*
X130890000Y-103750000D01*
X114130000Y-98380000D02*
X115330000Y-98380000D01*
X115330000Y-96620000D02*
X114130000Y-96620000D01*
X189830000Y-84700000D02*
X189830000Y-85900000D01*
X191590000Y-85900000D02*
X191590000Y-84700000D01*
X155290000Y-80970000D02*
X155290000Y-82170000D01*
X157050000Y-82170000D02*
X157050000Y-80970000D01*
X121410000Y-81120000D02*
X121410000Y-82320000D01*
X123170000Y-82320000D02*
X123170000Y-81120000D01*
X119730000Y-98640000D02*
X120930000Y-98640000D01*
X120930000Y-96880000D02*
X119730000Y-96880000D01*
X197970000Y-85940000D02*
X197970000Y-84740000D01*
X196210000Y-84740000D02*
X196210000Y-85940000D01*
X162290000Y-80970000D02*
X162290000Y-82170000D01*
X164050000Y-82170000D02*
X164050000Y-80970000D01*
X128380000Y-81010000D02*
X128380000Y-82210000D01*
X130140000Y-82210000D02*
X130140000Y-81010000D01*
D14*
X146168000Y-91968000D02*
X145406000Y-91968000D01*
X145406000Y-91968000D02*
X145406000Y-93492000D01*
X145406000Y-93492000D02*
X146168000Y-93492000D01*
X134992000Y-90444000D02*
X134992000Y-95016000D01*
X134992000Y-95016000D02*
X146168000Y-95016000D01*
X146168000Y-95016000D02*
X146168000Y-90444000D01*
X146168000Y-90444000D02*
X134992000Y-90444000D01*
X137110000Y-104756000D02*
X142190000Y-104756000D01*
X142190000Y-104756000D02*
X142190000Y-100184000D01*
X142190000Y-100184000D02*
X137110000Y-100184000D01*
X137110000Y-100184000D02*
X137110000Y-104756000D01*
X137110000Y-103232000D02*
X137618000Y-103232000D01*
X137618000Y-103232000D02*
X137618000Y-101962000D01*
X137618000Y-101962000D02*
X137110000Y-101962000D01*
X184418000Y-107858000D02*
X183656000Y-107858000D01*
X183656000Y-107858000D02*
X183656000Y-109382000D01*
X183656000Y-109382000D02*
X184418000Y-109382000D01*
X173242000Y-106334000D02*
X173242000Y-110906000D01*
X173242000Y-110906000D02*
X184418000Y-110906000D01*
X184418000Y-110906000D02*
X184418000Y-106334000D01*
X184418000Y-106334000D02*
X173242000Y-106334000D01*
X184378000Y-92048000D02*
X183616000Y-92048000D01*
X183616000Y-92048000D02*
X183616000Y-93572000D01*
X183616000Y-93572000D02*
X184378000Y-93572000D01*
X173202000Y-90524000D02*
X173202000Y-95096000D01*
X173202000Y-95096000D02*
X184378000Y-95096000D01*
X184378000Y-95096000D02*
X184378000Y-90524000D01*
X184378000Y-90524000D02*
X173202000Y-90524000D01*
X127498000Y-91928000D02*
X126736000Y-91928000D01*
X126736000Y-91928000D02*
X126736000Y-93452000D01*
X126736000Y-93452000D02*
X127498000Y-93452000D01*
X116322000Y-90404000D02*
X116322000Y-94976000D01*
X116322000Y-94976000D02*
X127498000Y-94976000D01*
X127498000Y-94976000D02*
X127498000Y-90404000D01*
X127498000Y-90404000D02*
X116322000Y-90404000D01*
X127338000Y-106218000D02*
X126576000Y-106218000D01*
X126576000Y-106218000D02*
X126576000Y-107742000D01*
X126576000Y-107742000D02*
X127338000Y-107742000D01*
X116162000Y-104694000D02*
X116162000Y-109266000D01*
X116162000Y-109266000D02*
X127338000Y-109266000D01*
X127338000Y-109266000D02*
X127338000Y-104694000D01*
X127338000Y-104694000D02*
X116162000Y-104694000D01*
X189280000Y-90684000D02*
X189280000Y-95510000D01*
X189280000Y-95510000D02*
X199440000Y-95510000D01*
X199440000Y-95510000D02*
X199440000Y-90684000D01*
X199440000Y-90684000D02*
X189280000Y-90684000D01*
X199440000Y-92462000D02*
X198805000Y-92462000D01*
X198805000Y-92462000D02*
X198805000Y-93732000D01*
X198805000Y-93732000D02*
X199440000Y-93732000D01*
X189480000Y-105914000D02*
X189480000Y-110740000D01*
X189480000Y-110740000D02*
X199640000Y-110740000D01*
X199640000Y-110740000D02*
X199640000Y-105914000D01*
X199640000Y-105914000D02*
X189480000Y-105914000D01*
X199640000Y-107692000D02*
X199005000Y-107692000D01*
X199005000Y-107692000D02*
X199005000Y-108962000D01*
X199005000Y-108962000D02*
X199640000Y-108962000D01*
X149160000Y-90294000D02*
X149160000Y-95120000D01*
X149160000Y-95120000D02*
X159320000Y-95120000D01*
X159320000Y-95120000D02*
X159320000Y-90294000D01*
X159320000Y-90294000D02*
X149160000Y-90294000D01*
X159320000Y-92072000D02*
X158685000Y-92072000D01*
X158685000Y-92072000D02*
X158685000Y-93342000D01*
X158685000Y-93342000D02*
X159320000Y-93342000D01*
X103220000Y-90104000D02*
X103220000Y-94930000D01*
X103220000Y-94930000D02*
X113380000Y-94930000D01*
X113380000Y-94930000D02*
X113380000Y-90104000D01*
X113380000Y-90104000D02*
X103220000Y-90104000D01*
X113380000Y-91882000D02*
X112745000Y-91882000D01*
X112745000Y-91882000D02*
X112745000Y-93152000D01*
X112745000Y-93152000D02*
X113380000Y-93152000D01*
X103110000Y-104654000D02*
X103110000Y-109480000D01*
X103110000Y-109480000D02*
X113270000Y-109480000D01*
X113270000Y-109480000D02*
X113270000Y-104654000D01*
X113270000Y-104654000D02*
X103110000Y-104654000D01*
X113270000Y-106432000D02*
X112635000Y-106432000D01*
X112635000Y-106432000D02*
X112635000Y-107702000D01*
X112635000Y-107702000D02*
X113270000Y-107702000D01*
X144326666Y-108817143D02*
X144374285Y-108864762D01*
X144517142Y-108912381D01*
X144612380Y-108912381D01*
X144755238Y-108864762D01*
X144850476Y-108769524D01*
X144898095Y-108674286D01*
X144945714Y-108483810D01*
X144945714Y-108340952D01*
X144898095Y-108150476D01*
X144850476Y-108055238D01*
X144755238Y-107960000D01*
X144612380Y-107912381D01*
X144517142Y-107912381D01*
X144374285Y-107960000D01*
X144326666Y-108007619D01*
X143374285Y-108912381D02*
X143945714Y-108912381D01*
X143660000Y-108912381D02*
X143660000Y-107912381D01*
X143755238Y-108055238D01*
X143850476Y-108150476D01*
X143945714Y-108198095D01*
X139936666Y-110867143D02*
X139984285Y-110914762D01*
X140127142Y-110962381D01*
X140222380Y-110962381D01*
X140365238Y-110914762D01*
X140460476Y-110819524D01*
X140508095Y-110724286D01*
X140555714Y-110533810D01*
X140555714Y-110390952D01*
X140508095Y-110200476D01*
X140460476Y-110105238D01*
X140365238Y-110010000D01*
X140222380Y-109962381D01*
X140127142Y-109962381D01*
X139984285Y-110010000D01*
X139936666Y-110057619D01*
X139555714Y-110057619D02*
X139508095Y-110010000D01*
X139412857Y-109962381D01*
X139174761Y-109962381D01*
X139079523Y-110010000D01*
X139031904Y-110057619D01*
X138984285Y-110152857D01*
X138984285Y-110248095D01*
X139031904Y-110390952D01*
X139603333Y-110962381D01*
X138984285Y-110962381D01*
X133702381Y-106993334D02*
X133226190Y-106660000D01*
X133702381Y-106421905D02*
X132702381Y-106421905D01*
X132702381Y-106802858D01*
X132750000Y-106898096D01*
X132797619Y-106945715D01*
X132892857Y-106993334D01*
X133035714Y-106993334D01*
X133130952Y-106945715D01*
X133178571Y-106898096D01*
X133226190Y-106802858D01*
X133226190Y-106421905D01*
X133702381Y-107945715D02*
X133702381Y-107374286D01*
X133702381Y-107660000D02*
X132702381Y-107660000D01*
X132845238Y-107564762D01*
X132940476Y-107469524D01*
X132988095Y-107374286D01*
X172182381Y-116073334D02*
X171706190Y-115740000D01*
X172182381Y-115501905D02*
X171182381Y-115501905D01*
X171182381Y-115882858D01*
X171230000Y-115978096D01*
X171277619Y-116025715D01*
X171372857Y-116073334D01*
X171515714Y-116073334D01*
X171610952Y-116025715D01*
X171658571Y-115978096D01*
X171706190Y-115882858D01*
X171706190Y-115501905D01*
X171277619Y-116454286D02*
X171230000Y-116501905D01*
X171182381Y-116597143D01*
X171182381Y-116835239D01*
X171230000Y-116930477D01*
X171277619Y-116978096D01*
X171372857Y-117025715D01*
X171468095Y-117025715D01*
X171610952Y-116978096D01*
X172182381Y-116406667D01*
X172182381Y-117025715D01*
X179152381Y-116073334D02*
X178676190Y-115740000D01*
X179152381Y-115501905D02*
X178152381Y-115501905D01*
X178152381Y-115882858D01*
X178200000Y-115978096D01*
X178247619Y-116025715D01*
X178342857Y-116073334D01*
X178485714Y-116073334D01*
X178580952Y-116025715D01*
X178628571Y-115978096D01*
X178676190Y-115882858D01*
X178676190Y-115501905D01*
X178152381Y-116406667D02*
X178152381Y-117025715D01*
X178533333Y-116692381D01*
X178533333Y-116835239D01*
X178580952Y-116930477D01*
X178628571Y-116978096D01*
X178723810Y-117025715D01*
X178961905Y-117025715D01*
X179057143Y-116978096D01*
X179104762Y-116930477D01*
X179152381Y-116835239D01*
X179152381Y-116549524D01*
X179104762Y-116454286D01*
X179057143Y-116406667D01*
X193352381Y-102603334D02*
X192876190Y-102270000D01*
X193352381Y-102031905D02*
X192352381Y-102031905D01*
X192352381Y-102412858D01*
X192400000Y-102508096D01*
X192447619Y-102555715D01*
X192542857Y-102603334D01*
X192685714Y-102603334D01*
X192780952Y-102555715D01*
X192828571Y-102508096D01*
X192876190Y-102412858D01*
X192876190Y-102031905D01*
X192685714Y-103460477D02*
X193352381Y-103460477D01*
X192304762Y-103222381D02*
X193019048Y-102984286D01*
X193019048Y-103603334D01*
X189406666Y-105612381D02*
X189740000Y-105136190D01*
X189978095Y-105612381D02*
X189978095Y-104612381D01*
X189597142Y-104612381D01*
X189501904Y-104660000D01*
X189454285Y-104707619D01*
X189406666Y-104802857D01*
X189406666Y-104945714D01*
X189454285Y-105040952D01*
X189501904Y-105088571D01*
X189597142Y-105136190D01*
X189978095Y-105136190D01*
X188501904Y-104612381D02*
X188978095Y-104612381D01*
X189025714Y-105088571D01*
X188978095Y-105040952D01*
X188882857Y-104993333D01*
X188644761Y-104993333D01*
X188549523Y-105040952D01*
X188501904Y-105088571D01*
X188454285Y-105183810D01*
X188454285Y-105421905D01*
X188501904Y-105517143D01*
X188549523Y-105564762D01*
X188644761Y-105612381D01*
X188882857Y-105612381D01*
X188978095Y-105564762D01*
X189025714Y-105517143D01*
X194422381Y-115743334D02*
X193946190Y-115410000D01*
X194422381Y-115171905D02*
X193422381Y-115171905D01*
X193422381Y-115552858D01*
X193470000Y-115648096D01*
X193517619Y-115695715D01*
X193612857Y-115743334D01*
X193755714Y-115743334D01*
X193850952Y-115695715D01*
X193898571Y-115648096D01*
X193946190Y-115552858D01*
X193946190Y-115171905D01*
X193422381Y-116600477D02*
X193422381Y-116410000D01*
X193470000Y-116314762D01*
X193517619Y-116267143D01*
X193660476Y-116171905D01*
X193850952Y-116124286D01*
X194231905Y-116124286D01*
X194327143Y-116171905D01*
X194374762Y-116219524D01*
X194422381Y-116314762D01*
X194422381Y-116505239D01*
X194374762Y-116600477D01*
X194327143Y-116648096D01*
X194231905Y-116695715D01*
X193993810Y-116695715D01*
X193898571Y-116648096D01*
X193850952Y-116600477D01*
X193803333Y-116505239D01*
X193803333Y-116314762D01*
X193850952Y-116219524D01*
X193898571Y-116171905D01*
X193993810Y-116124286D01*
X170352381Y-104323334D02*
X169876190Y-103990000D01*
X170352381Y-103751905D02*
X169352381Y-103751905D01*
X169352381Y-104132858D01*
X169400000Y-104228096D01*
X169447619Y-104275715D01*
X169542857Y-104323334D01*
X169685714Y-104323334D01*
X169780952Y-104275715D01*
X169828571Y-104228096D01*
X169876190Y-104132858D01*
X169876190Y-103751905D01*
X169352381Y-104656667D02*
X169352381Y-105323334D01*
X170352381Y-104894762D01*
X198466666Y-113372381D02*
X198800000Y-112896190D01*
X199038095Y-113372381D02*
X199038095Y-112372381D01*
X198657142Y-112372381D01*
X198561904Y-112420000D01*
X198514285Y-112467619D01*
X198466666Y-112562857D01*
X198466666Y-112705714D01*
X198514285Y-112800952D01*
X198561904Y-112848571D01*
X198657142Y-112896190D01*
X199038095Y-112896190D01*
X197895238Y-112800952D02*
X197990476Y-112753333D01*
X198038095Y-112705714D01*
X198085714Y-112610476D01*
X198085714Y-112562857D01*
X198038095Y-112467619D01*
X197990476Y-112420000D01*
X197895238Y-112372381D01*
X197704761Y-112372381D01*
X197609523Y-112420000D01*
X197561904Y-112467619D01*
X197514285Y-112562857D01*
X197514285Y-112610476D01*
X197561904Y-112705714D01*
X197609523Y-112753333D01*
X197704761Y-112800952D01*
X197895238Y-112800952D01*
X197990476Y-112848571D01*
X198038095Y-112896190D01*
X198085714Y-112991429D01*
X198085714Y-113181905D01*
X198038095Y-113277143D01*
X197990476Y-113324762D01*
X197895238Y-113372381D01*
X197704761Y-113372381D01*
X197609523Y-113324762D01*
X197561904Y-113277143D01*
X197514285Y-113181905D01*
X197514285Y-112991429D01*
X197561904Y-112896190D01*
X197609523Y-112848571D01*
X197704761Y-112800952D01*
X161652381Y-118843334D02*
X161176190Y-118510000D01*
X161652381Y-118271905D02*
X160652381Y-118271905D01*
X160652381Y-118652858D01*
X160700000Y-118748096D01*
X160747619Y-118795715D01*
X160842857Y-118843334D01*
X160985714Y-118843334D01*
X161080952Y-118795715D01*
X161128571Y-118748096D01*
X161176190Y-118652858D01*
X161176190Y-118271905D01*
X161652381Y-119319524D02*
X161652381Y-119510000D01*
X161604762Y-119605239D01*
X161557143Y-119652858D01*
X161414286Y-119748096D01*
X161223810Y-119795715D01*
X160842857Y-119795715D01*
X160747619Y-119748096D01*
X160700000Y-119700477D01*
X160652381Y-119605239D01*
X160652381Y-119414762D01*
X160700000Y-119319524D01*
X160747619Y-119271905D01*
X160842857Y-119224286D01*
X161080952Y-119224286D01*
X161176190Y-119271905D01*
X161223810Y-119319524D01*
X161271429Y-119414762D01*
X161271429Y-119605239D01*
X161223810Y-119700477D01*
X161176190Y-119748096D01*
X161080952Y-119795715D01*
X187432857Y-93062381D02*
X187766191Y-92586190D01*
X188004286Y-93062381D02*
X188004286Y-92062381D01*
X187623333Y-92062381D01*
X187528095Y-92110000D01*
X187480476Y-92157619D01*
X187432857Y-92252857D01*
X187432857Y-92395714D01*
X187480476Y-92490952D01*
X187528095Y-92538571D01*
X187623333Y-92586190D01*
X188004286Y-92586190D01*
X186480476Y-93062381D02*
X187051905Y-93062381D01*
X186766191Y-93062381D02*
X186766191Y-92062381D01*
X186861429Y-92205238D01*
X186956667Y-92300476D01*
X187051905Y-92348095D01*
X185861429Y-92062381D02*
X185766190Y-92062381D01*
X185670952Y-92110000D01*
X185623333Y-92157619D01*
X185575714Y-92252857D01*
X185528095Y-92443333D01*
X185528095Y-92681429D01*
X185575714Y-92871905D01*
X185623333Y-92967143D01*
X185670952Y-93014762D01*
X185766190Y-93062381D01*
X185861429Y-93062381D01*
X185956667Y-93014762D01*
X186004286Y-92967143D01*
X186051905Y-92871905D01*
X186099524Y-92681429D01*
X186099524Y-92443333D01*
X186051905Y-92252857D01*
X186004286Y-92157619D01*
X185956667Y-92110000D01*
X185861429Y-92062381D01*
X171312857Y-96052381D02*
X171646191Y-95576190D01*
X171884286Y-96052381D02*
X171884286Y-95052381D01*
X171503333Y-95052381D01*
X171408095Y-95100000D01*
X171360476Y-95147619D01*
X171312857Y-95242857D01*
X171312857Y-95385714D01*
X171360476Y-95480952D01*
X171408095Y-95528571D01*
X171503333Y-95576190D01*
X171884286Y-95576190D01*
X170360476Y-96052381D02*
X170931905Y-96052381D01*
X170646191Y-96052381D02*
X170646191Y-95052381D01*
X170741429Y-95195238D01*
X170836667Y-95290476D01*
X170931905Y-95338095D01*
X169408095Y-96052381D02*
X169979524Y-96052381D01*
X169693810Y-96052381D02*
X169693810Y-95052381D01*
X169789048Y-95195238D01*
X169884286Y-95290476D01*
X169979524Y-95338095D01*
X167302381Y-93597143D02*
X166826190Y-93263809D01*
X167302381Y-93025714D02*
X166302381Y-93025714D01*
X166302381Y-93406667D01*
X166350000Y-93501905D01*
X166397619Y-93549524D01*
X166492857Y-93597143D01*
X166635714Y-93597143D01*
X166730952Y-93549524D01*
X166778571Y-93501905D01*
X166826190Y-93406667D01*
X166826190Y-93025714D01*
X167302381Y-94549524D02*
X167302381Y-93978095D01*
X167302381Y-94263809D02*
X166302381Y-94263809D01*
X166445238Y-94168571D01*
X166540476Y-94073333D01*
X166588095Y-93978095D01*
X166397619Y-94930476D02*
X166350000Y-94978095D01*
X166302381Y-95073333D01*
X166302381Y-95311429D01*
X166350000Y-95406667D01*
X166397619Y-95454286D01*
X166492857Y-95501905D01*
X166588095Y-95501905D01*
X166730952Y-95454286D01*
X167302381Y-94882857D01*
X167302381Y-95501905D01*
X170352381Y-99657143D02*
X169876190Y-99323809D01*
X170352381Y-99085714D02*
X169352381Y-99085714D01*
X169352381Y-99466667D01*
X169400000Y-99561905D01*
X169447619Y-99609524D01*
X169542857Y-99657143D01*
X169685714Y-99657143D01*
X169780952Y-99609524D01*
X169828571Y-99561905D01*
X169876190Y-99466667D01*
X169876190Y-99085714D01*
X170352381Y-100609524D02*
X170352381Y-100038095D01*
X170352381Y-100323809D02*
X169352381Y-100323809D01*
X169495238Y-100228571D01*
X169590476Y-100133333D01*
X169638095Y-100038095D01*
X169352381Y-100942857D02*
X169352381Y-101561905D01*
X169733333Y-101228571D01*
X169733333Y-101371429D01*
X169780952Y-101466667D01*
X169828571Y-101514286D01*
X169923810Y-101561905D01*
X170161905Y-101561905D01*
X170257143Y-101514286D01*
X170304762Y-101466667D01*
X170352381Y-101371429D01*
X170352381Y-101085714D01*
X170304762Y-100990476D01*
X170257143Y-100942857D01*
X172262381Y-108167143D02*
X171786190Y-107833809D01*
X172262381Y-107595714D02*
X171262381Y-107595714D01*
X171262381Y-107976667D01*
X171310000Y-108071905D01*
X171357619Y-108119524D01*
X171452857Y-108167143D01*
X171595714Y-108167143D01*
X171690952Y-108119524D01*
X171738571Y-108071905D01*
X171786190Y-107976667D01*
X171786190Y-107595714D01*
X172262381Y-109119524D02*
X172262381Y-108548095D01*
X172262381Y-108833809D02*
X171262381Y-108833809D01*
X171405238Y-108738571D01*
X171500476Y-108643333D01*
X171548095Y-108548095D01*
X171595714Y-109976667D02*
X172262381Y-109976667D01*
X171214762Y-109738571D02*
X171929048Y-109500476D01*
X171929048Y-110119524D01*
X182492381Y-102327143D02*
X182016190Y-101993809D01*
X182492381Y-101755714D02*
X181492381Y-101755714D01*
X181492381Y-102136667D01*
X181540000Y-102231905D01*
X181587619Y-102279524D01*
X181682857Y-102327143D01*
X181825714Y-102327143D01*
X181920952Y-102279524D01*
X181968571Y-102231905D01*
X182016190Y-102136667D01*
X182016190Y-101755714D01*
X182492381Y-103279524D02*
X182492381Y-102708095D01*
X182492381Y-102993809D02*
X181492381Y-102993809D01*
X181635238Y-102898571D01*
X181730476Y-102803333D01*
X181778095Y-102708095D01*
X181492381Y-104184286D02*
X181492381Y-103708095D01*
X181968571Y-103660476D01*
X181920952Y-103708095D01*
X181873333Y-103803333D01*
X181873333Y-104041429D01*
X181920952Y-104136667D01*
X181968571Y-104184286D01*
X182063810Y-104231905D01*
X182301905Y-104231905D01*
X182397143Y-104184286D01*
X182444762Y-104136667D01*
X182492381Y-104041429D01*
X182492381Y-103803333D01*
X182444762Y-103708095D01*
X182397143Y-103660476D01*
X189532381Y-102387143D02*
X189056190Y-102053809D01*
X189532381Y-101815714D02*
X188532381Y-101815714D01*
X188532381Y-102196667D01*
X188580000Y-102291905D01*
X188627619Y-102339524D01*
X188722857Y-102387143D01*
X188865714Y-102387143D01*
X188960952Y-102339524D01*
X189008571Y-102291905D01*
X189056190Y-102196667D01*
X189056190Y-101815714D01*
X189532381Y-103339524D02*
X189532381Y-102768095D01*
X189532381Y-103053809D02*
X188532381Y-103053809D01*
X188675238Y-102958571D01*
X188770476Y-102863333D01*
X188818095Y-102768095D01*
X188532381Y-104196667D02*
X188532381Y-104006190D01*
X188580000Y-103910952D01*
X188627619Y-103863333D01*
X188770476Y-103768095D01*
X188960952Y-103720476D01*
X189341905Y-103720476D01*
X189437143Y-103768095D01*
X189484762Y-103815714D01*
X189532381Y-103910952D01*
X189532381Y-104101429D01*
X189484762Y-104196667D01*
X189437143Y-104244286D01*
X189341905Y-104291905D01*
X189103810Y-104291905D01*
X189008571Y-104244286D01*
X188960952Y-104196667D01*
X188913333Y-104101429D01*
X188913333Y-103910952D01*
X188960952Y-103815714D01*
X189008571Y-103768095D01*
X189103810Y-103720476D01*
X199502381Y-117517143D02*
X199026190Y-117183809D01*
X199502381Y-116945714D02*
X198502381Y-116945714D01*
X198502381Y-117326667D01*
X198550000Y-117421905D01*
X198597619Y-117469524D01*
X198692857Y-117517143D01*
X198835714Y-117517143D01*
X198930952Y-117469524D01*
X198978571Y-117421905D01*
X199026190Y-117326667D01*
X199026190Y-116945714D01*
X199502381Y-118469524D02*
X199502381Y-117898095D01*
X199502381Y-118183809D02*
X198502381Y-118183809D01*
X198645238Y-118088571D01*
X198740476Y-117993333D01*
X198788095Y-117898095D01*
X198502381Y-118802857D02*
X198502381Y-119469524D01*
X199502381Y-119040952D01*
X133342857Y-99312381D02*
X133676191Y-98836190D01*
X133914286Y-99312381D02*
X133914286Y-98312381D01*
X133533333Y-98312381D01*
X133438095Y-98360000D01*
X133390476Y-98407619D01*
X133342857Y-98502857D01*
X133342857Y-98645714D01*
X133390476Y-98740952D01*
X133438095Y-98788571D01*
X133533333Y-98836190D01*
X133914286Y-98836190D01*
X132390476Y-99312381D02*
X132961905Y-99312381D01*
X132676191Y-99312381D02*
X132676191Y-98312381D01*
X132771429Y-98455238D01*
X132866667Y-98550476D01*
X132961905Y-98598095D01*
X131819048Y-98740952D02*
X131914286Y-98693333D01*
X131961905Y-98645714D01*
X132009524Y-98550476D01*
X132009524Y-98502857D01*
X131961905Y-98407619D01*
X131914286Y-98360000D01*
X131819048Y-98312381D01*
X131628571Y-98312381D01*
X131533333Y-98360000D01*
X131485714Y-98407619D01*
X131438095Y-98502857D01*
X131438095Y-98550476D01*
X131485714Y-98645714D01*
X131533333Y-98693333D01*
X131628571Y-98740952D01*
X131819048Y-98740952D01*
X131914286Y-98788571D01*
X131961905Y-98836190D01*
X132009524Y-98931429D01*
X132009524Y-99121905D01*
X131961905Y-99217143D01*
X131914286Y-99264762D01*
X131819048Y-99312381D01*
X131628571Y-99312381D01*
X131533333Y-99264762D01*
X131485714Y-99217143D01*
X131438095Y-99121905D01*
X131438095Y-98931429D01*
X131485714Y-98836190D01*
X131533333Y-98788571D01*
X131628571Y-98740952D01*
X175652381Y-84807143D02*
X175176190Y-84473809D01*
X175652381Y-84235714D02*
X174652381Y-84235714D01*
X174652381Y-84616667D01*
X174700000Y-84711905D01*
X174747619Y-84759524D01*
X174842857Y-84807143D01*
X174985714Y-84807143D01*
X175080952Y-84759524D01*
X175128571Y-84711905D01*
X175176190Y-84616667D01*
X175176190Y-84235714D01*
X175652381Y-85759524D02*
X175652381Y-85188095D01*
X175652381Y-85473809D02*
X174652381Y-85473809D01*
X174795238Y-85378571D01*
X174890476Y-85283333D01*
X174938095Y-85188095D01*
X175652381Y-86235714D02*
X175652381Y-86426190D01*
X175604762Y-86521429D01*
X175557143Y-86569048D01*
X175414286Y-86664286D01*
X175223810Y-86711905D01*
X174842857Y-86711905D01*
X174747619Y-86664286D01*
X174700000Y-86616667D01*
X174652381Y-86521429D01*
X174652381Y-86330952D01*
X174700000Y-86235714D01*
X174747619Y-86188095D01*
X174842857Y-86140476D01*
X175080952Y-86140476D01*
X175176190Y-86188095D01*
X175223810Y-86235714D01*
X175271429Y-86330952D01*
X175271429Y-86521429D01*
X175223810Y-86616667D01*
X175176190Y-86664286D01*
X175080952Y-86711905D01*
X144282381Y-80927143D02*
X143806190Y-80593809D01*
X144282381Y-80355714D02*
X143282381Y-80355714D01*
X143282381Y-80736667D01*
X143330000Y-80831905D01*
X143377619Y-80879524D01*
X143472857Y-80927143D01*
X143615714Y-80927143D01*
X143710952Y-80879524D01*
X143758571Y-80831905D01*
X143806190Y-80736667D01*
X143806190Y-80355714D01*
X143377619Y-81308095D02*
X143330000Y-81355714D01*
X143282381Y-81450952D01*
X143282381Y-81689048D01*
X143330000Y-81784286D01*
X143377619Y-81831905D01*
X143472857Y-81879524D01*
X143568095Y-81879524D01*
X143710952Y-81831905D01*
X144282381Y-81260476D01*
X144282381Y-81879524D01*
X143282381Y-82498571D02*
X143282381Y-82593810D01*
X143330000Y-82689048D01*
X143377619Y-82736667D01*
X143472857Y-82784286D01*
X143663333Y-82831905D01*
X143901429Y-82831905D01*
X144091905Y-82784286D01*
X144187143Y-82736667D01*
X144234762Y-82689048D01*
X144282381Y-82593810D01*
X144282381Y-82498571D01*
X144234762Y-82403333D01*
X144187143Y-82355714D01*
X144091905Y-82308095D01*
X143901429Y-82260476D01*
X143663333Y-82260476D01*
X143472857Y-82308095D01*
X143377619Y-82355714D01*
X143330000Y-82403333D01*
X143282381Y-82498571D01*
X130932857Y-109052381D02*
X131266191Y-108576190D01*
X131504286Y-109052381D02*
X131504286Y-108052381D01*
X131123333Y-108052381D01*
X131028095Y-108100000D01*
X130980476Y-108147619D01*
X130932857Y-108242857D01*
X130932857Y-108385714D01*
X130980476Y-108480952D01*
X131028095Y-108528571D01*
X131123333Y-108576190D01*
X131504286Y-108576190D01*
X130551905Y-108147619D02*
X130504286Y-108100000D01*
X130409048Y-108052381D01*
X130170952Y-108052381D01*
X130075714Y-108100000D01*
X130028095Y-108147619D01*
X129980476Y-108242857D01*
X129980476Y-108338095D01*
X130028095Y-108480952D01*
X130599524Y-109052381D01*
X129980476Y-109052381D01*
X129028095Y-109052381D02*
X129599524Y-109052381D01*
X129313810Y-109052381D02*
X129313810Y-108052381D01*
X129409048Y-108195238D01*
X129504286Y-108290476D01*
X129599524Y-108338095D01*
X127942381Y-97327143D02*
X127466190Y-96993809D01*
X127942381Y-96755714D02*
X126942381Y-96755714D01*
X126942381Y-97136667D01*
X126990000Y-97231905D01*
X127037619Y-97279524D01*
X127132857Y-97327143D01*
X127275714Y-97327143D01*
X127370952Y-97279524D01*
X127418571Y-97231905D01*
X127466190Y-97136667D01*
X127466190Y-96755714D01*
X127037619Y-97708095D02*
X126990000Y-97755714D01*
X126942381Y-97850952D01*
X126942381Y-98089048D01*
X126990000Y-98184286D01*
X127037619Y-98231905D01*
X127132857Y-98279524D01*
X127228095Y-98279524D01*
X127370952Y-98231905D01*
X127942381Y-97660476D01*
X127942381Y-98279524D01*
X127037619Y-98660476D02*
X126990000Y-98708095D01*
X126942381Y-98803333D01*
X126942381Y-99041429D01*
X126990000Y-99136667D01*
X127037619Y-99184286D01*
X127132857Y-99231905D01*
X127228095Y-99231905D01*
X127370952Y-99184286D01*
X127942381Y-98612857D01*
X127942381Y-99231905D01*
X187432857Y-98452381D02*
X187766191Y-97976190D01*
X188004286Y-98452381D02*
X188004286Y-97452381D01*
X187623333Y-97452381D01*
X187528095Y-97500000D01*
X187480476Y-97547619D01*
X187432857Y-97642857D01*
X187432857Y-97785714D01*
X187480476Y-97880952D01*
X187528095Y-97928571D01*
X187623333Y-97976190D01*
X188004286Y-97976190D01*
X187051905Y-97547619D02*
X187004286Y-97500000D01*
X186909048Y-97452381D01*
X186670952Y-97452381D01*
X186575714Y-97500000D01*
X186528095Y-97547619D01*
X186480476Y-97642857D01*
X186480476Y-97738095D01*
X186528095Y-97880952D01*
X187099524Y-98452381D01*
X186480476Y-98452381D01*
X186147143Y-97452381D02*
X185528095Y-97452381D01*
X185861429Y-97833333D01*
X185718571Y-97833333D01*
X185623333Y-97880952D01*
X185575714Y-97928571D01*
X185528095Y-98023810D01*
X185528095Y-98261905D01*
X185575714Y-98357143D01*
X185623333Y-98404762D01*
X185718571Y-98452381D01*
X186004286Y-98452381D01*
X186099524Y-98404762D01*
X186147143Y-98357143D01*
X151322381Y-80927143D02*
X150846190Y-80593809D01*
X151322381Y-80355714D02*
X150322381Y-80355714D01*
X150322381Y-80736667D01*
X150370000Y-80831905D01*
X150417619Y-80879524D01*
X150512857Y-80927143D01*
X150655714Y-80927143D01*
X150750952Y-80879524D01*
X150798571Y-80831905D01*
X150846190Y-80736667D01*
X150846190Y-80355714D01*
X150417619Y-81308095D02*
X150370000Y-81355714D01*
X150322381Y-81450952D01*
X150322381Y-81689048D01*
X150370000Y-81784286D01*
X150417619Y-81831905D01*
X150512857Y-81879524D01*
X150608095Y-81879524D01*
X150750952Y-81831905D01*
X151322381Y-81260476D01*
X151322381Y-81879524D01*
X150655714Y-82736667D02*
X151322381Y-82736667D01*
X150274762Y-82498571D02*
X150989048Y-82260476D01*
X150989048Y-82879524D01*
X130932857Y-104972381D02*
X131266191Y-104496190D01*
X131504286Y-104972381D02*
X131504286Y-103972381D01*
X131123333Y-103972381D01*
X131028095Y-104020000D01*
X130980476Y-104067619D01*
X130932857Y-104162857D01*
X130932857Y-104305714D01*
X130980476Y-104400952D01*
X131028095Y-104448571D01*
X131123333Y-104496190D01*
X131504286Y-104496190D01*
X130551905Y-104067619D02*
X130504286Y-104020000D01*
X130409048Y-103972381D01*
X130170952Y-103972381D01*
X130075714Y-104020000D01*
X130028095Y-104067619D01*
X129980476Y-104162857D01*
X129980476Y-104258095D01*
X130028095Y-104400952D01*
X130599524Y-104972381D01*
X129980476Y-104972381D01*
X129075714Y-103972381D02*
X129551905Y-103972381D01*
X129599524Y-104448571D01*
X129551905Y-104400952D01*
X129456667Y-104353333D01*
X129218571Y-104353333D01*
X129123333Y-104400952D01*
X129075714Y-104448571D01*
X129028095Y-104543810D01*
X129028095Y-104781905D01*
X129075714Y-104877143D01*
X129123333Y-104924762D01*
X129218571Y-104972381D01*
X129456667Y-104972381D01*
X129551905Y-104924762D01*
X129599524Y-104877143D01*
X115372857Y-96302381D02*
X115706191Y-95826190D01*
X115944286Y-96302381D02*
X115944286Y-95302381D01*
X115563333Y-95302381D01*
X115468095Y-95350000D01*
X115420476Y-95397619D01*
X115372857Y-95492857D01*
X115372857Y-95635714D01*
X115420476Y-95730952D01*
X115468095Y-95778571D01*
X115563333Y-95826190D01*
X115944286Y-95826190D01*
X114991905Y-95397619D02*
X114944286Y-95350000D01*
X114849048Y-95302381D01*
X114610952Y-95302381D01*
X114515714Y-95350000D01*
X114468095Y-95397619D01*
X114420476Y-95492857D01*
X114420476Y-95588095D01*
X114468095Y-95730952D01*
X115039524Y-96302381D01*
X114420476Y-96302381D01*
X113563333Y-95302381D02*
X113753810Y-95302381D01*
X113849048Y-95350000D01*
X113896667Y-95397619D01*
X113991905Y-95540476D01*
X114039524Y-95730952D01*
X114039524Y-96111905D01*
X113991905Y-96207143D01*
X113944286Y-96254762D01*
X113849048Y-96302381D01*
X113658571Y-96302381D01*
X113563333Y-96254762D01*
X113515714Y-96207143D01*
X113468095Y-96111905D01*
X113468095Y-95873810D01*
X113515714Y-95778571D01*
X113563333Y-95730952D01*
X113658571Y-95683333D01*
X113849048Y-95683333D01*
X113944286Y-95730952D01*
X113991905Y-95778571D01*
X114039524Y-95873810D01*
X192812381Y-84657143D02*
X192336190Y-84323809D01*
X192812381Y-84085714D02*
X191812381Y-84085714D01*
X191812381Y-84466667D01*
X191860000Y-84561905D01*
X191907619Y-84609524D01*
X192002857Y-84657143D01*
X192145714Y-84657143D01*
X192240952Y-84609524D01*
X192288571Y-84561905D01*
X192336190Y-84466667D01*
X192336190Y-84085714D01*
X191907619Y-85038095D02*
X191860000Y-85085714D01*
X191812381Y-85180952D01*
X191812381Y-85419048D01*
X191860000Y-85514286D01*
X191907619Y-85561905D01*
X192002857Y-85609524D01*
X192098095Y-85609524D01*
X192240952Y-85561905D01*
X192812381Y-84990476D01*
X192812381Y-85609524D01*
X191812381Y-85942857D02*
X191812381Y-86609524D01*
X192812381Y-86180952D01*
X158272381Y-80927143D02*
X157796190Y-80593809D01*
X158272381Y-80355714D02*
X157272381Y-80355714D01*
X157272381Y-80736667D01*
X157320000Y-80831905D01*
X157367619Y-80879524D01*
X157462857Y-80927143D01*
X157605714Y-80927143D01*
X157700952Y-80879524D01*
X157748571Y-80831905D01*
X157796190Y-80736667D01*
X157796190Y-80355714D01*
X157367619Y-81308095D02*
X157320000Y-81355714D01*
X157272381Y-81450952D01*
X157272381Y-81689048D01*
X157320000Y-81784286D01*
X157367619Y-81831905D01*
X157462857Y-81879524D01*
X157558095Y-81879524D01*
X157700952Y-81831905D01*
X158272381Y-81260476D01*
X158272381Y-81879524D01*
X157700952Y-82450952D02*
X157653333Y-82355714D01*
X157605714Y-82308095D01*
X157510476Y-82260476D01*
X157462857Y-82260476D01*
X157367619Y-82308095D01*
X157320000Y-82355714D01*
X157272381Y-82450952D01*
X157272381Y-82641429D01*
X157320000Y-82736667D01*
X157367619Y-82784286D01*
X157462857Y-82831905D01*
X157510476Y-82831905D01*
X157605714Y-82784286D01*
X157653333Y-82736667D01*
X157700952Y-82641429D01*
X157700952Y-82450952D01*
X157748571Y-82355714D01*
X157796190Y-82308095D01*
X157891429Y-82260476D01*
X158081905Y-82260476D01*
X158177143Y-82308095D01*
X158224762Y-82355714D01*
X158272381Y-82450952D01*
X158272381Y-82641429D01*
X158224762Y-82736667D01*
X158177143Y-82784286D01*
X158081905Y-82831905D01*
X157891429Y-82831905D01*
X157796190Y-82784286D01*
X157748571Y-82736667D01*
X157700952Y-82641429D01*
X124392381Y-81077143D02*
X123916190Y-80743809D01*
X124392381Y-80505714D02*
X123392381Y-80505714D01*
X123392381Y-80886667D01*
X123440000Y-80981905D01*
X123487619Y-81029524D01*
X123582857Y-81077143D01*
X123725714Y-81077143D01*
X123820952Y-81029524D01*
X123868571Y-80981905D01*
X123916190Y-80886667D01*
X123916190Y-80505714D01*
X123487619Y-81458095D02*
X123440000Y-81505714D01*
X123392381Y-81600952D01*
X123392381Y-81839048D01*
X123440000Y-81934286D01*
X123487619Y-81981905D01*
X123582857Y-82029524D01*
X123678095Y-82029524D01*
X123820952Y-81981905D01*
X124392381Y-81410476D01*
X124392381Y-82029524D01*
X124392381Y-82505714D02*
X124392381Y-82696190D01*
X124344762Y-82791429D01*
X124297143Y-82839048D01*
X124154286Y-82934286D01*
X123963810Y-82981905D01*
X123582857Y-82981905D01*
X123487619Y-82934286D01*
X123440000Y-82886667D01*
X123392381Y-82791429D01*
X123392381Y-82600952D01*
X123440000Y-82505714D01*
X123487619Y-82458095D01*
X123582857Y-82410476D01*
X123820952Y-82410476D01*
X123916190Y-82458095D01*
X123963810Y-82505714D01*
X124011429Y-82600952D01*
X124011429Y-82791429D01*
X123963810Y-82886667D01*
X123916190Y-82934286D01*
X123820952Y-82981905D01*
X117452381Y-97407143D02*
X116976190Y-97073809D01*
X117452381Y-96835714D02*
X116452381Y-96835714D01*
X116452381Y-97216667D01*
X116500000Y-97311905D01*
X116547619Y-97359524D01*
X116642857Y-97407143D01*
X116785714Y-97407143D01*
X116880952Y-97359524D01*
X116928571Y-97311905D01*
X116976190Y-97216667D01*
X116976190Y-96835714D01*
X116452381Y-97740476D02*
X116452381Y-98359524D01*
X116833333Y-98026190D01*
X116833333Y-98169048D01*
X116880952Y-98264286D01*
X116928571Y-98311905D01*
X117023810Y-98359524D01*
X117261905Y-98359524D01*
X117357143Y-98311905D01*
X117404762Y-98264286D01*
X117452381Y-98169048D01*
X117452381Y-97883333D01*
X117404762Y-97788095D01*
X117357143Y-97740476D01*
X116452381Y-98978571D02*
X116452381Y-99073810D01*
X116500000Y-99169048D01*
X116547619Y-99216667D01*
X116642857Y-99264286D01*
X116833333Y-99311905D01*
X117071429Y-99311905D01*
X117261905Y-99264286D01*
X117357143Y-99216667D01*
X117404762Y-99169048D01*
X117452381Y-99073810D01*
X117452381Y-98978571D01*
X117404762Y-98883333D01*
X117357143Y-98835714D01*
X117261905Y-98788095D01*
X117071429Y-98740476D01*
X116833333Y-98740476D01*
X116642857Y-98788095D01*
X116547619Y-98835714D01*
X116500000Y-98883333D01*
X116452381Y-98978571D01*
X195892381Y-84697143D02*
X195416190Y-84363809D01*
X195892381Y-84125714D02*
X194892381Y-84125714D01*
X194892381Y-84506667D01*
X194940000Y-84601905D01*
X194987619Y-84649524D01*
X195082857Y-84697143D01*
X195225714Y-84697143D01*
X195320952Y-84649524D01*
X195368571Y-84601905D01*
X195416190Y-84506667D01*
X195416190Y-84125714D01*
X194892381Y-85030476D02*
X194892381Y-85649524D01*
X195273333Y-85316190D01*
X195273333Y-85459048D01*
X195320952Y-85554286D01*
X195368571Y-85601905D01*
X195463810Y-85649524D01*
X195701905Y-85649524D01*
X195797143Y-85601905D01*
X195844762Y-85554286D01*
X195892381Y-85459048D01*
X195892381Y-85173333D01*
X195844762Y-85078095D01*
X195797143Y-85030476D01*
X195892381Y-86601905D02*
X195892381Y-86030476D01*
X195892381Y-86316190D02*
X194892381Y-86316190D01*
X195035238Y-86220952D01*
X195130476Y-86125714D01*
X195178095Y-86030476D01*
X165272381Y-80927143D02*
X164796190Y-80593809D01*
X165272381Y-80355714D02*
X164272381Y-80355714D01*
X164272381Y-80736667D01*
X164320000Y-80831905D01*
X164367619Y-80879524D01*
X164462857Y-80927143D01*
X164605714Y-80927143D01*
X164700952Y-80879524D01*
X164748571Y-80831905D01*
X164796190Y-80736667D01*
X164796190Y-80355714D01*
X164272381Y-81260476D02*
X164272381Y-81879524D01*
X164653333Y-81546190D01*
X164653333Y-81689048D01*
X164700952Y-81784286D01*
X164748571Y-81831905D01*
X164843810Y-81879524D01*
X165081905Y-81879524D01*
X165177143Y-81831905D01*
X165224762Y-81784286D01*
X165272381Y-81689048D01*
X165272381Y-81403333D01*
X165224762Y-81308095D01*
X165177143Y-81260476D01*
X164367619Y-82260476D02*
X164320000Y-82308095D01*
X164272381Y-82403333D01*
X164272381Y-82641429D01*
X164320000Y-82736667D01*
X164367619Y-82784286D01*
X164462857Y-82831905D01*
X164558095Y-82831905D01*
X164700952Y-82784286D01*
X165272381Y-82212857D01*
X165272381Y-82831905D01*
X131362381Y-80967143D02*
X130886190Y-80633809D01*
X131362381Y-80395714D02*
X130362381Y-80395714D01*
X130362381Y-80776667D01*
X130410000Y-80871905D01*
X130457619Y-80919524D01*
X130552857Y-80967143D01*
X130695714Y-80967143D01*
X130790952Y-80919524D01*
X130838571Y-80871905D01*
X130886190Y-80776667D01*
X130886190Y-80395714D01*
X130362381Y-81300476D02*
X130362381Y-81919524D01*
X130743333Y-81586190D01*
X130743333Y-81729048D01*
X130790952Y-81824286D01*
X130838571Y-81871905D01*
X130933810Y-81919524D01*
X131171905Y-81919524D01*
X131267143Y-81871905D01*
X131314762Y-81824286D01*
X131362381Y-81729048D01*
X131362381Y-81443333D01*
X131314762Y-81348095D01*
X131267143Y-81300476D01*
X130362381Y-82252857D02*
X130362381Y-82871905D01*
X130743333Y-82538571D01*
X130743333Y-82681429D01*
X130790952Y-82776667D01*
X130838571Y-82824286D01*
X130933810Y-82871905D01*
X131171905Y-82871905D01*
X131267143Y-82824286D01*
X131314762Y-82776667D01*
X131362381Y-82681429D01*
X131362381Y-82395714D01*
X131314762Y-82300476D01*
X131267143Y-82252857D01*
X141214905Y-90912381D02*
X141214905Y-91721905D01*
X141167286Y-91817143D01*
X141119667Y-91864762D01*
X141024429Y-91912381D01*
X140833952Y-91912381D01*
X140738714Y-91864762D01*
X140691095Y-91817143D01*
X140643476Y-91721905D01*
X140643476Y-90912381D01*
X139643476Y-91912381D02*
X140214905Y-91912381D01*
X139929191Y-91912381D02*
X139929191Y-90912381D01*
X140024429Y-91055238D01*
X140119667Y-91150476D01*
X140214905Y-91198095D01*
X140411905Y-103192381D02*
X140411905Y-104001905D01*
X140364286Y-104097143D01*
X140316667Y-104144762D01*
X140221429Y-104192381D01*
X140030952Y-104192381D01*
X139935714Y-104144762D01*
X139888095Y-104097143D01*
X139840476Y-104001905D01*
X139840476Y-103192381D01*
X139411905Y-103287619D02*
X139364286Y-103240000D01*
X139269048Y-103192381D01*
X139030952Y-103192381D01*
X138935714Y-103240000D01*
X138888095Y-103287619D01*
X138840476Y-103382857D01*
X138840476Y-103478095D01*
X138888095Y-103620952D01*
X139459524Y-104192381D01*
X138840476Y-104192381D01*
X179464905Y-106802381D02*
X179464905Y-107611905D01*
X179417286Y-107707143D01*
X179369667Y-107754762D01*
X179274429Y-107802381D01*
X179083952Y-107802381D01*
X178988714Y-107754762D01*
X178941095Y-107707143D01*
X178893476Y-107611905D01*
X178893476Y-106802381D01*
X178512524Y-106802381D02*
X177893476Y-106802381D01*
X178226810Y-107183333D01*
X178083952Y-107183333D01*
X177988714Y-107230952D01*
X177941095Y-107278571D01*
X177893476Y-107373810D01*
X177893476Y-107611905D01*
X177941095Y-107707143D01*
X177988714Y-107754762D01*
X178083952Y-107802381D01*
X178369667Y-107802381D01*
X178464905Y-107754762D01*
X178512524Y-107707143D01*
X179424905Y-90992381D02*
X179424905Y-91801905D01*
X179377286Y-91897143D01*
X179329667Y-91944762D01*
X179234429Y-91992381D01*
X179043952Y-91992381D01*
X178948714Y-91944762D01*
X178901095Y-91897143D01*
X178853476Y-91801905D01*
X178853476Y-90992381D01*
X177948714Y-91325714D02*
X177948714Y-91992381D01*
X178186810Y-90944762D02*
X178424905Y-91659048D01*
X177805857Y-91659048D01*
X122544905Y-90872381D02*
X122544905Y-91681905D01*
X122497286Y-91777143D01*
X122449667Y-91824762D01*
X122354429Y-91872381D01*
X122163952Y-91872381D01*
X122068714Y-91824762D01*
X122021095Y-91777143D01*
X121973476Y-91681905D01*
X121973476Y-90872381D01*
X121021095Y-90872381D02*
X121497286Y-90872381D01*
X121544905Y-91348571D01*
X121497286Y-91300952D01*
X121402048Y-91253333D01*
X121163952Y-91253333D01*
X121068714Y-91300952D01*
X121021095Y-91348571D01*
X120973476Y-91443810D01*
X120973476Y-91681905D01*
X121021095Y-91777143D01*
X121068714Y-91824762D01*
X121163952Y-91872381D01*
X121402048Y-91872381D01*
X121497286Y-91824762D01*
X121544905Y-91777143D01*
X122384905Y-105162381D02*
X122384905Y-105971905D01*
X122337286Y-106067143D01*
X122289667Y-106114762D01*
X122194429Y-106162381D01*
X122003952Y-106162381D01*
X121908714Y-106114762D01*
X121861095Y-106067143D01*
X121813476Y-105971905D01*
X121813476Y-105162381D01*
X120908714Y-105162381D02*
X121099191Y-105162381D01*
X121194429Y-105210000D01*
X121242048Y-105257619D01*
X121337286Y-105400476D01*
X121384905Y-105590952D01*
X121384905Y-105971905D01*
X121337286Y-106067143D01*
X121289667Y-106114762D01*
X121194429Y-106162381D01*
X121003952Y-106162381D01*
X120908714Y-106114762D01*
X120861095Y-106067143D01*
X120813476Y-105971905D01*
X120813476Y-105733810D01*
X120861095Y-105638571D01*
X120908714Y-105590952D01*
X121003952Y-105543333D01*
X121194429Y-105543333D01*
X121289667Y-105590952D01*
X121337286Y-105638571D01*
X121384905Y-105733810D01*
X195121905Y-91152381D02*
X195121905Y-91961905D01*
X195074286Y-92057143D01*
X195026667Y-92104762D01*
X194931429Y-92152381D01*
X194740952Y-92152381D01*
X194645714Y-92104762D01*
X194598095Y-92057143D01*
X194550476Y-91961905D01*
X194550476Y-91152381D01*
X194169524Y-91152381D02*
X193502857Y-91152381D01*
X193931429Y-92152381D01*
X195321905Y-106382381D02*
X195321905Y-107191905D01*
X195274286Y-107287143D01*
X195226667Y-107334762D01*
X195131429Y-107382381D01*
X194940952Y-107382381D01*
X194845714Y-107334762D01*
X194798095Y-107287143D01*
X194750476Y-107191905D01*
X194750476Y-106382381D01*
X194131429Y-106810952D02*
X194226667Y-106763333D01*
X194274286Y-106715714D01*
X194321905Y-106620476D01*
X194321905Y-106572857D01*
X194274286Y-106477619D01*
X194226667Y-106430000D01*
X194131429Y-106382381D01*
X193940952Y-106382381D01*
X193845714Y-106430000D01*
X193798095Y-106477619D01*
X193750476Y-106572857D01*
X193750476Y-106620476D01*
X193798095Y-106715714D01*
X193845714Y-106763333D01*
X193940952Y-106810952D01*
X194131429Y-106810952D01*
X194226667Y-106858571D01*
X194274286Y-106906190D01*
X194321905Y-107001429D01*
X194321905Y-107191905D01*
X194274286Y-107287143D01*
X194226667Y-107334762D01*
X194131429Y-107382381D01*
X193940952Y-107382381D01*
X193845714Y-107334762D01*
X193798095Y-107287143D01*
X193750476Y-107191905D01*
X193750476Y-107001429D01*
X193798095Y-106906190D01*
X193845714Y-106858571D01*
X193940952Y-106810952D01*
X155001905Y-90762381D02*
X155001905Y-91571905D01*
X154954286Y-91667143D01*
X154906667Y-91714762D01*
X154811429Y-91762381D01*
X154620952Y-91762381D01*
X154525714Y-91714762D01*
X154478095Y-91667143D01*
X154430476Y-91571905D01*
X154430476Y-90762381D01*
X153906667Y-91762381D02*
X153716191Y-91762381D01*
X153620952Y-91714762D01*
X153573333Y-91667143D01*
X153478095Y-91524286D01*
X153430476Y-91333810D01*
X153430476Y-90952857D01*
X153478095Y-90857619D01*
X153525714Y-90810000D01*
X153620952Y-90762381D01*
X153811429Y-90762381D01*
X153906667Y-90810000D01*
X153954286Y-90857619D01*
X154001905Y-90952857D01*
X154001905Y-91190952D01*
X153954286Y-91286190D01*
X153906667Y-91333810D01*
X153811429Y-91381429D01*
X153620952Y-91381429D01*
X153525714Y-91333810D01*
X153478095Y-91286190D01*
X153430476Y-91190952D01*
X109538095Y-90572381D02*
X109538095Y-91381905D01*
X109490476Y-91477143D01*
X109442857Y-91524762D01*
X109347619Y-91572381D01*
X109157142Y-91572381D01*
X109061904Y-91524762D01*
X109014285Y-91477143D01*
X108966666Y-91381905D01*
X108966666Y-90572381D01*
X107966666Y-91572381D02*
X108538095Y-91572381D01*
X108252381Y-91572381D02*
X108252381Y-90572381D01*
X108347619Y-90715238D01*
X108442857Y-90810476D01*
X108538095Y-90858095D01*
X107347619Y-90572381D02*
X107252380Y-90572381D01*
X107157142Y-90620000D01*
X107109523Y-90667619D01*
X107061904Y-90762857D01*
X107014285Y-90953333D01*
X107014285Y-91191429D01*
X107061904Y-91381905D01*
X107109523Y-91477143D01*
X107157142Y-91524762D01*
X107252380Y-91572381D01*
X107347619Y-91572381D01*
X107442857Y-91524762D01*
X107490476Y-91477143D01*
X107538095Y-91381905D01*
X107585714Y-91191429D01*
X107585714Y-90953333D01*
X107538095Y-90762857D01*
X107490476Y-90667619D01*
X107442857Y-90620000D01*
X107347619Y-90572381D01*
X109428095Y-105122381D02*
X109428095Y-105931905D01*
X109380476Y-106027143D01*
X109332857Y-106074762D01*
X109237619Y-106122381D01*
X109047142Y-106122381D01*
X108951904Y-106074762D01*
X108904285Y-106027143D01*
X108856666Y-105931905D01*
X108856666Y-105122381D01*
X107856666Y-106122381D02*
X108428095Y-106122381D01*
X108142381Y-106122381D02*
X108142381Y-105122381D01*
X108237619Y-105265238D01*
X108332857Y-105360476D01*
X108428095Y-105408095D01*
X106904285Y-106122381D02*
X107475714Y-106122381D01*
X107190000Y-106122381D02*
X107190000Y-105122381D01*
X107285238Y-105265238D01*
X107380476Y-105360476D01*
X107475714Y-105408095D01*
M02*
