G04 #@! TF.FileFunction,Legend,Top*
%FSLAX46Y46*%
G04 Gerber Fmt 4.6, Leading zero omitted, Abs format (unit mm)*
G04 Created by KiCad (PCBNEW 4.0.6) date Tue Oct  9 15:10:24 2018*
%MOMM*%
%LPD*%
G01*
G04 APERTURE LIST*
%ADD10C,0.100000*%
%ADD11C,0.125000*%
%ADD12C,0.010000*%
%ADD13C,0.150000*%
%ADD14C,0.120000*%
G04 APERTURE END LIST*
D10*
D11*
X156147143Y-106552381D02*
X156147143Y-105552381D01*
X156385238Y-105552381D01*
X156528096Y-105600000D01*
X156623334Y-105695238D01*
X156670953Y-105790476D01*
X156718572Y-105980952D01*
X156718572Y-106123810D01*
X156670953Y-106314286D01*
X156623334Y-106409524D01*
X156528096Y-106504762D01*
X156385238Y-106552381D01*
X156147143Y-106552381D01*
X157051905Y-105552381D02*
X157718572Y-105552381D01*
X157290000Y-106552381D01*
X158670953Y-106457143D02*
X158623334Y-106504762D01*
X158480477Y-106552381D01*
X158385239Y-106552381D01*
X158242381Y-106504762D01*
X158147143Y-106409524D01*
X158099524Y-106314286D01*
X158051905Y-106123810D01*
X158051905Y-105980952D01*
X158099524Y-105790476D01*
X158147143Y-105695238D01*
X158242381Y-105600000D01*
X158385239Y-105552381D01*
X158480477Y-105552381D01*
X158623334Y-105600000D01*
X158670953Y-105647619D01*
X159575715Y-106552381D02*
X159099524Y-106552381D01*
X159099524Y-105552381D01*
X160480477Y-106552381D02*
X160147143Y-106076190D01*
X159909048Y-106552381D02*
X159909048Y-105552381D01*
X160290001Y-105552381D01*
X160385239Y-105600000D01*
X160432858Y-105647619D01*
X160480477Y-105742857D01*
X160480477Y-105885714D01*
X160432858Y-105980952D01*
X160385239Y-106028571D01*
X160290001Y-106076190D01*
X159909048Y-106076190D01*
X156155714Y-104122381D02*
X156155714Y-103122381D01*
X156727143Y-104122381D01*
X156727143Y-103122381D01*
X157393809Y-103122381D02*
X157584286Y-103122381D01*
X157679524Y-103170000D01*
X157774762Y-103265238D01*
X157822381Y-103455714D01*
X157822381Y-103789048D01*
X157774762Y-103979524D01*
X157679524Y-104074762D01*
X157584286Y-104122381D01*
X157393809Y-104122381D01*
X157298571Y-104074762D01*
X157203333Y-103979524D01*
X157155714Y-103789048D01*
X157155714Y-103455714D01*
X157203333Y-103265238D01*
X157298571Y-103170000D01*
X157393809Y-103122381D01*
X158822381Y-104027143D02*
X158774762Y-104074762D01*
X158631905Y-104122381D01*
X158536667Y-104122381D01*
X158393809Y-104074762D01*
X158298571Y-103979524D01*
X158250952Y-103884286D01*
X158203333Y-103693810D01*
X158203333Y-103550952D01*
X158250952Y-103360476D01*
X158298571Y-103265238D01*
X158393809Y-103170000D01*
X158536667Y-103122381D01*
X158631905Y-103122381D01*
X158774762Y-103170000D01*
X158822381Y-103217619D01*
X159727143Y-104122381D02*
X159250952Y-104122381D01*
X159250952Y-103122381D01*
X160631905Y-104122381D02*
X160298571Y-103646190D01*
X160060476Y-104122381D02*
X160060476Y-103122381D01*
X160441429Y-103122381D01*
X160536667Y-103170000D01*
X160584286Y-103217619D01*
X160631905Y-103312857D01*
X160631905Y-103455714D01*
X160584286Y-103550952D01*
X160536667Y-103598571D01*
X160441429Y-103646190D01*
X160060476Y-103646190D01*
X156016667Y-98252381D02*
X156588096Y-98252381D01*
X156302381Y-99252381D02*
X156302381Y-98252381D01*
X156921429Y-98252381D02*
X156921429Y-99061905D01*
X156969048Y-99157143D01*
X157016667Y-99204762D01*
X157111905Y-99252381D01*
X157302382Y-99252381D01*
X157397620Y-99204762D01*
X157445239Y-99157143D01*
X157492858Y-99061905D01*
X157492858Y-98252381D01*
X158540477Y-99252381D02*
X158207143Y-98776190D01*
X157969048Y-99252381D02*
X157969048Y-98252381D01*
X158350001Y-98252381D01*
X158445239Y-98300000D01*
X158492858Y-98347619D01*
X158540477Y-98442857D01*
X158540477Y-98585714D01*
X158492858Y-98680952D01*
X158445239Y-98728571D01*
X158350001Y-98776190D01*
X157969048Y-98776190D01*
X159302382Y-98728571D02*
X159445239Y-98776190D01*
X159492858Y-98823810D01*
X159540477Y-98919048D01*
X159540477Y-99061905D01*
X159492858Y-99157143D01*
X159445239Y-99204762D01*
X159350001Y-99252381D01*
X158969048Y-99252381D01*
X158969048Y-98252381D01*
X159302382Y-98252381D01*
X159397620Y-98300000D01*
X159445239Y-98347619D01*
X159492858Y-98442857D01*
X159492858Y-98538095D01*
X159445239Y-98633333D01*
X159397620Y-98680952D01*
X159302382Y-98728571D01*
X158969048Y-98728571D01*
X160159524Y-98252381D02*
X160350001Y-98252381D01*
X160445239Y-98300000D01*
X160540477Y-98395238D01*
X160588096Y-98585714D01*
X160588096Y-98919048D01*
X160540477Y-99109524D01*
X160445239Y-99204762D01*
X160350001Y-99252381D01*
X160159524Y-99252381D01*
X160064286Y-99204762D01*
X159969048Y-99109524D01*
X159921429Y-98919048D01*
X159921429Y-98585714D01*
X159969048Y-98395238D01*
X160064286Y-98300000D01*
X160159524Y-98252381D01*
X155695238Y-96584762D02*
X155838095Y-96632381D01*
X156076191Y-96632381D01*
X156171429Y-96584762D01*
X156219048Y-96537143D01*
X156266667Y-96441905D01*
X156266667Y-96346667D01*
X156219048Y-96251429D01*
X156171429Y-96203810D01*
X156076191Y-96156190D01*
X155885714Y-96108571D01*
X155790476Y-96060952D01*
X155742857Y-96013333D01*
X155695238Y-95918095D01*
X155695238Y-95822857D01*
X155742857Y-95727619D01*
X155790476Y-95680000D01*
X155885714Y-95632381D01*
X156123810Y-95632381D01*
X156266667Y-95680000D01*
X156695238Y-96632381D02*
X156695238Y-95632381D01*
X157171428Y-96632381D02*
X157171428Y-95632381D01*
X157742857Y-96632381D01*
X157742857Y-95632381D01*
X158742857Y-95680000D02*
X158647619Y-95632381D01*
X158504762Y-95632381D01*
X158361904Y-95680000D01*
X158266666Y-95775238D01*
X158219047Y-95870476D01*
X158171428Y-96060952D01*
X158171428Y-96203810D01*
X158219047Y-96394286D01*
X158266666Y-96489524D01*
X158361904Y-96584762D01*
X158504762Y-96632381D01*
X158600000Y-96632381D01*
X158742857Y-96584762D01*
X158790476Y-96537143D01*
X158790476Y-96203810D01*
X158600000Y-96203810D01*
X159695238Y-96632381D02*
X159219047Y-96632381D01*
X159219047Y-95632381D01*
X160028571Y-96108571D02*
X160361905Y-96108571D01*
X160504762Y-96632381D02*
X160028571Y-96632381D01*
X160028571Y-95632381D01*
X160504762Y-95632381D01*
D12*
G36*
X107027154Y-125885398D02*
X107194231Y-125920161D01*
X107198632Y-125921221D01*
X107413951Y-126021518D01*
X107647749Y-126199011D01*
X107715752Y-126266236D01*
X107898220Y-126437544D01*
X108049847Y-126538877D01*
X108092519Y-126550667D01*
X108159517Y-126526171D01*
X108102266Y-126449067D01*
X108037847Y-126304015D01*
X108004657Y-126070648D01*
X108003359Y-126004567D01*
X108010320Y-125795180D01*
X108037586Y-125731162D01*
X108101566Y-125788593D01*
X108128029Y-125822830D01*
X108225637Y-125927850D01*
X108281837Y-125895584D01*
X108300149Y-125853324D01*
X108353835Y-125783726D01*
X108447524Y-125827029D01*
X108552630Y-125924995D01*
X108776532Y-126094330D01*
X108968321Y-126110595D01*
X109060955Y-126062537D01*
X109171843Y-125945389D01*
X109300862Y-125762572D01*
X109409610Y-125575250D01*
X109459688Y-125444583D01*
X109458828Y-125428834D01*
X109509183Y-125372936D01*
X109567000Y-125365334D01*
X109672751Y-125307735D01*
X109683827Y-125185333D01*
X109600228Y-125073718D01*
X109567000Y-125057285D01*
X109459917Y-124941823D01*
X109440000Y-124848275D01*
X109404682Y-124715661D01*
X109359757Y-124688000D01*
X109310514Y-124764411D01*
X109270091Y-124960669D01*
X109253924Y-125132500D01*
X109229563Y-125395565D01*
X109183985Y-125529566D01*
X109099547Y-125574732D01*
X109059000Y-125577000D01*
X108964990Y-125557143D01*
X108909705Y-125472528D01*
X108879446Y-125285590D01*
X108864338Y-125043167D01*
X108855829Y-124752175D01*
X108871088Y-124594607D01*
X108918709Y-124535233D01*
X108988269Y-124535167D01*
X109119860Y-124494872D01*
X109174085Y-124358116D01*
X109134094Y-124186589D01*
X109097957Y-124133600D01*
X108923609Y-124005781D01*
X108757136Y-124032654D01*
X108610471Y-124199629D01*
X108495547Y-124492112D01*
X108424296Y-124895512D01*
X108418086Y-124965015D01*
X108369840Y-125577000D01*
X108354586Y-124923491D01*
X108341605Y-124591061D01*
X108317375Y-124399008D01*
X108275099Y-124318436D01*
X108212333Y-124318716D01*
X108134147Y-124404252D01*
X108094259Y-124604051D01*
X108085333Y-124866392D01*
X108076027Y-125155440D01*
X108042083Y-125309858D01*
X107974462Y-125363629D01*
X107952627Y-125365334D01*
X107861387Y-125410092D01*
X107877031Y-125545270D01*
X107895854Y-125670372D01*
X107836695Y-125664981D01*
X107696885Y-125660087D01*
X107623495Y-125700823D01*
X107500209Y-125749398D01*
X107452874Y-125708112D01*
X107466776Y-125629865D01*
X107515696Y-125619334D01*
X107639024Y-125550919D01*
X107725723Y-125428834D01*
X107792133Y-125232674D01*
X107806977Y-125060376D01*
X107768342Y-124969546D01*
X107741022Y-124967871D01*
X107669191Y-124920388D01*
X107663266Y-124899667D01*
X107599070Y-124762374D01*
X107562844Y-124712876D01*
X107510053Y-124573506D01*
X107570037Y-124490041D01*
X107697037Y-124514649D01*
X107721033Y-124532527D01*
X107838544Y-124589476D01*
X107944387Y-124508618D01*
X107967495Y-124478122D01*
X108062554Y-124286934D01*
X108085333Y-124168025D01*
X108139638Y-124003310D01*
X108191166Y-123951374D01*
X108281821Y-123834907D01*
X108306421Y-123690944D01*
X108258196Y-123594599D01*
X108224092Y-123586037D01*
X108190763Y-123554350D01*
X108242241Y-123512138D01*
X108302648Y-123393083D01*
X108252319Y-123223677D01*
X108122697Y-123045544D01*
X107945222Y-122900308D01*
X107751336Y-122829596D01*
X107725500Y-122828027D01*
X107599724Y-122789439D01*
X107577333Y-122748594D01*
X107644171Y-122703439D01*
X107734990Y-122713082D01*
X107892685Y-122689152D01*
X107943934Y-122620659D01*
X108027561Y-122533541D01*
X108210016Y-122519092D01*
X108315444Y-122530613D01*
X108569746Y-122539396D01*
X108909634Y-122518451D01*
X109209112Y-122480131D01*
X109900956Y-122442993D01*
X110545248Y-122568019D01*
X111147547Y-122856716D01*
X111472000Y-123093268D01*
X111759756Y-123337534D01*
X111944197Y-123519615D01*
X112057004Y-123679551D01*
X112129858Y-123857377D01*
X112160682Y-123963581D01*
X112254561Y-124280263D01*
X112360047Y-124596485D01*
X112370829Y-124626214D01*
X112466677Y-125093857D01*
X112443229Y-125659846D01*
X112408982Y-125873334D01*
X112262713Y-126356168D01*
X112030939Y-126720616D01*
X111824620Y-126893226D01*
X111647524Y-127040347D01*
X111558985Y-127191131D01*
X111556666Y-127213166D01*
X111486560Y-127360709D01*
X111341078Y-127468382D01*
X111146459Y-127612207D01*
X110981260Y-127820076D01*
X110981245Y-127820104D01*
X110858318Y-127991387D01*
X110749679Y-128073024D01*
X110740225Y-128074132D01*
X110625528Y-128141782D01*
X110600963Y-128185385D01*
X110492396Y-128259598D01*
X110260311Y-128308257D01*
X110149376Y-128317280D01*
X109901619Y-128342564D01*
X109732894Y-128382967D01*
X109695971Y-128406236D01*
X109586302Y-128451054D01*
X109485215Y-128448483D01*
X109292826Y-128469373D01*
X109210048Y-128513175D01*
X109068892Y-128555351D01*
X108986454Y-128508060D01*
X108823089Y-128454366D01*
X108616341Y-128463766D01*
X108402970Y-128468355D01*
X108171055Y-128379884D01*
X107996467Y-128273573D01*
X107631828Y-128032334D01*
X107857997Y-127952695D01*
X108044024Y-127835181D01*
X108137097Y-127698695D01*
X108231904Y-127490752D01*
X108295642Y-127397334D01*
X108396648Y-127217366D01*
X108454087Y-127047410D01*
X108467839Y-126886413D01*
X108383876Y-126786305D01*
X108232625Y-126716379D01*
X107971293Y-126588304D01*
X107706627Y-126423039D01*
X107688815Y-126410136D01*
X107498125Y-126283209D01*
X107361226Y-126215478D01*
X107342104Y-126212000D01*
X107233892Y-126155125D01*
X107105921Y-126036319D01*
X107004347Y-125915887D01*
X107027154Y-125885398D01*
X107027154Y-125885398D01*
G37*
X107027154Y-125885398D02*
X107194231Y-125920161D01*
X107198632Y-125921221D01*
X107413951Y-126021518D01*
X107647749Y-126199011D01*
X107715752Y-126266236D01*
X107898220Y-126437544D01*
X108049847Y-126538877D01*
X108092519Y-126550667D01*
X108159517Y-126526171D01*
X108102266Y-126449067D01*
X108037847Y-126304015D01*
X108004657Y-126070648D01*
X108003359Y-126004567D01*
X108010320Y-125795180D01*
X108037586Y-125731162D01*
X108101566Y-125788593D01*
X108128029Y-125822830D01*
X108225637Y-125927850D01*
X108281837Y-125895584D01*
X108300149Y-125853324D01*
X108353835Y-125783726D01*
X108447524Y-125827029D01*
X108552630Y-125924995D01*
X108776532Y-126094330D01*
X108968321Y-126110595D01*
X109060955Y-126062537D01*
X109171843Y-125945389D01*
X109300862Y-125762572D01*
X109409610Y-125575250D01*
X109459688Y-125444583D01*
X109458828Y-125428834D01*
X109509183Y-125372936D01*
X109567000Y-125365334D01*
X109672751Y-125307735D01*
X109683827Y-125185333D01*
X109600228Y-125073718D01*
X109567000Y-125057285D01*
X109459917Y-124941823D01*
X109440000Y-124848275D01*
X109404682Y-124715661D01*
X109359757Y-124688000D01*
X109310514Y-124764411D01*
X109270091Y-124960669D01*
X109253924Y-125132500D01*
X109229563Y-125395565D01*
X109183985Y-125529566D01*
X109099547Y-125574732D01*
X109059000Y-125577000D01*
X108964990Y-125557143D01*
X108909705Y-125472528D01*
X108879446Y-125285590D01*
X108864338Y-125043167D01*
X108855829Y-124752175D01*
X108871088Y-124594607D01*
X108918709Y-124535233D01*
X108988269Y-124535167D01*
X109119860Y-124494872D01*
X109174085Y-124358116D01*
X109134094Y-124186589D01*
X109097957Y-124133600D01*
X108923609Y-124005781D01*
X108757136Y-124032654D01*
X108610471Y-124199629D01*
X108495547Y-124492112D01*
X108424296Y-124895512D01*
X108418086Y-124965015D01*
X108369840Y-125577000D01*
X108354586Y-124923491D01*
X108341605Y-124591061D01*
X108317375Y-124399008D01*
X108275099Y-124318436D01*
X108212333Y-124318716D01*
X108134147Y-124404252D01*
X108094259Y-124604051D01*
X108085333Y-124866392D01*
X108076027Y-125155440D01*
X108042083Y-125309858D01*
X107974462Y-125363629D01*
X107952627Y-125365334D01*
X107861387Y-125410092D01*
X107877031Y-125545270D01*
X107895854Y-125670372D01*
X107836695Y-125664981D01*
X107696885Y-125660087D01*
X107623495Y-125700823D01*
X107500209Y-125749398D01*
X107452874Y-125708112D01*
X107466776Y-125629865D01*
X107515696Y-125619334D01*
X107639024Y-125550919D01*
X107725723Y-125428834D01*
X107792133Y-125232674D01*
X107806977Y-125060376D01*
X107768342Y-124969546D01*
X107741022Y-124967871D01*
X107669191Y-124920388D01*
X107663266Y-124899667D01*
X107599070Y-124762374D01*
X107562844Y-124712876D01*
X107510053Y-124573506D01*
X107570037Y-124490041D01*
X107697037Y-124514649D01*
X107721033Y-124532527D01*
X107838544Y-124589476D01*
X107944387Y-124508618D01*
X107967495Y-124478122D01*
X108062554Y-124286934D01*
X108085333Y-124168025D01*
X108139638Y-124003310D01*
X108191166Y-123951374D01*
X108281821Y-123834907D01*
X108306421Y-123690944D01*
X108258196Y-123594599D01*
X108224092Y-123586037D01*
X108190763Y-123554350D01*
X108242241Y-123512138D01*
X108302648Y-123393083D01*
X108252319Y-123223677D01*
X108122697Y-123045544D01*
X107945222Y-122900308D01*
X107751336Y-122829596D01*
X107725500Y-122828027D01*
X107599724Y-122789439D01*
X107577333Y-122748594D01*
X107644171Y-122703439D01*
X107734990Y-122713082D01*
X107892685Y-122689152D01*
X107943934Y-122620659D01*
X108027561Y-122533541D01*
X108210016Y-122519092D01*
X108315444Y-122530613D01*
X108569746Y-122539396D01*
X108909634Y-122518451D01*
X109209112Y-122480131D01*
X109900956Y-122442993D01*
X110545248Y-122568019D01*
X111147547Y-122856716D01*
X111472000Y-123093268D01*
X111759756Y-123337534D01*
X111944197Y-123519615D01*
X112057004Y-123679551D01*
X112129858Y-123857377D01*
X112160682Y-123963581D01*
X112254561Y-124280263D01*
X112360047Y-124596485D01*
X112370829Y-124626214D01*
X112466677Y-125093857D01*
X112443229Y-125659846D01*
X112408982Y-125873334D01*
X112262713Y-126356168D01*
X112030939Y-126720616D01*
X111824620Y-126893226D01*
X111647524Y-127040347D01*
X111558985Y-127191131D01*
X111556666Y-127213166D01*
X111486560Y-127360709D01*
X111341078Y-127468382D01*
X111146459Y-127612207D01*
X110981260Y-127820076D01*
X110981245Y-127820104D01*
X110858318Y-127991387D01*
X110749679Y-128073024D01*
X110740225Y-128074132D01*
X110625528Y-128141782D01*
X110600963Y-128185385D01*
X110492396Y-128259598D01*
X110260311Y-128308257D01*
X110149376Y-128317280D01*
X109901619Y-128342564D01*
X109732894Y-128382967D01*
X109695971Y-128406236D01*
X109586302Y-128451054D01*
X109485215Y-128448483D01*
X109292826Y-128469373D01*
X109210048Y-128513175D01*
X109068892Y-128555351D01*
X108986454Y-128508060D01*
X108823089Y-128454366D01*
X108616341Y-128463766D01*
X108402970Y-128468355D01*
X108171055Y-128379884D01*
X107996467Y-128273573D01*
X107631828Y-128032334D01*
X107857997Y-127952695D01*
X108044024Y-127835181D01*
X108137097Y-127698695D01*
X108231904Y-127490752D01*
X108295642Y-127397334D01*
X108396648Y-127217366D01*
X108454087Y-127047410D01*
X108467839Y-126886413D01*
X108383876Y-126786305D01*
X108232625Y-126716379D01*
X107971293Y-126588304D01*
X107706627Y-126423039D01*
X107688815Y-126410136D01*
X107498125Y-126283209D01*
X107361226Y-126215478D01*
X107342104Y-126212000D01*
X107233892Y-126155125D01*
X107105921Y-126036319D01*
X107004347Y-125915887D01*
X107027154Y-125885398D01*
G36*
X107384915Y-124192418D02*
X107445336Y-124180000D01*
X107567665Y-124207903D01*
X107530994Y-124281215D01*
X107498516Y-124303385D01*
X107389777Y-124292767D01*
X107366520Y-124266048D01*
X107384915Y-124192418D01*
X107384915Y-124192418D01*
G37*
X107384915Y-124192418D02*
X107445336Y-124180000D01*
X107567665Y-124207903D01*
X107530994Y-124281215D01*
X107498516Y-124303385D01*
X107389777Y-124292767D01*
X107366520Y-124266048D01*
X107384915Y-124192418D01*
G36*
X106874509Y-122757699D02*
X107020128Y-122692493D01*
X107020952Y-122692286D01*
X107217813Y-122677200D01*
X107335461Y-122718929D01*
X107337246Y-122795202D01*
X107181096Y-122850150D01*
X106981017Y-122862182D01*
X106870147Y-122822813D01*
X106874509Y-122757699D01*
X106874509Y-122757699D01*
G37*
X106874509Y-122757699D02*
X107020128Y-122692493D01*
X107020952Y-122692286D01*
X107217813Y-122677200D01*
X107335461Y-122718929D01*
X107337246Y-122795202D01*
X107181096Y-122850150D01*
X106981017Y-122862182D01*
X106870147Y-122822813D01*
X106874509Y-122757699D01*
G36*
X101804285Y-125329757D02*
X101914382Y-124973645D01*
X101966836Y-124881275D01*
X102035122Y-124735246D01*
X102001166Y-124688000D01*
X101955886Y-124627123D01*
X101984928Y-124480889D01*
X102067290Y-124303898D01*
X102181970Y-124150748D01*
X102220994Y-124116500D01*
X102305433Y-124033187D01*
X102294734Y-124010667D01*
X102303866Y-123952150D01*
X102398742Y-123802330D01*
X102490218Y-123680983D01*
X102643295Y-123461715D01*
X102737254Y-123277045D01*
X102751333Y-123215317D01*
X102817922Y-123088293D01*
X103009915Y-123066889D01*
X103026500Y-123069308D01*
X103088690Y-123016407D01*
X103090000Y-123000750D01*
X103167799Y-122912407D01*
X103376740Y-122812276D01*
X103680137Y-122711103D01*
X104041304Y-122619633D01*
X104423556Y-122548612D01*
X104763880Y-122510463D01*
X105107752Y-122490837D01*
X105312462Y-122491866D01*
X105407332Y-122517239D01*
X105421681Y-122570647D01*
X105414786Y-122592379D01*
X105420503Y-122680489D01*
X105543749Y-122732101D01*
X105715549Y-122755262D01*
X105941470Y-122762929D01*
X106084438Y-122741821D01*
X106103137Y-122728579D01*
X106195462Y-122713761D01*
X106373984Y-122738607D01*
X106564751Y-122787769D01*
X106693809Y-122845900D01*
X106701687Y-122852799D01*
X106642825Y-122877624D01*
X106456958Y-122910096D01*
X106212102Y-122940079D01*
X105836999Y-122971087D01*
X105447053Y-122990865D01*
X105249706Y-122994667D01*
X104995000Y-123010532D01*
X104995000Y-122656000D01*
X105037333Y-122613667D01*
X104995000Y-122571334D01*
X104952666Y-122613667D01*
X104995000Y-122656000D01*
X104995000Y-123010532D01*
X104974614Y-123011802D01*
X104737414Y-123078861D01*
X104470525Y-123219324D01*
X104309626Y-123321283D01*
X103949252Y-123567635D01*
X103701234Y-123779968D01*
X103536410Y-124003627D01*
X103425617Y-124283956D01*
X103339693Y-124666299D01*
X103300148Y-124890934D01*
X103218556Y-125513160D01*
X103202517Y-126018083D01*
X103216335Y-126193671D01*
X103263421Y-126464262D01*
X103346121Y-126670031D01*
X103497955Y-126873234D01*
X103690700Y-127074764D01*
X104064355Y-127404990D01*
X104421316Y-127608737D01*
X104820837Y-127710873D01*
X105267447Y-127736473D01*
X105624763Y-127751814D01*
X105968331Y-127791150D01*
X106180333Y-127834963D01*
X106519000Y-127932982D01*
X106224758Y-127997032D01*
X106013124Y-128030286D01*
X105879505Y-128027955D01*
X105870775Y-128024161D01*
X105779561Y-128046192D01*
X105757853Y-128073286D01*
X105782076Y-128141873D01*
X105872078Y-128159334D01*
X106115276Y-128192887D01*
X106273787Y-128278560D01*
X106307333Y-128351837D01*
X106271784Y-128400604D01*
X106253390Y-128387613D01*
X106156084Y-128394877D01*
X105989219Y-128483841D01*
X105965153Y-128500502D01*
X105766694Y-128615917D01*
X105606596Y-128667179D01*
X105600760Y-128667334D01*
X105453153Y-128715890D01*
X105418333Y-128752001D01*
X105299113Y-128813150D01*
X105094719Y-128834453D01*
X104884440Y-128816391D01*
X104747565Y-128759441D01*
X104738459Y-128747889D01*
X104640921Y-128707605D01*
X104582456Y-128743046D01*
X104427081Y-128779113D01*
X104364838Y-128754991D01*
X104201661Y-128712939D01*
X104143408Y-128723273D01*
X104063666Y-128711518D01*
X104063666Y-128413334D01*
X104106000Y-128371000D01*
X104063666Y-128328667D01*
X104021333Y-128371000D01*
X104063666Y-128413334D01*
X104063666Y-128711518D01*
X104011534Y-128703832D01*
X103981713Y-128671725D01*
X103880423Y-128617028D01*
X103846149Y-128628616D01*
X103773671Y-128612573D01*
X103767333Y-128577297D01*
X103736840Y-128520332D01*
X103650220Y-128574461D01*
X103541583Y-128622424D01*
X103483544Y-128542495D01*
X103367925Y-128435954D01*
X103262727Y-128413334D01*
X103125277Y-128361679D01*
X103125277Y-128237316D01*
X103235091Y-128221750D01*
X103236402Y-128192848D01*
X103123085Y-128172636D01*
X103074125Y-128186164D01*
X103042054Y-128223758D01*
X103125277Y-128237316D01*
X103125277Y-128361679D01*
X103099083Y-128351834D01*
X102898714Y-128200802D01*
X102714177Y-128010439D01*
X102598027Y-127830947D01*
X102581999Y-127763119D01*
X102513956Y-127631968D01*
X102460346Y-127599336D01*
X102377626Y-127495752D01*
X102384737Y-127432660D01*
X102364687Y-127336762D01*
X102231225Y-127311371D01*
X102102243Y-127298165D01*
X102126741Y-127249875D01*
X102158666Y-127228001D01*
X102231734Y-127160952D01*
X102174836Y-127144630D01*
X102104690Y-127096217D01*
X102116333Y-127058667D01*
X102126543Y-126917944D01*
X102107726Y-126875408D01*
X102055374Y-126720676D01*
X102028588Y-126545410D01*
X101976746Y-126304377D01*
X101877358Y-126047355D01*
X101876224Y-126045075D01*
X101789514Y-125713251D01*
X101804285Y-125329757D01*
X101804285Y-125329757D01*
G37*
X101804285Y-125329757D02*
X101914382Y-124973645D01*
X101966836Y-124881275D01*
X102035122Y-124735246D01*
X102001166Y-124688000D01*
X101955886Y-124627123D01*
X101984928Y-124480889D01*
X102067290Y-124303898D01*
X102181970Y-124150748D01*
X102220994Y-124116500D01*
X102305433Y-124033187D01*
X102294734Y-124010667D01*
X102303866Y-123952150D01*
X102398742Y-123802330D01*
X102490218Y-123680983D01*
X102643295Y-123461715D01*
X102737254Y-123277045D01*
X102751333Y-123215317D01*
X102817922Y-123088293D01*
X103009915Y-123066889D01*
X103026500Y-123069308D01*
X103088690Y-123016407D01*
X103090000Y-123000750D01*
X103167799Y-122912407D01*
X103376740Y-122812276D01*
X103680137Y-122711103D01*
X104041304Y-122619633D01*
X104423556Y-122548612D01*
X104763880Y-122510463D01*
X105107752Y-122490837D01*
X105312462Y-122491866D01*
X105407332Y-122517239D01*
X105421681Y-122570647D01*
X105414786Y-122592379D01*
X105420503Y-122680489D01*
X105543749Y-122732101D01*
X105715549Y-122755262D01*
X105941470Y-122762929D01*
X106084438Y-122741821D01*
X106103137Y-122728579D01*
X106195462Y-122713761D01*
X106373984Y-122738607D01*
X106564751Y-122787769D01*
X106693809Y-122845900D01*
X106701687Y-122852799D01*
X106642825Y-122877624D01*
X106456958Y-122910096D01*
X106212102Y-122940079D01*
X105836999Y-122971087D01*
X105447053Y-122990865D01*
X105249706Y-122994667D01*
X104995000Y-123010532D01*
X104995000Y-122656000D01*
X105037333Y-122613667D01*
X104995000Y-122571334D01*
X104952666Y-122613667D01*
X104995000Y-122656000D01*
X104995000Y-123010532D01*
X104974614Y-123011802D01*
X104737414Y-123078861D01*
X104470525Y-123219324D01*
X104309626Y-123321283D01*
X103949252Y-123567635D01*
X103701234Y-123779968D01*
X103536410Y-124003627D01*
X103425617Y-124283956D01*
X103339693Y-124666299D01*
X103300148Y-124890934D01*
X103218556Y-125513160D01*
X103202517Y-126018083D01*
X103216335Y-126193671D01*
X103263421Y-126464262D01*
X103346121Y-126670031D01*
X103497955Y-126873234D01*
X103690700Y-127074764D01*
X104064355Y-127404990D01*
X104421316Y-127608737D01*
X104820837Y-127710873D01*
X105267447Y-127736473D01*
X105624763Y-127751814D01*
X105968331Y-127791150D01*
X106180333Y-127834963D01*
X106519000Y-127932982D01*
X106224758Y-127997032D01*
X106013124Y-128030286D01*
X105879505Y-128027955D01*
X105870775Y-128024161D01*
X105779561Y-128046192D01*
X105757853Y-128073286D01*
X105782076Y-128141873D01*
X105872078Y-128159334D01*
X106115276Y-128192887D01*
X106273787Y-128278560D01*
X106307333Y-128351837D01*
X106271784Y-128400604D01*
X106253390Y-128387613D01*
X106156084Y-128394877D01*
X105989219Y-128483841D01*
X105965153Y-128500502D01*
X105766694Y-128615917D01*
X105606596Y-128667179D01*
X105600760Y-128667334D01*
X105453153Y-128715890D01*
X105418333Y-128752001D01*
X105299113Y-128813150D01*
X105094719Y-128834453D01*
X104884440Y-128816391D01*
X104747565Y-128759441D01*
X104738459Y-128747889D01*
X104640921Y-128707605D01*
X104582456Y-128743046D01*
X104427081Y-128779113D01*
X104364838Y-128754991D01*
X104201661Y-128712939D01*
X104143408Y-128723273D01*
X104063666Y-128711518D01*
X104063666Y-128413334D01*
X104106000Y-128371000D01*
X104063666Y-128328667D01*
X104021333Y-128371000D01*
X104063666Y-128413334D01*
X104063666Y-128711518D01*
X104011534Y-128703832D01*
X103981713Y-128671725D01*
X103880423Y-128617028D01*
X103846149Y-128628616D01*
X103773671Y-128612573D01*
X103767333Y-128577297D01*
X103736840Y-128520332D01*
X103650220Y-128574461D01*
X103541583Y-128622424D01*
X103483544Y-128542495D01*
X103367925Y-128435954D01*
X103262727Y-128413334D01*
X103125277Y-128361679D01*
X103125277Y-128237316D01*
X103235091Y-128221750D01*
X103236402Y-128192848D01*
X103123085Y-128172636D01*
X103074125Y-128186164D01*
X103042054Y-128223758D01*
X103125277Y-128237316D01*
X103125277Y-128361679D01*
X103099083Y-128351834D01*
X102898714Y-128200802D01*
X102714177Y-128010439D01*
X102598027Y-127830947D01*
X102581999Y-127763119D01*
X102513956Y-127631968D01*
X102460346Y-127599336D01*
X102377626Y-127495752D01*
X102384737Y-127432660D01*
X102364687Y-127336762D01*
X102231225Y-127311371D01*
X102102243Y-127298165D01*
X102126741Y-127249875D01*
X102158666Y-127228001D01*
X102231734Y-127160952D01*
X102174836Y-127144630D01*
X102104690Y-127096217D01*
X102116333Y-127058667D01*
X102126543Y-126917944D01*
X102107726Y-126875408D01*
X102055374Y-126720676D01*
X102028588Y-126545410D01*
X101976746Y-126304377D01*
X101877358Y-126047355D01*
X101876224Y-126045075D01*
X101789514Y-125713251D01*
X101804285Y-125329757D01*
G36*
X106057664Y-125724473D02*
X106144891Y-125704000D01*
X106318148Y-125774687D01*
X106401592Y-125974223D01*
X106388341Y-126283822D01*
X106377501Y-126339000D01*
X106303963Y-126650238D01*
X106243482Y-126800927D01*
X106183373Y-126797881D01*
X106180333Y-126791587D01*
X106180333Y-126550667D01*
X106222666Y-126508334D01*
X106180333Y-126466000D01*
X106138000Y-126508334D01*
X106180333Y-126550667D01*
X106180333Y-126791587D01*
X106110947Y-126647916D01*
X106062279Y-126508334D01*
X105967367Y-126131362D01*
X105966254Y-125865935D01*
X106057664Y-125724473D01*
X106057664Y-125724473D01*
G37*
X106057664Y-125724473D02*
X106144891Y-125704000D01*
X106318148Y-125774687D01*
X106401592Y-125974223D01*
X106388341Y-126283822D01*
X106377501Y-126339000D01*
X106303963Y-126650238D01*
X106243482Y-126800927D01*
X106183373Y-126797881D01*
X106180333Y-126791587D01*
X106180333Y-126550667D01*
X106222666Y-126508334D01*
X106180333Y-126466000D01*
X106138000Y-126508334D01*
X106180333Y-126550667D01*
X106180333Y-126791587D01*
X106110947Y-126647916D01*
X106062279Y-126508334D01*
X105967367Y-126131362D01*
X105966254Y-125865935D01*
X106057664Y-125724473D01*
G36*
X106018228Y-124284083D02*
X106019761Y-124265717D01*
X106068415Y-123954958D01*
X106148717Y-123696673D01*
X106244147Y-123535020D01*
X106305237Y-123502667D01*
X106353008Y-123580282D01*
X106384048Y-123785454D01*
X106392000Y-124000797D01*
X106385835Y-124281902D01*
X106356639Y-124437016D01*
X106288363Y-124509340D01*
X106265000Y-124516102D01*
X106265000Y-124264667D01*
X106307333Y-124222334D01*
X106265000Y-124180000D01*
X106222666Y-124222334D01*
X106265000Y-124264667D01*
X106265000Y-124516102D01*
X106192765Y-124537013D01*
X106062991Y-124546027D01*
X106013916Y-124475993D01*
X106018228Y-124284083D01*
X106018228Y-124284083D01*
G37*
X106018228Y-124284083D02*
X106019761Y-124265717D01*
X106068415Y-123954958D01*
X106148717Y-123696673D01*
X106244147Y-123535020D01*
X106305237Y-123502667D01*
X106353008Y-123580282D01*
X106384048Y-123785454D01*
X106392000Y-124000797D01*
X106385835Y-124281902D01*
X106356639Y-124437016D01*
X106288363Y-124509340D01*
X106265000Y-124516102D01*
X106265000Y-124264667D01*
X106307333Y-124222334D01*
X106265000Y-124180000D01*
X106222666Y-124222334D01*
X106265000Y-124264667D01*
X106265000Y-124516102D01*
X106192765Y-124537013D01*
X106062991Y-124546027D01*
X106013916Y-124475993D01*
X106018228Y-124284083D01*
G36*
X105501105Y-123684853D02*
X105553664Y-123578165D01*
X105587666Y-123573419D01*
X105657732Y-123667310D01*
X105726915Y-123864170D01*
X105782177Y-124103399D01*
X105810477Y-124324400D01*
X105798776Y-124466573D01*
X105783994Y-124485814D01*
X105663986Y-124478351D01*
X105579880Y-124427539D01*
X105515833Y-124304371D01*
X105481689Y-124102903D01*
X105476946Y-123878081D01*
X105501105Y-123684853D01*
X105501105Y-123684853D01*
G37*
X105501105Y-123684853D02*
X105553664Y-123578165D01*
X105587666Y-123573419D01*
X105657732Y-123667310D01*
X105726915Y-123864170D01*
X105782177Y-124103399D01*
X105810477Y-124324400D01*
X105798776Y-124466573D01*
X105783994Y-124485814D01*
X105663986Y-124478351D01*
X105579880Y-124427539D01*
X105515833Y-124304371D01*
X105481689Y-124102903D01*
X105476946Y-123878081D01*
X105501105Y-123684853D01*
G36*
X105320850Y-126139808D02*
X105359549Y-125986535D01*
X105389123Y-125958000D01*
X105437277Y-125909168D01*
X105428916Y-125890458D01*
X105432421Y-125770314D01*
X105466253Y-125699958D01*
X105543609Y-125620449D01*
X105621086Y-125692527D01*
X105628703Y-125704000D01*
X105693442Y-125851911D01*
X105692700Y-126034799D01*
X105622875Y-126301392D01*
X105573926Y-126444834D01*
X105465473Y-126699856D01*
X105382222Y-126787748D01*
X105327509Y-126709295D01*
X105304670Y-126465284D01*
X105304308Y-126381334D01*
X105320850Y-126139808D01*
X105320850Y-126139808D01*
G37*
X105320850Y-126139808D02*
X105359549Y-125986535D01*
X105389123Y-125958000D01*
X105437277Y-125909168D01*
X105428916Y-125890458D01*
X105432421Y-125770314D01*
X105466253Y-125699958D01*
X105543609Y-125620449D01*
X105621086Y-125692527D01*
X105628703Y-125704000D01*
X105693442Y-125851911D01*
X105692700Y-126034799D01*
X105622875Y-126301392D01*
X105573926Y-126444834D01*
X105465473Y-126699856D01*
X105382222Y-126787748D01*
X105327509Y-126709295D01*
X105304670Y-126465284D01*
X105304308Y-126381334D01*
X105320850Y-126139808D01*
D13*
X166480000Y-109520000D02*
X166480000Y-122220000D01*
X166480000Y-122220000D02*
X134730000Y-122220000D01*
X134730000Y-122220000D02*
X134730000Y-109520000D01*
X134730000Y-109520000D02*
X166480000Y-109520000D01*
X161290000Y-118700000D02*
X161290000Y-119100000D01*
X147290000Y-118700000D02*
X147290000Y-119100000D01*
X157790000Y-118700000D02*
X157790000Y-119100000D01*
X154290000Y-118700000D02*
X154290000Y-119100000D01*
X140290000Y-118700000D02*
X140290000Y-119100000D01*
X143790000Y-118700000D02*
X143790000Y-119100000D01*
X150790000Y-118700000D02*
X150790000Y-119100000D01*
X136790000Y-117600000D02*
X164790000Y-117600000D01*
X136790000Y-118700000D02*
X164790000Y-118700000D01*
X136790000Y-111500000D02*
X136790000Y-119100000D01*
X164790000Y-119100000D02*
X164790000Y-111500000D01*
X164790000Y-111500000D02*
X136790000Y-111500000D01*
X199830000Y-114780000D02*
X199830000Y-127480000D01*
X199830000Y-127480000D02*
X168080000Y-127480000D01*
X168080000Y-127480000D02*
X168080000Y-114780000D01*
X168080000Y-114780000D02*
X199830000Y-114780000D01*
X194640000Y-123960000D02*
X194640000Y-124360000D01*
X180640000Y-123960000D02*
X180640000Y-124360000D01*
X191140000Y-123960000D02*
X191140000Y-124360000D01*
X187640000Y-123960000D02*
X187640000Y-124360000D01*
X173640000Y-123960000D02*
X173640000Y-124360000D01*
X177140000Y-123960000D02*
X177140000Y-124360000D01*
X184140000Y-123960000D02*
X184140000Y-124360000D01*
X170140000Y-122860000D02*
X198140000Y-122860000D01*
X170140000Y-123960000D02*
X198140000Y-123960000D01*
X170140000Y-116760000D02*
X170140000Y-124360000D01*
X198140000Y-124360000D02*
X198140000Y-116760000D01*
X198140000Y-116760000D02*
X170140000Y-116760000D01*
X166610000Y-80230000D02*
X166610000Y-92930000D01*
X166610000Y-92930000D02*
X134860000Y-92930000D01*
X134860000Y-92930000D02*
X134860000Y-80230000D01*
X134860000Y-80230000D02*
X166610000Y-80230000D01*
X161420000Y-89410000D02*
X161420000Y-89810000D01*
X147420000Y-89410000D02*
X147420000Y-89810000D01*
X157920000Y-89410000D02*
X157920000Y-89810000D01*
X154420000Y-89410000D02*
X154420000Y-89810000D01*
X140420000Y-89410000D02*
X140420000Y-89810000D01*
X143920000Y-89410000D02*
X143920000Y-89810000D01*
X150920000Y-89410000D02*
X150920000Y-89810000D01*
X136920000Y-88310000D02*
X164920000Y-88310000D01*
X136920000Y-89410000D02*
X164920000Y-89410000D01*
X136920000Y-82210000D02*
X136920000Y-89810000D01*
X164920000Y-89810000D02*
X164920000Y-82210000D01*
X164920000Y-82210000D02*
X136920000Y-82210000D01*
X132740000Y-80230000D02*
X132740000Y-92930000D01*
X132740000Y-92930000D02*
X100990000Y-92930000D01*
X100990000Y-92930000D02*
X100990000Y-80230000D01*
X100990000Y-80230000D02*
X132740000Y-80230000D01*
X127550000Y-89410000D02*
X127550000Y-89810000D01*
X113550000Y-89410000D02*
X113550000Y-89810000D01*
X124050000Y-89410000D02*
X124050000Y-89810000D01*
X120550000Y-89410000D02*
X120550000Y-89810000D01*
X106550000Y-89410000D02*
X106550000Y-89810000D01*
X110050000Y-89410000D02*
X110050000Y-89810000D01*
X117050000Y-89410000D02*
X117050000Y-89810000D01*
X103050000Y-88310000D02*
X131050000Y-88310000D01*
X103050000Y-89410000D02*
X131050000Y-89410000D01*
X103050000Y-82210000D02*
X103050000Y-89810000D01*
X131050000Y-89810000D02*
X131050000Y-82210000D01*
X131050000Y-82210000D02*
X103050000Y-82210000D01*
X199780000Y-75460000D02*
X199780000Y-88160000D01*
X199780000Y-88160000D02*
X168030000Y-88160000D01*
X168030000Y-88160000D02*
X168030000Y-75460000D01*
X168030000Y-75460000D02*
X199780000Y-75460000D01*
X194590000Y-84640000D02*
X194590000Y-85040000D01*
X180590000Y-84640000D02*
X180590000Y-85040000D01*
X191090000Y-84640000D02*
X191090000Y-85040000D01*
X187590000Y-84640000D02*
X187590000Y-85040000D01*
X173590000Y-84640000D02*
X173590000Y-85040000D01*
X177090000Y-84640000D02*
X177090000Y-85040000D01*
X184090000Y-84640000D02*
X184090000Y-85040000D01*
X170090000Y-83540000D02*
X198090000Y-83540000D01*
X170090000Y-84640000D02*
X198090000Y-84640000D01*
X170090000Y-77440000D02*
X170090000Y-85040000D01*
X198090000Y-85040000D02*
X198090000Y-77440000D01*
X198090000Y-77440000D02*
X170090000Y-77440000D01*
X132650000Y-94980000D02*
X132650000Y-107680000D01*
X132650000Y-107680000D02*
X100900000Y-107680000D01*
X100900000Y-107680000D02*
X100900000Y-94980000D01*
X100900000Y-94980000D02*
X132650000Y-94980000D01*
X127460000Y-104160000D02*
X127460000Y-104560000D01*
X113460000Y-104160000D02*
X113460000Y-104560000D01*
X123960000Y-104160000D02*
X123960000Y-104560000D01*
X120460000Y-104160000D02*
X120460000Y-104560000D01*
X106460000Y-104160000D02*
X106460000Y-104560000D01*
X109960000Y-104160000D02*
X109960000Y-104560000D01*
X116960000Y-104160000D02*
X116960000Y-104560000D01*
X102960000Y-103060000D02*
X130960000Y-103060000D01*
X102960000Y-104160000D02*
X130960000Y-104160000D01*
X102960000Y-96960000D02*
X102960000Y-104560000D01*
X130960000Y-104560000D02*
X130960000Y-96960000D01*
X130960000Y-96960000D02*
X102960000Y-96960000D01*
X132650000Y-109560000D02*
X132650000Y-122260000D01*
X132650000Y-122260000D02*
X100900000Y-122260000D01*
X100900000Y-122260000D02*
X100900000Y-109560000D01*
X100900000Y-109560000D02*
X132650000Y-109560000D01*
X127460000Y-118740000D02*
X127460000Y-119140000D01*
X113460000Y-118740000D02*
X113460000Y-119140000D01*
X123960000Y-118740000D02*
X123960000Y-119140000D01*
X120460000Y-118740000D02*
X120460000Y-119140000D01*
X106460000Y-118740000D02*
X106460000Y-119140000D01*
X109960000Y-118740000D02*
X109960000Y-119140000D01*
X116960000Y-118740000D02*
X116960000Y-119140000D01*
X102960000Y-117640000D02*
X130960000Y-117640000D01*
X102960000Y-118740000D02*
X130960000Y-118740000D01*
X102960000Y-111540000D02*
X102960000Y-119140000D01*
X130960000Y-119140000D02*
X130960000Y-111540000D01*
X130960000Y-111540000D02*
X102960000Y-111540000D01*
X194700000Y-94840000D02*
X199780000Y-94840000D01*
X199780000Y-94840000D02*
X199780000Y-107540000D01*
X199780000Y-107540000D02*
X168030000Y-107540000D01*
X168030000Y-107540000D02*
X168030000Y-94840000D01*
X168030000Y-94840000D02*
X194700000Y-94840000D01*
X194590000Y-104020000D02*
X194590000Y-104420000D01*
X180590000Y-104020000D02*
X180590000Y-104420000D01*
X191090000Y-104020000D02*
X191090000Y-104420000D01*
X187590000Y-104020000D02*
X187590000Y-104420000D01*
X173590000Y-104020000D02*
X173590000Y-104420000D01*
X177090000Y-104020000D02*
X177090000Y-104420000D01*
X184090000Y-104020000D02*
X184090000Y-104420000D01*
X170090000Y-102920000D02*
X198090000Y-102920000D01*
X170090000Y-104020000D02*
X198090000Y-104020000D01*
X170090000Y-96820000D02*
X170090000Y-104420000D01*
X198090000Y-104420000D02*
X198090000Y-96820000D01*
X198090000Y-96820000D02*
X170090000Y-96820000D01*
D14*
X161230000Y-104830000D02*
X161230000Y-107490000D01*
X161230000Y-107490000D02*
X166550000Y-107490000D01*
X166550000Y-107490000D02*
X166550000Y-102170000D01*
X166550000Y-102170000D02*
X163890000Y-102170000D01*
X163890000Y-102170000D02*
X163890000Y-104830000D01*
X163890000Y-104830000D02*
X161230000Y-104830000D01*
X161230000Y-103560000D02*
X161230000Y-102170000D01*
X161230000Y-102170000D02*
X162620000Y-102170000D01*
X161310000Y-97430000D02*
X161310000Y-100090000D01*
X161310000Y-100090000D02*
X166630000Y-100090000D01*
X166630000Y-100090000D02*
X166630000Y-94770000D01*
X166630000Y-94770000D02*
X163970000Y-94770000D01*
X163970000Y-94770000D02*
X163970000Y-97430000D01*
X163970000Y-97430000D02*
X161310000Y-97430000D01*
X161310000Y-96160000D02*
X161310000Y-94770000D01*
X161310000Y-94770000D02*
X162700000Y-94770000D01*
X155370000Y-102390000D02*
G75*
G03X155370000Y-102390000I-3870000J0D01*
G01*
D13*
X135236667Y-108182381D02*
X135236667Y-108896667D01*
X135189047Y-109039524D01*
X135093809Y-109134762D01*
X134950952Y-109182381D01*
X134855714Y-109182381D01*
X136141429Y-108515714D02*
X136141429Y-109182381D01*
X135903333Y-108134762D02*
X135665238Y-108849048D01*
X136284286Y-108849048D01*
X168586667Y-113312381D02*
X168586667Y-114026667D01*
X168539047Y-114169524D01*
X168443809Y-114264762D01*
X168300952Y-114312381D01*
X168205714Y-114312381D01*
X168967619Y-113312381D02*
X169586667Y-113312381D01*
X169253333Y-113693333D01*
X169396191Y-113693333D01*
X169491429Y-113740952D01*
X169539048Y-113788571D01*
X169586667Y-113883810D01*
X169586667Y-114121905D01*
X169539048Y-114217143D01*
X169491429Y-114264762D01*
X169396191Y-114312381D01*
X169110476Y-114312381D01*
X169015238Y-114264762D01*
X168967619Y-114217143D01*
X135406667Y-78952381D02*
X135406667Y-79666667D01*
X135359047Y-79809524D01*
X135263809Y-79904762D01*
X135120952Y-79952381D01*
X135025714Y-79952381D01*
X135930476Y-79952381D02*
X136120952Y-79952381D01*
X136216191Y-79904762D01*
X136263810Y-79857143D01*
X136359048Y-79714286D01*
X136406667Y-79523810D01*
X136406667Y-79142857D01*
X136359048Y-79047619D01*
X136311429Y-79000000D01*
X136216191Y-78952381D01*
X136025714Y-78952381D01*
X135930476Y-79000000D01*
X135882857Y-79047619D01*
X135835238Y-79142857D01*
X135835238Y-79380952D01*
X135882857Y-79476190D01*
X135930476Y-79523810D01*
X136025714Y-79571429D01*
X136216191Y-79571429D01*
X136311429Y-79523810D01*
X136359048Y-79476190D01*
X136406667Y-79380952D01*
X101440477Y-78772381D02*
X101440477Y-79486667D01*
X101392857Y-79629524D01*
X101297619Y-79724762D01*
X101154762Y-79772381D01*
X101059524Y-79772381D01*
X102440477Y-79772381D02*
X101869048Y-79772381D01*
X102154762Y-79772381D02*
X102154762Y-78772381D01*
X102059524Y-78915238D01*
X101964286Y-79010476D01*
X101869048Y-79058095D01*
X103059524Y-78772381D02*
X103154763Y-78772381D01*
X103250001Y-78820000D01*
X103297620Y-78867619D01*
X103345239Y-78962857D01*
X103392858Y-79153333D01*
X103392858Y-79391429D01*
X103345239Y-79581905D01*
X103297620Y-79677143D01*
X103250001Y-79724762D01*
X103154763Y-79772381D01*
X103059524Y-79772381D01*
X102964286Y-79724762D01*
X102916667Y-79677143D01*
X102869048Y-79581905D01*
X102821429Y-79391429D01*
X102821429Y-79153333D01*
X102869048Y-78962857D01*
X102916667Y-78867619D01*
X102964286Y-78820000D01*
X103059524Y-78772381D01*
X166456667Y-75682381D02*
X166456667Y-76396667D01*
X166409047Y-76539524D01*
X166313809Y-76634762D01*
X166170952Y-76682381D01*
X166075714Y-76682381D01*
X167075714Y-76110952D02*
X166980476Y-76063333D01*
X166932857Y-76015714D01*
X166885238Y-75920476D01*
X166885238Y-75872857D01*
X166932857Y-75777619D01*
X166980476Y-75730000D01*
X167075714Y-75682381D01*
X167266191Y-75682381D01*
X167361429Y-75730000D01*
X167409048Y-75777619D01*
X167456667Y-75872857D01*
X167456667Y-75920476D01*
X167409048Y-76015714D01*
X167361429Y-76063333D01*
X167266191Y-76110952D01*
X167075714Y-76110952D01*
X166980476Y-76158571D01*
X166932857Y-76206190D01*
X166885238Y-76301429D01*
X166885238Y-76491905D01*
X166932857Y-76587143D01*
X166980476Y-76634762D01*
X167075714Y-76682381D01*
X167266191Y-76682381D01*
X167361429Y-76634762D01*
X167409048Y-76587143D01*
X167456667Y-76491905D01*
X167456667Y-76301429D01*
X167409048Y-76206190D01*
X167361429Y-76158571D01*
X167266191Y-76110952D01*
X101406667Y-93652381D02*
X101406667Y-94366667D01*
X101359047Y-94509524D01*
X101263809Y-94604762D01*
X101120952Y-94652381D01*
X101025714Y-94652381D01*
X101787619Y-93652381D02*
X102454286Y-93652381D01*
X102025714Y-94652381D01*
X101346667Y-108292381D02*
X101346667Y-109006667D01*
X101299047Y-109149524D01*
X101203809Y-109244762D01*
X101060952Y-109292381D01*
X100965714Y-109292381D01*
X102299048Y-108292381D02*
X101822857Y-108292381D01*
X101775238Y-108768571D01*
X101822857Y-108720952D01*
X101918095Y-108673333D01*
X102156191Y-108673333D01*
X102251429Y-108720952D01*
X102299048Y-108768571D01*
X102346667Y-108863810D01*
X102346667Y-109101905D01*
X102299048Y-109197143D01*
X102251429Y-109244762D01*
X102156191Y-109292381D01*
X101918095Y-109292381D01*
X101822857Y-109244762D01*
X101775238Y-109197143D01*
X168406667Y-93462381D02*
X168406667Y-94176667D01*
X168359047Y-94319524D01*
X168263809Y-94414762D01*
X168120952Y-94462381D01*
X168025714Y-94462381D01*
X169311429Y-93462381D02*
X169120952Y-93462381D01*
X169025714Y-93510000D01*
X168978095Y-93557619D01*
X168882857Y-93700476D01*
X168835238Y-93890952D01*
X168835238Y-94271905D01*
X168882857Y-94367143D01*
X168930476Y-94414762D01*
X169025714Y-94462381D01*
X169216191Y-94462381D01*
X169311429Y-94414762D01*
X169359048Y-94367143D01*
X169406667Y-94271905D01*
X169406667Y-94033810D01*
X169359048Y-93938571D01*
X169311429Y-93890952D01*
X169216191Y-93843333D01*
X169025714Y-93843333D01*
X168930476Y-93890952D01*
X168882857Y-93938571D01*
X168835238Y-94033810D01*
X167216667Y-104412381D02*
X167216667Y-105126667D01*
X167169047Y-105269524D01*
X167073809Y-105364762D01*
X166930952Y-105412381D01*
X166835714Y-105412381D01*
X168216667Y-105412381D02*
X167645238Y-105412381D01*
X167930952Y-105412381D02*
X167930952Y-104412381D01*
X167835714Y-104555238D01*
X167740476Y-104650476D01*
X167645238Y-104698095D01*
X167256667Y-96872381D02*
X167256667Y-97586667D01*
X167209047Y-97729524D01*
X167113809Y-97824762D01*
X166970952Y-97872381D01*
X166875714Y-97872381D01*
X167685238Y-96967619D02*
X167732857Y-96920000D01*
X167828095Y-96872381D01*
X168066191Y-96872381D01*
X168161429Y-96920000D01*
X168209048Y-96967619D01*
X168256667Y-97062857D01*
X168256667Y-97158095D01*
X168209048Y-97300952D01*
X167637619Y-97872381D01*
X168256667Y-97872381D01*
X151364762Y-102872381D02*
X151031428Y-102396190D01*
X150793333Y-102872381D02*
X150793333Y-101872381D01*
X151174286Y-101872381D01*
X151269524Y-101920000D01*
X151317143Y-101967619D01*
X151364762Y-102062857D01*
X151364762Y-102205714D01*
X151317143Y-102300952D01*
X151269524Y-102348571D01*
X151174286Y-102396190D01*
X150793333Y-102396190D01*
X151650476Y-101872381D02*
X151983809Y-102872381D01*
X152317143Y-101872381D01*
X153174286Y-102872381D02*
X152602857Y-102872381D01*
X152888571Y-102872381D02*
X152888571Y-101872381D01*
X152793333Y-102015238D01*
X152698095Y-102110476D01*
X152602857Y-102158095D01*
M02*
