M48
;DRILL file {KiCad 4.0.6} date Tue Oct  9 15:13:43 2018
;FORMAT={-:-/ absolute / inch / decimal}
FMAT,2
INCH,TZ
T1C0.013
T2C0.028
T3C0.032
T4C0.039
T5C0.047
%
G90
G05
M72
T1
X4.1779Y-4.1431
X4.2562Y-4.2795
X4.3059Y-4.2393
X4.4023Y-3.6025
X4.4108Y-4.2597
X4.4948Y-4.0215
X4.5769Y-4.0876
X4.5887Y-3.8473
X4.6026Y-3.5639
X4.6377Y-4.2393
X4.6524Y-3.8266
X4.6816Y-4.2945
X4.7479Y-4.0444
X4.7961Y-3.7334
X4.8057Y-3.5663
X4.8187Y-3.4317
X4.8191Y-4.164
X4.8358Y-3.463
X4.8639Y-3.5938
X4.8683Y-4.0435
X4.8817Y-4.2829
X4.8817Y-3.7316
X4.9173Y-3.6502
X4.983Y-3.8379
X5.0045Y-3.4888
X5.0244Y-3.8812
X5.0653Y-4.0088
X5.1639Y-3.5682
X5.1694Y-3.1848
X5.5802Y-3.8312
X5.5839Y-3.7396
X5.6156Y-3.717
X5.6254Y-3.1232
X5.7715Y-3.691
X5.774Y-3.6114
X5.8829Y-3.1399
X6.0009Y-3.2748
X6.0437Y-3.6649
X6.073Y-3.876
X6.1217Y-3.6471
X6.267Y-3.7447
X6.3784Y-3.9938
X6.5509Y-3.8398
X6.6898Y-3.7365
X6.7723Y-3.6977
X6.8339Y-3.5249
X6.8436Y-4.0929
X6.8951Y-3.6194
X6.9259Y-4.2367
X6.9296Y-4.2865
X6.9831Y-4.3055
X6.9932Y-3.8493
X7.0248Y-4.3412
X7.0485Y-3.5721
X7.1001Y-3.8971
X7.1129Y-3.726
X7.1459Y-3.6181
X7.1867Y-3.7257
X7.3042Y-3.6651
X7.4055Y-4.771
X7.4195Y-4.3055
X7.4824Y-4.2632
X7.5334Y-4.3134
X7.6249Y-4.3437
X7.6286Y-3.748
X7.6734Y-3.7512
X7.7746Y-3.8405
T2
X5.8646Y-4.0311
X5.9646Y-3.9311
X5.9646Y-4.1311
T3
X4.89Y-3.0433
X4.99Y-3.0433
X5.09Y-3.0433
X5.19Y-3.0433
X5.25Y-4.9433
X5.29Y-3.0433
X5.35Y-4.9433
X5.39Y-3.0433
X5.45Y-4.9433
X5.49Y-3.0433
X5.55Y-4.9433
X5.59Y-3.0433
X5.65Y-4.9433
X5.75Y-3.0433
X5.75Y-4.9433
X5.85Y-3.0433
X5.95Y-3.0433
X5.95Y-4.9433
X6.05Y-3.0433
X6.05Y-4.9433
X6.15Y-3.0433
X6.15Y-4.9433
X6.25Y-3.0433
X6.25Y-4.9433
X6.35Y-3.0433
X6.35Y-4.9433
X6.45Y-3.0433
X6.45Y-4.9433
T4
X6.4024Y-4.0772
X6.4024Y-4.1772
X6.4055Y-3.7858
X6.4055Y-3.8858
X6.5024Y-4.0772
X6.5024Y-4.1772
X6.5055Y-3.7858
X6.5055Y-3.8858
T5
X4.1224Y-3.9394
X4.1224Y-4.5134
X4.126Y-3.3587
X4.2602Y-3.9394
X4.2602Y-4.5134
X4.2638Y-3.3587
X4.398Y-3.9394
X4.398Y-4.5134
X4.4016Y-3.3587
X4.5358Y-3.9394
X4.5358Y-4.5134
X4.5394Y-3.3587
X4.6736Y-3.9394
X4.6736Y-4.5134
X4.6772Y-3.3587
X4.8114Y-3.9394
X4.8114Y-4.5134
X4.815Y-3.3587
X4.9492Y-3.9394
X4.9492Y-4.5134
X4.9528Y-3.3587
X5.087Y-3.9394
X5.087Y-4.5134
X5.0906Y-3.3587
X5.4543Y-4.5118
X5.4594Y-3.3587
X5.5921Y-4.5118
X5.5972Y-3.3587
X5.7299Y-4.5118
X5.735Y-3.3587
X5.8677Y-4.5118
X5.8728Y-3.3587
X6.0055Y-4.5118
X6.0106Y-3.3587
X6.1433Y-4.5118
X6.1484Y-3.3587
X6.2811Y-4.5118
X6.2862Y-3.3587
X6.4189Y-4.5118
X6.424Y-3.3587
X6.7654Y-3.1709
X6.7654Y-3.9339
X6.7673Y-4.7189
X6.9031Y-3.1709
X6.9031Y-3.9339
X6.9051Y-4.7189
X7.0409Y-3.1709
X7.0409Y-3.9339
X7.0429Y-4.7189
X7.1787Y-3.1709
X7.1787Y-3.9339
X7.1807Y-4.7189
X7.3165Y-3.1709
X7.3165Y-3.9339
X7.3185Y-4.7189
X7.4543Y-3.1709
X7.4543Y-3.9339
X7.4563Y-4.7189
X7.5921Y-3.1709
X7.5921Y-3.9339
X7.5941Y-4.7189
X7.7299Y-3.1709
X7.7299Y-3.9339
X7.7319Y-4.7189
T0
M30
